<?xml version="1.0" encoding="UTF-8" standalone="no"?>
<!DOCTYPE svg PUBLIC "-//W3C//DTD SVG 1.1//EN"
 "http://www.w3.org/Graphics/SVG/1.1/DTD/svg11.dtd">
<!-- Generated by graphviz version 2.43.0 (0)
 -->
<!-- Title: snakemake_dag Pages: 1 -->
<svg width="1206pt" height="620pt"
 viewBox="0.00 0.00 1206.46 620.00" xmlns="http://www.w3.org/2000/svg" xmlns:xlink="http://www.w3.org/1999/xlink">
<g id="graph0" class="graph" transform="scale(1 1) rotate(0) translate(4 616)">
<title>snakemake_dag</title>
<polygon fill="white" stroke="transparent" points="-4,4 -4,-616 1202.46,-616 1202.46,4 -4,4"/>
<!-- 0 -->
<g id="node1" class="node">
<title>0</title>
<path fill="none" stroke="#5692d8" stroke-width="2" d="M576.46,-36C576.46,-36 546.46,-36 546.46,-36 540.46,-36 534.46,-30 534.46,-24 534.46,-24 534.46,-12 534.46,-12 534.46,-6 540.46,0 546.46,0 546.46,0 576.46,0 576.46,0 582.46,0 588.46,-6 588.46,-12 588.46,-12 588.46,-24 588.46,-24 588.46,-30 582.46,-36 576.46,-36"/>
<text text-anchor="middle" x="561.46" y="-15.5" font-family="sans" font-size="10.00">all</text>
</g>
<!-- 1 -->
<g id="node2" class="node">
<title>1</title>
<path fill="none" stroke="#9fd856" stroke-width="2" d="M323.96,-396C323.96,-396 260.96,-396 260.96,-396 254.96,-396 248.96,-390 248.96,-384 248.96,-384 248.96,-372 248.96,-372 248.96,-366 254.96,-360 260.96,-360 260.96,-360 323.96,-360 323.96,-360 329.96,-360 335.96,-366 335.96,-372 335.96,-372 335.96,-384 335.96,-384 335.96,-390 329.96,-396 323.96,-396"/>
<text text-anchor="middle" x="292.46" y="-375.5" font-family="sans" font-size="10.00">multiqc_pass1</text>
</g>
<!-- 1&#45;&gt;0 -->
<g id="edge1" class="edge">
<title>1&#45;&gt;0</title>
<path fill="none" stroke="grey" stroke-width="2" d="M248.79,-374.2C180.53,-368.92 53.09,-355.09 21.46,-324 -7.38,-295.65 2.46,-275.45 2.46,-235 2.46,-235 2.46,-235 2.46,-161 2.46,-101.83 47.52,-96.31 101.46,-72 176.96,-37.97 428.87,-24.39 524.35,-20.38"/>
<polygon fill="grey" stroke="grey" stroke-width="2" points="524.56,-23.87 534.41,-19.97 524.27,-16.88 524.56,-23.87"/>
</g>
<!-- 2 -->
<g id="node3" class="node">
<title>2</title>
<path fill="none" stroke="#afd856" stroke-width="2" d="M321.96,-468C321.96,-468 262.96,-468 262.96,-468 256.96,-468 250.96,-462 250.96,-456 250.96,-456 250.96,-444 250.96,-444 250.96,-438 256.96,-432 262.96,-432 262.96,-432 321.96,-432 321.96,-432 327.96,-432 333.96,-438 333.96,-444 333.96,-444 333.96,-456 333.96,-456 333.96,-462 327.96,-468 321.96,-468"/>
<text text-anchor="middle" x="292.46" y="-453" font-family="sans" font-size="10.00">fastQC_pass1</text>
<text text-anchor="middle" x="292.46" y="-442" font-family="sans" font-size="10.00">read: R1</text>
</g>
<!-- 2&#45;&gt;1 -->
<g id="edge12" class="edge">
<title>2&#45;&gt;1</title>
<path fill="none" stroke="grey" stroke-width="2" d="M292.46,-431.7C292.46,-423.98 292.46,-414.71 292.46,-406.11"/>
<polygon fill="grey" stroke="grey" stroke-width="2" points="295.96,-406.1 292.46,-396.1 288.96,-406.1 295.96,-406.1"/>
</g>
<!-- 3 -->
<g id="node4" class="node">
<title>3</title>
<path fill="none" stroke="#56b9d8" stroke-width="2" d="M551.46,-540C551.46,-540 473.46,-540 473.46,-540 467.46,-540 461.46,-534 461.46,-528 461.46,-528 461.46,-516 461.46,-516 461.46,-510 467.46,-504 473.46,-504 473.46,-504 551.46,-504 551.46,-504 557.46,-504 563.46,-510 563.46,-516 563.46,-516 563.46,-528 563.46,-528 563.46,-534 557.46,-540 551.46,-540"/>
<text text-anchor="middle" x="512.46" y="-519.5" font-family="sans" font-size="10.00">remove_adapters</text>
</g>
<!-- 3&#45;&gt;2 -->
<g id="edge14" class="edge">
<title>3&#45;&gt;2</title>
<path fill="none" stroke="grey" stroke-width="2" d="M461.4,-505.45C429.83,-495.75 388.26,-482.83 343.72,-468.38"/>
<polygon fill="grey" stroke="grey" stroke-width="2" points="344.77,-465.04 334.18,-465.27 342.6,-471.7 344.77,-465.04"/>
</g>
<!-- 5 -->
<g id="node6" class="node">
<title>5</title>
<path fill="none" stroke="#afd856" stroke-width="2" d="M422.96,-468C422.96,-468 363.96,-468 363.96,-468 357.96,-468 351.96,-462 351.96,-456 351.96,-456 351.96,-444 351.96,-444 351.96,-438 357.96,-432 363.96,-432 363.96,-432 422.96,-432 422.96,-432 428.96,-432 434.96,-438 434.96,-444 434.96,-444 434.96,-456 434.96,-456 434.96,-462 428.96,-468 422.96,-468"/>
<text text-anchor="middle" x="393.46" y="-453" font-family="sans" font-size="10.00">fastQC_pass1</text>
<text text-anchor="middle" x="393.46" y="-442" font-family="sans" font-size="10.00">read: R2</text>
</g>
<!-- 3&#45;&gt;5 -->
<g id="edge16" class="edge">
<title>3&#45;&gt;5</title>
<path fill="none" stroke="grey" stroke-width="2" d="M483.35,-503.88C467.79,-494.72 448.44,-483.34 431.69,-473.48"/>
<polygon fill="grey" stroke="grey" stroke-width="2" points="433.08,-470.24 422.68,-468.19 429.53,-476.28 433.08,-470.24"/>
</g>
<!-- 8 -->
<g id="node9" class="node">
<title>8</title>
<path fill="none" stroke="#56d863" stroke-width="2" d="M658.46,-468C658.46,-468 602.46,-468 602.46,-468 596.46,-468 590.46,-462 590.46,-456 590.46,-456 590.46,-444 590.46,-444 590.46,-438 596.46,-432 602.46,-432 602.46,-432 658.46,-432 658.46,-432 664.46,-432 670.46,-438 670.46,-444 670.46,-444 670.46,-456 670.46,-456 670.46,-462 664.46,-468 658.46,-468"/>
<text text-anchor="middle" x="630.46" y="-447.5" font-family="sans" font-size="10.00">trim_forward</text>
</g>
<!-- 3&#45;&gt;8 -->
<g id="edge20" class="edge">
<title>3&#45;&gt;8</title>
<path fill="none" stroke="grey" stroke-width="2" d="M541.33,-503.88C556.76,-494.72 575.94,-483.34 592.56,-473.48"/>
<polygon fill="grey" stroke="grey" stroke-width="2" points="594.67,-476.3 601.48,-468.19 591.1,-470.28 594.67,-476.3"/>
</g>
<!-- 10 -->
<g id="node11" class="node">
<title>10</title>
<path fill="none" stroke="#56d882" stroke-width="2" d="M755.96,-468C755.96,-468 700.96,-468 700.96,-468 694.96,-468 688.96,-462 688.96,-456 688.96,-456 688.96,-444 688.96,-444 688.96,-438 694.96,-432 700.96,-432 700.96,-432 755.96,-432 755.96,-432 761.96,-432 767.96,-438 767.96,-444 767.96,-444 767.96,-456 767.96,-456 767.96,-462 761.96,-468 755.96,-468"/>
<text text-anchor="middle" x="728.46" y="-447.5" font-family="sans" font-size="10.00">trim_reverse</text>
</g>
<!-- 3&#45;&gt;10 -->
<g id="edge22" class="edge">
<title>3&#45;&gt;10</title>
<path fill="none" stroke="grey" stroke-width="2" d="M563.74,-505.11C594.64,-495.45 634.99,-482.68 679.38,-467.99"/>
<polygon fill="grey" stroke="grey" stroke-width="2" points="680.52,-471.29 688.91,-464.82 678.32,-464.65 680.52,-471.29"/>
</g>
<!-- 4 -->
<g id="node5" class="node">
<title>4</title>
<path fill="none" stroke="#d8bc56" stroke-width="2" d="M573.46,-612C573.46,-612 451.46,-612 451.46,-612 445.46,-612 439.46,-606 439.46,-600 439.46,-600 439.46,-588 439.46,-588 439.46,-582 445.46,-576 451.46,-576 451.46,-576 573.46,-576 573.46,-576 579.46,-576 585.46,-582 585.46,-588 585.46,-588 585.46,-600 585.46,-600 585.46,-606 579.46,-612 573.46,-612"/>
<text text-anchor="middle" x="512.46" y="-597" font-family="sans" font-size="10.00">symlink_fastqs</text>
<text text-anchor="middle" x="512.46" y="-586" font-family="sans" font-size="10.00">sample: mock_community</text>
</g>
<!-- 4&#45;&gt;3 -->
<g id="edge15" class="edge">
<title>4&#45;&gt;3</title>
<path fill="none" stroke="grey" stroke-width="2" d="M512.46,-575.7C512.46,-567.98 512.46,-558.71 512.46,-550.11"/>
<polygon fill="grey" stroke="grey" stroke-width="2" points="515.96,-550.1 512.46,-540.1 508.96,-550.1 515.96,-550.1"/>
</g>
<!-- 5&#45;&gt;1 -->
<g id="edge13" class="edge">
<title>5&#45;&gt;1</title>
<path fill="none" stroke="grey" stroke-width="2" d="M368.75,-431.88C355.79,-422.89 339.73,-411.76 325.7,-402.03"/>
<polygon fill="grey" stroke="grey" stroke-width="2" points="327.48,-399.01 317.26,-396.19 323.49,-404.76 327.48,-399.01"/>
</g>
<!-- 6 -->
<g id="node7" class="node">
<title>6</title>
<path fill="none" stroke="#80d856" stroke-width="2" d="M771.96,-324C771.96,-324 708.96,-324 708.96,-324 702.96,-324 696.96,-318 696.96,-312 696.96,-312 696.96,-300 696.96,-300 696.96,-294 702.96,-288 708.96,-288 708.96,-288 771.96,-288 771.96,-288 777.96,-288 783.96,-294 783.96,-300 783.96,-300 783.96,-312 783.96,-312 783.96,-318 777.96,-324 771.96,-324"/>
<text text-anchor="middle" x="740.46" y="-303.5" font-family="sans" font-size="10.00">multiqc_pass2</text>
</g>
<!-- 6&#45;&gt;0 -->
<g id="edge2" class="edge">
<title>6&#45;&gt;0</title>
<path fill="none" stroke="grey" stroke-width="2" d="M749.81,-287.88C771.23,-246.09 818.24,-137.49 767.46,-72 746.99,-45.6 652.55,-30.04 598.93,-23.19"/>
<polygon fill="grey" stroke="grey" stroke-width="2" points="599.14,-19.69 588.78,-21.93 598.28,-26.63 599.14,-19.69"/>
</g>
<!-- 7 -->
<g id="node8" class="node">
<title>7</title>
<path fill="none" stroke="#8fd856" stroke-width="2" d="M670.96,-396C670.96,-396 611.96,-396 611.96,-396 605.96,-396 599.96,-390 599.96,-384 599.96,-384 599.96,-372 599.96,-372 599.96,-366 605.96,-360 611.96,-360 611.96,-360 670.96,-360 670.96,-360 676.96,-360 682.96,-366 682.96,-372 682.96,-372 682.96,-384 682.96,-384 682.96,-390 676.96,-396 670.96,-396"/>
<text text-anchor="middle" x="641.46" y="-381" font-family="sans" font-size="10.00">fastQC_pass2</text>
<text text-anchor="middle" x="641.46" y="-370" font-family="sans" font-size="10.00">read: R1</text>
</g>
<!-- 7&#45;&gt;6 -->
<g id="edge17" class="edge">
<title>7&#45;&gt;6</title>
<path fill="none" stroke="grey" stroke-width="2" d="M665.68,-359.88C678.38,-350.89 694.13,-339.76 707.88,-330.03"/>
<polygon fill="grey" stroke="grey" stroke-width="2" points="710.01,-332.82 716.15,-324.19 705.96,-327.11 710.01,-332.82"/>
</g>
<!-- 8&#45;&gt;7 -->
<g id="edge19" class="edge">
<title>8&#45;&gt;7</title>
<path fill="none" stroke="grey" stroke-width="2" d="M633.18,-431.7C634.39,-423.98 635.85,-414.71 637.2,-406.11"/>
<polygon fill="grey" stroke="grey" stroke-width="2" points="640.68,-406.53 638.77,-396.1 633.76,-405.44 640.68,-406.53"/>
</g>
<!-- 18 -->
<g id="node19" class="node">
<title>18</title>
<path fill="none" stroke="#56d8a2" stroke-width="2" d="M569.96,-396C569.96,-396 528.96,-396 528.96,-396 522.96,-396 516.96,-390 516.96,-384 516.96,-384 516.96,-372 516.96,-372 516.96,-366 522.96,-360 528.96,-360 528.96,-360 569.96,-360 569.96,-360 575.96,-360 581.96,-366 581.96,-372 581.96,-372 581.96,-384 581.96,-384 581.96,-390 575.96,-396 569.96,-396"/>
<text text-anchor="middle" x="549.46" y="-375.5" font-family="sans" font-size="10.00">host_filter</text>
</g>
<!-- 8&#45;&gt;18 -->
<g id="edge31" class="edge">
<title>8&#45;&gt;18</title>
<path fill="none" stroke="grey" stroke-width="2" d="M610.44,-431.7C600.34,-422.97 587.93,-412.24 576.94,-402.75"/>
<polygon fill="grey" stroke="grey" stroke-width="2" points="579.11,-399.99 569.25,-396.1 574.53,-405.29 579.11,-399.99"/>
</g>
<!-- 28 -->
<g id="node29" class="node">
<title>28</title>
<path fill="none" stroke="#d6d856" stroke-width="2" d="M854.96,-396C854.96,-396 813.96,-396 813.96,-396 807.96,-396 801.96,-390 801.96,-384 801.96,-384 801.96,-372 801.96,-372 801.96,-366 807.96,-360 813.96,-360 813.96,-360 854.96,-360 854.96,-360 860.96,-360 866.96,-366 866.96,-372 866.96,-372 866.96,-384 866.96,-384 866.96,-390 860.96,-396 854.96,-396"/>
<text text-anchor="middle" x="834.46" y="-375.5" font-family="sans" font-size="10.00">map_host</text>
</g>
<!-- 8&#45;&gt;28 -->
<g id="edge45" class="edge">
<title>8&#45;&gt;28</title>
<path fill="none" stroke="grey" stroke-width="2" d="M670.54,-435C673.56,-433.98 676.56,-432.97 679.46,-432 726.64,-416.3 741.25,-414.12 791.99,-396.04"/>
<polygon fill="grey" stroke="grey" stroke-width="2" points="793.31,-399.28 801.54,-392.6 790.94,-392.69 793.31,-399.28"/>
</g>
<!-- 9 -->
<g id="node10" class="node">
<title>9</title>
<path fill="none" stroke="#8fd856" stroke-width="2" d="M771.96,-396C771.96,-396 712.96,-396 712.96,-396 706.96,-396 700.96,-390 700.96,-384 700.96,-384 700.96,-372 700.96,-372 700.96,-366 706.96,-360 712.96,-360 712.96,-360 771.96,-360 771.96,-360 777.96,-360 783.96,-366 783.96,-372 783.96,-372 783.96,-384 783.96,-384 783.96,-390 777.96,-396 771.96,-396"/>
<text text-anchor="middle" x="742.46" y="-381" font-family="sans" font-size="10.00">fastQC_pass2</text>
<text text-anchor="middle" x="742.46" y="-370" font-family="sans" font-size="10.00">read: R2</text>
</g>
<!-- 9&#45;&gt;6 -->
<g id="edge18" class="edge">
<title>9&#45;&gt;6</title>
<path fill="none" stroke="grey" stroke-width="2" d="M741.97,-359.7C741.75,-351.98 741.48,-342.71 741.24,-334.11"/>
<polygon fill="grey" stroke="grey" stroke-width="2" points="744.73,-334 740.95,-324.1 737.74,-334.2 744.73,-334"/>
</g>
<!-- 10&#45;&gt;9 -->
<g id="edge21" class="edge">
<title>10&#45;&gt;9</title>
<path fill="none" stroke="grey" stroke-width="2" d="M731.92,-431.7C733.46,-423.98 735.32,-414.71 737.04,-406.11"/>
<polygon fill="grey" stroke="grey" stroke-width="2" points="740.51,-406.6 739.04,-396.1 733.65,-405.22 740.51,-406.6"/>
</g>
<!-- 10&#45;&gt;18 -->
<g id="edge32" class="edge">
<title>10&#45;&gt;18</title>
<path fill="none" stroke="grey" stroke-width="2" d="M688.8,-434.08C663.32,-424.43 629.3,-411.41 591.73,-396.47"/>
<polygon fill="grey" stroke="grey" stroke-width="2" points="592.69,-393.08 582.1,-392.63 590.09,-399.58 592.69,-393.08"/>
</g>
<!-- 10&#45;&gt;28 -->
<g id="edge46" class="edge">
<title>10&#45;&gt;28</title>
<path fill="none" stroke="grey" stroke-width="2" d="M754.39,-431.88C768.12,-422.81 785.17,-411.55 800,-401.76"/>
<polygon fill="grey" stroke="grey" stroke-width="2" points="802.02,-404.62 808.43,-396.19 798.16,-398.78 802.02,-404.62"/>
</g>
<!-- 11 -->
<g id="node12" class="node">
<title>11</title>
<path fill="none" stroke="#d87556" stroke-width="2" d="M388.46,-180C388.46,-180 230.46,-180 230.46,-180 224.46,-180 218.46,-174 218.46,-168 218.46,-168 218.46,-156 218.46,-156 218.46,-150 224.46,-144 230.46,-144 230.46,-144 388.46,-144 388.46,-144 394.46,-144 400.46,-150 400.46,-156 400.46,-156 400.46,-168 400.46,-168 400.46,-174 394.46,-180 388.46,-180"/>
<text text-anchor="middle" x="309.46" y="-159.5" font-family="sans" font-size="10.00">aggregate_humann_outs_nonhost</text>
</g>
<!-- 11&#45;&gt;0 -->
<g id="edge3" class="edge">
<title>11&#45;&gt;0</title>
<path fill="none" stroke="grey" stroke-width="2" d="M288.52,-143.67C268.17,-124.75 242.85,-94.19 261.46,-72 294.59,-32.51 451.18,-22.43 524.03,-19.87"/>
<polygon fill="grey" stroke="grey" stroke-width="2" points="524.26,-23.36 534.14,-19.54 524.04,-16.37 524.26,-23.36"/>
</g>
<!-- 20 -->
<g id="node21" class="node">
<title>20</title>
<path fill="none" stroke="#d88556" stroke-width="2" d="M336.46,-108C336.46,-108 282.46,-108 282.46,-108 276.46,-108 270.46,-102 270.46,-96 270.46,-96 270.46,-84 270.46,-84 270.46,-78 276.46,-72 282.46,-72 282.46,-72 336.46,-72 336.46,-72 342.46,-72 348.46,-78 348.46,-84 348.46,-84 348.46,-96 348.46,-96 348.46,-102 342.46,-108 336.46,-108"/>
<text text-anchor="middle" x="309.46" y="-87.5" font-family="sans" font-size="10.00">taxa_barplot</text>
</g>
<!-- 11&#45;&gt;20 -->
<g id="edge33" class="edge">
<title>11&#45;&gt;20</title>
<path fill="none" stroke="grey" stroke-width="2" d="M309.46,-143.7C309.46,-135.98 309.46,-126.71 309.46,-118.11"/>
<polygon fill="grey" stroke="grey" stroke-width="2" points="312.96,-118.1 309.46,-108.1 305.96,-118.1 312.96,-118.1"/>
</g>
<!-- 22 -->
<g id="node23" class="node">
<title>22</title>
<path fill="none" stroke="#d88d56" stroke-width="2" d="M452.46,-108C452.46,-108 378.46,-108 378.46,-108 372.46,-108 366.46,-102 366.46,-96 366.46,-96 366.46,-84 366.46,-84 366.46,-78 372.46,-72 378.46,-72 378.46,-72 452.46,-72 452.46,-72 458.46,-72 464.46,-78 464.46,-84 464.46,-84 464.46,-96 464.46,-96 464.46,-102 458.46,-108 452.46,-108"/>
<text text-anchor="middle" x="415.46" y="-87.5" font-family="sans" font-size="10.00">func_barplot_rxn</text>
</g>
<!-- 11&#45;&gt;22 -->
<g id="edge35" class="edge">
<title>11&#45;&gt;22</title>
<path fill="none" stroke="grey" stroke-width="2" d="M335.39,-143.88C349.12,-134.81 366.17,-123.55 381,-113.76"/>
<polygon fill="grey" stroke="grey" stroke-width="2" points="383.02,-116.62 389.43,-108.19 379.16,-110.78 383.02,-116.62"/>
</g>
<!-- 36 -->
<g id="node37" class="node">
<title>36</title>
<path fill="none" stroke="#5673d8" stroke-width="2" d="M628.46,-108C628.46,-108 494.46,-108 494.46,-108 488.46,-108 482.46,-102 482.46,-96 482.46,-96 482.46,-84 482.46,-84 482.46,-78 488.46,-72 494.46,-72 494.46,-72 628.46,-72 628.46,-72 634.46,-72 640.46,-78 640.46,-84 640.46,-84 640.46,-96 640.46,-96 640.46,-102 634.46,-108 628.46,-108"/>
<text text-anchor="middle" x="561.46" y="-87.5" font-family="sans" font-size="10.00">calc_gut_metabolic_modules</text>
</g>
<!-- 11&#45;&gt;36 -->
<g id="edge56" class="edge">
<title>11&#45;&gt;36</title>
<path fill="none" stroke="grey" stroke-width="2" d="M370.79,-143.97C406.76,-133.97 452.39,-121.3 489.99,-110.85"/>
<polygon fill="grey" stroke="grey" stroke-width="2" points="491.16,-114.16 499.86,-108.11 489.29,-107.42 491.16,-114.16"/>
</g>
<!-- 37 -->
<g id="node38" class="node">
<title>37</title>
<path fill="none" stroke="#56a9d8" stroke-width="2" d="M201.96,-108C201.96,-108 122.96,-108 122.96,-108 116.96,-108 110.96,-102 110.96,-96 110.96,-96 110.96,-84 110.96,-84 110.96,-78 116.96,-72 122.96,-72 122.96,-72 201.96,-72 201.96,-72 207.96,-72 213.96,-78 213.96,-84 213.96,-84 213.96,-96 213.96,-96 213.96,-102 207.96,-108 201.96,-108"/>
<text text-anchor="middle" x="162.46" y="-87.5" font-family="sans" font-size="10.00">reads_breakdown</text>
</g>
<!-- 11&#45;&gt;37 -->
<g id="edge58" class="edge">
<title>11&#45;&gt;37</title>
<path fill="none" stroke="grey" stroke-width="2" d="M273.5,-143.88C253.58,-134.39 228.64,-122.51 207.44,-112.42"/>
<polygon fill="grey" stroke="grey" stroke-width="2" points="208.84,-109.21 198.3,-108.07 205.83,-115.53 208.84,-109.21"/>
</g>
<!-- 12 -->
<g id="node13" class="node">
<title>12</title>
<path fill="none" stroke="#d89c56" stroke-width="2" d="M475.96,-252C475.96,-252 368.96,-252 368.96,-252 362.96,-252 356.96,-246 356.96,-240 356.96,-240 356.96,-228 356.96,-228 356.96,-222 362.96,-216 368.96,-216 368.96,-216 475.96,-216 475.96,-216 481.96,-216 487.96,-222 487.96,-228 487.96,-228 487.96,-240 487.96,-240 487.96,-246 481.96,-252 475.96,-252"/>
<text text-anchor="middle" x="422.46" y="-231.5" font-family="sans" font-size="10.00">get_utility_mapping_db</text>
</g>
<!-- 12&#45;&gt;11 -->
<g id="edge23" class="edge">
<title>12&#45;&gt;11</title>
<path fill="none" stroke="grey" stroke-width="2" d="M394.82,-215.88C380.04,-206.72 361.67,-195.34 345.76,-185.48"/>
<polygon fill="grey" stroke="grey" stroke-width="2" points="347.55,-182.48 337.21,-180.19 343.87,-188.43 347.55,-182.48"/>
</g>
<!-- 13 -->
<g id="node14" class="node">
<title>13</title>
<path fill="none" stroke="#56d8b9" stroke-width="2" d="M326.46,-252C326.46,-252 228.46,-252 228.46,-252 222.46,-252 216.46,-246 216.46,-240 216.46,-240 216.46,-228 216.46,-228 216.46,-222 222.46,-216 228.46,-216 228.46,-216 326.46,-216 326.46,-216 332.46,-216 338.46,-222 338.46,-228 338.46,-228 338.46,-240 338.46,-240 338.46,-246 332.46,-252 326.46,-252"/>
<text text-anchor="middle" x="277.46" y="-231.5" font-family="sans" font-size="10.00">run_humann_nonhost</text>
</g>
<!-- 13&#45;&gt;11 -->
<g id="edge24" class="edge">
<title>13&#45;&gt;11</title>
<path fill="none" stroke="grey" stroke-width="2" d="M285.37,-215.7C289.01,-207.73 293.42,-198.1 297.45,-189.26"/>
<polygon fill="grey" stroke="grey" stroke-width="2" points="300.67,-190.65 301.64,-180.1 294.3,-187.74 300.67,-190.65"/>
</g>
<!-- 14 -->
<g id="node15" class="node">
<title>14</title>
<path fill="none" stroke="#56a2d8" stroke-width="2" d="M456.96,-324C456.96,-324 379.96,-324 379.96,-324 373.96,-324 367.96,-318 367.96,-312 367.96,-312 367.96,-300 367.96,-300 367.96,-294 373.96,-288 379.96,-288 379.96,-288 456.96,-288 456.96,-288 462.96,-288 468.96,-294 468.96,-300 468.96,-300 468.96,-312 468.96,-312 468.96,-318 462.96,-324 456.96,-324"/>
<text text-anchor="middle" x="418.46" y="-303.5" font-family="sans" font-size="10.00">setup_metaphlan</text>
</g>
<!-- 14&#45;&gt;13 -->
<g id="edge25" class="edge">
<title>14&#45;&gt;13</title>
<path fill="none" stroke="grey" stroke-width="2" d="M383.97,-287.88C365.02,-278.47 341.33,-266.71 321.11,-256.67"/>
<polygon fill="grey" stroke="grey" stroke-width="2" points="322.6,-253.5 312.09,-252.19 319.49,-259.77 322.6,-253.5"/>
</g>
<!-- 15 -->
<g id="node16" class="node">
<title>15</title>
<path fill="none" stroke="#56d873" stroke-width="2" d="M182.46,-324C182.46,-324 42.46,-324 42.46,-324 36.46,-324 30.46,-318 30.46,-312 30.46,-312 30.46,-300 30.46,-300 30.46,-294 36.46,-288 42.46,-288 42.46,-288 182.46,-288 182.46,-288 188.46,-288 194.46,-294 194.46,-300 194.46,-300 194.46,-312 194.46,-312 194.46,-318 188.46,-324 182.46,-324"/>
<text text-anchor="middle" x="112.46" y="-303.5" font-family="sans" font-size="10.00">get_biobakery_chocophlan_db</text>
</g>
<!-- 15&#45;&gt;13 -->
<g id="edge26" class="edge">
<title>15&#45;&gt;13</title>
<path fill="none" stroke="grey" stroke-width="2" d="M152.82,-287.88C175.48,-278.26 203.93,-266.19 227.93,-256.01"/>
<polygon fill="grey" stroke="grey" stroke-width="2" points="229.39,-259.2 237.23,-252.07 226.66,-252.75 229.39,-259.2"/>
</g>
<!-- 16 -->
<g id="node17" class="node">
<title>16</title>
<path fill="none" stroke="#56d8c9" stroke-width="2" d="M337.96,-324C337.96,-324 224.96,-324 224.96,-324 218.96,-324 212.96,-318 212.96,-312 212.96,-312 212.96,-300 212.96,-300 212.96,-294 218.96,-288 224.96,-288 224.96,-288 337.96,-288 337.96,-288 343.96,-288 349.96,-294 349.96,-300 349.96,-300 349.96,-312 349.96,-312 349.96,-318 343.96,-324 337.96,-324"/>
<text text-anchor="middle" x="281.46" y="-303.5" font-family="sans" font-size="10.00">get_biobakery_uniref_db</text>
</g>
<!-- 16&#45;&gt;13 -->
<g id="edge27" class="edge">
<title>16&#45;&gt;13</title>
<path fill="none" stroke="grey" stroke-width="2" d="M280.47,-287.7C280.03,-279.98 279.5,-270.71 279.01,-262.11"/>
<polygon fill="grey" stroke="grey" stroke-width="2" points="282.5,-261.89 278.44,-252.1 275.51,-262.29 282.5,-261.89"/>
</g>
<!-- 17 -->
<g id="node18" class="node">
<title>17</title>
<path fill="none" stroke="#70d856" stroke-width="2" d="M599.96,-324C599.96,-324 498.96,-324 498.96,-324 492.96,-324 486.96,-318 486.96,-312 486.96,-312 486.96,-300 486.96,-300 486.96,-294 492.96,-288 498.96,-288 498.96,-288 599.96,-288 599.96,-288 605.96,-288 611.96,-294 611.96,-300 611.96,-300 611.96,-312 611.96,-312 611.96,-318 605.96,-324 599.96,-324"/>
<text text-anchor="middle" x="549.46" y="-303.5" font-family="sans" font-size="10.00">concat_nonhost_reads</text>
</g>
<!-- 17&#45;&gt;13 -->
<g id="edge28" class="edge">
<title>17&#45;&gt;13</title>
<path fill="none" stroke="grey" stroke-width="2" d="M486.72,-288.85C445.38,-278.21 391.17,-264.26 348.29,-253.23"/>
<polygon fill="grey" stroke="grey" stroke-width="2" points="349.04,-249.81 338.48,-250.7 347.3,-256.59 349.04,-249.81"/>
</g>
<!-- 18&#45;&gt;17 -->
<g id="edge29" class="edge">
<title>18&#45;&gt;17</title>
<path fill="none" stroke="grey" stroke-width="2" d="M549.46,-359.7C549.46,-351.98 549.46,-342.71 549.46,-334.11"/>
<polygon fill="grey" stroke="grey" stroke-width="2" points="552.96,-334.1 549.46,-324.1 545.96,-334.1 552.96,-334.1"/>
</g>
<!-- 24 -->
<g id="node25" class="node">
<title>24</title>
<path fill="none" stroke="#56d892" stroke-width="2" d="M663.46,-180C663.46,-180 625.46,-180 625.46,-180 619.46,-180 613.46,-174 613.46,-168 613.46,-168 613.46,-156 613.46,-156 613.46,-150 619.46,-144 625.46,-144 625.46,-144 663.46,-144 663.46,-144 669.46,-144 675.46,-150 675.46,-156 675.46,-156 675.46,-168 675.46,-168 675.46,-174 669.46,-180 663.46,-180"/>
<text text-anchor="middle" x="644.46" y="-159.5" font-family="sans" font-size="10.00">nonpareil</text>
</g>
<!-- 18&#45;&gt;24 -->
<g id="edge38" class="edge">
<title>18&#45;&gt;24</title>
<path fill="none" stroke="grey" stroke-width="2" d="M582.09,-360.29C596.14,-351.42 611.39,-339.18 620.46,-324 645.32,-282.41 647.65,-224.32 646.47,-190.48"/>
<polygon fill="grey" stroke="grey" stroke-width="2" points="649.96,-190.22 645.99,-180.4 642.97,-190.55 649.96,-190.22"/>
</g>
<!-- 35 -->
<g id="node36" class="node">
<title>35</title>
<path fill="none" stroke="#68d856" stroke-width="2" d="M1045.96,-324C1045.96,-324 998.96,-324 998.96,-324 992.96,-324 986.96,-318 986.96,-312 986.96,-312 986.96,-300 986.96,-300 986.96,-294 992.96,-288 998.96,-288 998.96,-288 1045.96,-288 1045.96,-288 1051.96,-288 1057.96,-294 1057.96,-300 1057.96,-300 1057.96,-312 1057.96,-312 1057.96,-318 1051.96,-324 1045.96,-324"/>
<text text-anchor="middle" x="1022.46" y="-303.5" font-family="sans" font-size="10.00">run_kraken</text>
</g>
<!-- 18&#45;&gt;35 -->
<g id="edge54" class="edge">
<title>18&#45;&gt;35</title>
<path fill="none" stroke="grey" stroke-width="2" d="M582.3,-362.42C585.03,-361.51 587.77,-360.68 590.46,-360 741.19,-321.82 784.75,-347.45 938.46,-324 950.87,-322.11 964.23,-319.61 976.55,-317.12"/>
<polygon fill="grey" stroke="grey" stroke-width="2" points="977.54,-320.5 986.63,-315.05 976.12,-313.64 977.54,-320.5"/>
</g>
<!-- 19 -->
<g id="node20" class="node">
<title>19</title>
<path fill="none" stroke="#5663d8" stroke-width="2" d="M559.96,-468C559.96,-468 464.96,-468 464.96,-468 458.96,-468 452.96,-462 452.96,-456 452.96,-456 452.96,-444 452.96,-444 452.96,-438 458.96,-432 464.96,-432 464.96,-432 559.96,-432 559.96,-432 565.96,-432 571.96,-438 571.96,-444 571.96,-444 571.96,-456 571.96,-456 571.96,-462 565.96,-468 559.96,-468"/>
<text text-anchor="middle" x="512.46" y="-447.5" font-family="sans" font-size="10.00">download_hostile_db</text>
</g>
<!-- 19&#45;&gt;18 -->
<g id="edge30" class="edge">
<title>19&#45;&gt;18</title>
<path fill="none" stroke="grey" stroke-width="2" d="M521.61,-431.7C525.86,-423.64 531.02,-413.89 535.73,-404.98"/>
<polygon fill="grey" stroke="grey" stroke-width="2" points="538.84,-406.58 540.42,-396.1 532.65,-403.31 538.84,-406.58"/>
</g>
<!-- 20&#45;&gt;0 -->
<g id="edge4" class="edge">
<title>20&#45;&gt;0</title>
<path fill="none" stroke="grey" stroke-width="2" d="M348.66,-74.81C351.63,-73.83 354.59,-72.88 357.46,-72 415.2,-54.31 483.26,-37.41 524.35,-27.62"/>
<polygon fill="grey" stroke="grey" stroke-width="2" points="525.27,-31 534.19,-25.29 523.66,-24.19 525.27,-31"/>
</g>
<!-- 21 -->
<g id="node22" class="node">
<title>21</title>
<path fill="none" stroke="#d86656" stroke-width="2" d="M604.46,-252C604.46,-252 518.46,-252 518.46,-252 512.46,-252 506.46,-246 506.46,-240 506.46,-240 506.46,-228 506.46,-228 506.46,-222 512.46,-216 518.46,-216 518.46,-216 604.46,-216 604.46,-216 610.46,-216 616.46,-222 616.46,-228 616.46,-228 616.46,-240 616.46,-240 616.46,-246 610.46,-252 604.46,-252"/>
<text text-anchor="middle" x="561.46" y="-231.5" font-family="sans" font-size="10.00">install_R_packages</text>
</g>
<!-- 21&#45;&gt;20 -->
<g id="edge34" class="edge">
<title>21&#45;&gt;20</title>
<path fill="none" stroke="grey" stroke-width="2" d="M530.37,-215.9C511.97,-205.67 488.26,-192.31 467.46,-180 441.35,-164.55 435.77,-159.11 409.46,-144 390.89,-133.33 370,-122.14 352.14,-112.8"/>
<polygon fill="grey" stroke="grey" stroke-width="2" points="353.59,-109.61 343.11,-108.1 350.36,-115.82 353.59,-109.61"/>
</g>
<!-- 21&#45;&gt;22 -->
<g id="edge36" class="edge">
<title>21&#45;&gt;22</title>
<path fill="none" stroke="grey" stroke-width="2" d="M543.85,-215.87C518.09,-190.82 470.01,-144.05 440.56,-115.41"/>
<polygon fill="grey" stroke="grey" stroke-width="2" points="442.74,-112.65 433.13,-108.19 437.86,-117.67 442.74,-112.65"/>
</g>
<!-- 21&#45;&gt;24 -->
<g id="edge39" class="edge">
<title>21&#45;&gt;24</title>
<path fill="none" stroke="grey" stroke-width="2" d="M581.98,-215.7C592.33,-206.97 605.05,-196.24 616.3,-186.75"/>
<polygon fill="grey" stroke="grey" stroke-width="2" points="618.79,-189.23 624.18,-180.1 614.28,-183.88 618.79,-189.23"/>
</g>
<!-- 21&#45;&gt;36 -->
<g id="edge57" class="edge">
<title>21&#45;&gt;36</title>
<path fill="none" stroke="grey" stroke-width="2" d="M561.46,-215.87C561.46,-191.67 561.46,-147.21 561.46,-118.39"/>
<polygon fill="grey" stroke="grey" stroke-width="2" points="564.96,-118.19 561.46,-108.19 557.96,-118.19 564.96,-118.19"/>
</g>
<!-- 22&#45;&gt;0 -->
<g id="edge5" class="edge">
<title>22&#45;&gt;0</title>
<path fill="none" stroke="grey" stroke-width="2" d="M451.18,-71.88C473.63,-61.11 502.52,-47.26 525.1,-36.43"/>
<polygon fill="grey" stroke="grey" stroke-width="2" points="526.85,-39.48 534.35,-32 523.82,-33.16 526.85,-39.48"/>
</g>
<!-- 23 -->
<g id="node24" class="node">
<title>23</title>
<path fill="none" stroke="#d85656" stroke-width="2" d="M746.46,-108C746.46,-108 670.46,-108 670.46,-108 664.46,-108 658.46,-102 658.46,-96 658.46,-96 658.46,-84 658.46,-84 658.46,-78 664.46,-72 670.46,-72 670.46,-72 746.46,-72 746.46,-72 752.46,-72 758.46,-78 758.46,-84 758.46,-84 758.46,-96 758.46,-96 758.46,-102 752.46,-108 746.46,-108"/>
<text text-anchor="middle" x="708.46" y="-87.5" font-family="sans" font-size="10.00">nonpareil_curves</text>
</g>
<!-- 23&#45;&gt;0 -->
<g id="edge6" class="edge">
<title>23&#45;&gt;0</title>
<path fill="none" stroke="grey" stroke-width="2" d="M672.5,-71.88C649.89,-61.11 620.8,-47.26 598.07,-36.43"/>
<polygon fill="grey" stroke="grey" stroke-width="2" points="599.29,-33.14 588.76,-32 596.28,-39.46 599.29,-33.14"/>
</g>
<!-- 24&#45;&gt;23 -->
<g id="edge37" class="edge">
<title>24&#45;&gt;23</title>
<path fill="none" stroke="grey" stroke-width="2" d="M660.28,-143.7C668.03,-135.22 677.5,-124.86 685.99,-115.58"/>
<polygon fill="grey" stroke="grey" stroke-width="2" points="688.66,-117.85 692.82,-108.1 683.49,-113.12 688.66,-117.85"/>
</g>
<!-- 25 -->
<g id="node26" class="node">
<title>25</title>
<path fill="none" stroke="#bed856" stroke-width="2" d="M942.46,-252C942.46,-252 828.46,-252 828.46,-252 822.46,-252 816.46,-246 816.46,-240 816.46,-240 816.46,-228 816.46,-228 816.46,-222 822.46,-216 828.46,-216 828.46,-216 942.46,-216 942.46,-216 948.46,-216 954.46,-222 954.46,-228 954.46,-228 954.46,-240 954.46,-240 954.46,-246 948.46,-252 942.46,-252"/>
<text text-anchor="middle" x="885.46" y="-231.5" font-family="sans" font-size="10.00">generate_feature_counts</text>
</g>
<!-- 25&#45;&gt;0 -->
<g id="edge7" class="edge">
<title>25&#45;&gt;0</title>
<path fill="none" stroke="grey" stroke-width="2" d="M869.7,-215.78C861.16,-205.84 850.87,-192.8 843.46,-180 817.59,-135.28 839.81,-105.48 800.46,-72 770.38,-46.41 658.02,-30.04 598.7,-22.99"/>
<polygon fill="grey" stroke="grey" stroke-width="2" points="598.95,-19.5 588.61,-21.82 598.14,-26.45 598.95,-19.5"/>
</g>
<!-- 30 -->
<g id="node31" class="node">
<title>30</title>
<path fill="none" stroke="#59d856" stroke-width="2" d="M969.96,-180C969.96,-180 864.96,-180 864.96,-180 858.96,-180 852.96,-174 852.96,-168 852.96,-168 852.96,-156 852.96,-156 852.96,-150 858.96,-144 864.96,-144 864.96,-144 969.96,-144 969.96,-144 975.96,-144 981.96,-150 981.96,-156 981.96,-156 981.96,-168 981.96,-168 981.96,-174 975.96,-180 969.96,-180"/>
<text text-anchor="middle" x="917.46" y="-159.5" font-family="sans" font-size="10.00">feature_counts_to_tpm</text>
</g>
<!-- 25&#45;&gt;30 -->
<g id="edge48" class="edge">
<title>25&#45;&gt;30</title>
<path fill="none" stroke="grey" stroke-width="2" d="M893.37,-215.7C897.01,-207.73 901.42,-198.1 905.45,-189.26"/>
<polygon fill="grey" stroke="grey" stroke-width="2" points="908.67,-190.65 909.64,-180.1 902.3,-187.74 908.67,-190.65"/>
</g>
<!-- 26 -->
<g id="node27" class="node">
<title>26</title>
<path fill="none" stroke="#5682d8" stroke-width="2" d="M949.46,-540C949.46,-540 867.46,-540 867.46,-540 861.46,-540 855.46,-534 855.46,-528 855.46,-528 855.46,-516 855.46,-516 855.46,-510 861.46,-504 867.46,-504 867.46,-504 949.46,-504 949.46,-504 955.46,-504 961.46,-510 961.46,-516 961.46,-516 961.46,-528 961.46,-528 961.46,-534 955.46,-540 949.46,-540"/>
<text text-anchor="middle" x="908.46" y="-519.5" font-family="sans" font-size="10.00">pull_host_genome</text>
</g>
<!-- 26&#45;&gt;25 -->
<g id="edge40" class="edge">
<title>26&#45;&gt;25</title>
<path fill="none" stroke="grey" stroke-width="2" d="M921.61,-503.91C928.38,-494.01 935.95,-480.96 939.46,-468 949.47,-431.06 977.05,-380.26 938.46,-288 933.84,-276.95 925.69,-267 917.15,-258.78"/>
<polygon fill="grey" stroke="grey" stroke-width="2" points="919.4,-256.09 909.62,-252.02 914.72,-261.3 919.4,-256.09"/>
</g>
<!-- 29 -->
<g id="node30" class="node">
<title>29</title>
<path fill="none" stroke="#56c9d8" stroke-width="2" d="M918.46,-468C918.46,-468 798.46,-468 798.46,-468 792.46,-468 786.46,-462 786.46,-456 786.46,-456 786.46,-444 786.46,-444 786.46,-438 792.46,-432 798.46,-432 798.46,-432 918.46,-432 918.46,-432 924.46,-432 930.46,-438 930.46,-444 930.46,-444 930.46,-456 930.46,-456 930.46,-462 924.46,-468 918.46,-468"/>
<text text-anchor="middle" x="858.46" y="-447.5" font-family="sans" font-size="10.00">build_host_genome_index</text>
</g>
<!-- 26&#45;&gt;29 -->
<g id="edge47" class="edge">
<title>26&#45;&gt;29</title>
<path fill="none" stroke="grey" stroke-width="2" d="M896.1,-503.7C890.23,-495.47 883.09,-485.48 876.62,-476.42"/>
<polygon fill="grey" stroke="grey" stroke-width="2" points="879.34,-474.21 870.68,-468.1 873.64,-478.28 879.34,-474.21"/>
</g>
<!-- 27 -->
<g id="node28" class="node">
<title>27</title>
<path fill="none" stroke="#d8ac56" stroke-width="2" d="M917.96,-324C917.96,-324 852.96,-324 852.96,-324 846.96,-324 840.96,-318 840.96,-312 840.96,-312 840.96,-300 840.96,-300 840.96,-294 846.96,-288 852.96,-288 852.96,-288 917.96,-288 917.96,-288 923.96,-288 929.96,-294 929.96,-300 929.96,-300 929.96,-312 929.96,-312 929.96,-318 923.96,-324 917.96,-324"/>
<text text-anchor="middle" x="885.46" y="-303.5" font-family="sans" font-size="10.00">validate_bams</text>
</g>
<!-- 27&#45;&gt;25 -->
<g id="edge41" class="edge">
<title>27&#45;&gt;25</title>
<path fill="none" stroke="grey" stroke-width="2" d="M885.46,-287.7C885.46,-279.98 885.46,-270.71 885.46,-262.11"/>
<polygon fill="grey" stroke="grey" stroke-width="2" points="888.96,-262.1 885.46,-252.1 881.96,-262.1 888.96,-262.1"/>
</g>
<!-- 28&#45;&gt;25 -->
<g id="edge42" class="edge">
<title>28&#45;&gt;25</title>
<path fill="none" stroke="grey" stroke-width="2" d="M829.78,-359.84C825.64,-341.33 821.65,-311.38 831.46,-288 836.1,-276.95 844.3,-267.04 852.92,-258.86"/>
<polygon fill="grey" stroke="grey" stroke-width="2" points="855.35,-261.38 860.53,-252.14 850.72,-256.14 855.35,-261.38"/>
</g>
<!-- 28&#45;&gt;27 -->
<g id="edge43" class="edge">
<title>28&#45;&gt;27</title>
<path fill="none" stroke="grey" stroke-width="2" d="M847.07,-359.7C853.06,-351.47 860.34,-341.48 866.94,-332.42"/>
<polygon fill="grey" stroke="grey" stroke-width="2" points="869.94,-334.25 873,-324.1 864.28,-330.13 869.94,-334.25"/>
</g>
<!-- 29&#45;&gt;28 -->
<g id="edge44" class="edge">
<title>29&#45;&gt;28</title>
<path fill="none" stroke="grey" stroke-width="2" d="M852.53,-431.7C849.85,-423.9 846.64,-414.51 843.66,-405.83"/>
<polygon fill="grey" stroke="grey" stroke-width="2" points="846.88,-404.43 840.33,-396.1 840.26,-406.7 846.88,-404.43"/>
</g>
<!-- 30&#45;&gt;0 -->
<g id="edge8" class="edge">
<title>30&#45;&gt;0</title>
<path fill="none" stroke="grey" stroke-width="2" d="M907.27,-143.86C894.1,-123.31 869.17,-89.46 838.46,-72 761.29,-28.12 654.48,-19.81 598.73,-18.7"/>
<polygon fill="grey" stroke="grey" stroke-width="2" points="598.65,-15.2 588.61,-18.56 598.56,-22.2 598.65,-15.2"/>
</g>
<!-- 31 -->
<g id="node32" class="node">
<title>31</title>
<path fill="none" stroke="#56d8d8" stroke-width="2" d="M1107.46,-180C1107.46,-180 1021.46,-180 1021.46,-180 1015.46,-180 1009.46,-174 1009.46,-168 1009.46,-168 1009.46,-156 1009.46,-156 1009.46,-150 1015.46,-144 1021.46,-144 1021.46,-144 1107.46,-144 1107.46,-144 1113.46,-144 1119.46,-150 1119.46,-156 1119.46,-156 1119.46,-168 1119.46,-168 1119.46,-174 1113.46,-180 1107.46,-180"/>
<text text-anchor="middle" x="1064.46" y="-159.5" font-family="sans" font-size="10.00">aggregate_bracken</text>
</g>
<!-- 31&#45;&gt;0 -->
<g id="edge9" class="edge">
<title>31&#45;&gt;0</title>
<path fill="none" stroke="grey" stroke-width="2" d="M1034.38,-143.88C997.58,-123.68 932.83,-90.51 873.46,-72 776.97,-41.92 658.05,-27.7 598.76,-22.08"/>
<polygon fill="grey" stroke="grey" stroke-width="2" points="599.02,-18.59 588.74,-21.16 598.38,-25.56 599.02,-18.59"/>
</g>
<!-- 32 -->
<g id="node33" class="node">
<title>32</title>
<path fill="none" stroke="#c6d856" stroke-width="2" d="M1108.46,-252C1108.46,-252 1056.46,-252 1056.46,-252 1050.46,-252 1044.46,-246 1044.46,-240 1044.46,-240 1044.46,-228 1044.46,-228 1044.46,-222 1050.46,-216 1056.46,-216 1056.46,-216 1108.46,-216 1108.46,-216 1114.46,-216 1120.46,-222 1120.46,-228 1120.46,-228 1120.46,-240 1120.46,-240 1120.46,-246 1114.46,-252 1108.46,-252"/>
<text text-anchor="middle" x="1082.46" y="-231.5" font-family="sans" font-size="10.00">run_bracken</text>
</g>
<!-- 32&#45;&gt;31 -->
<g id="edge49" class="edge">
<title>32&#45;&gt;31</title>
<path fill="none" stroke="grey" stroke-width="2" d="M1078.01,-215.7C1076.01,-207.9 1073.59,-198.51 1071.36,-189.83"/>
<polygon fill="grey" stroke="grey" stroke-width="2" points="1074.74,-188.92 1068.86,-180.1 1067.96,-190.66 1074.74,-188.92"/>
</g>
<!-- 33 -->
<g id="node34" class="node">
<title>33</title>
<path fill="none" stroke="#d8cb56" stroke-width="2" d="M1118.46,-396C1118.46,-396 1054.46,-396 1054.46,-396 1048.46,-396 1042.46,-390 1042.46,-384 1042.46,-384 1042.46,-372 1042.46,-372 1042.46,-366 1048.46,-360 1054.46,-360 1054.46,-360 1118.46,-360 1118.46,-360 1124.46,-360 1130.46,-366 1130.46,-372 1130.46,-372 1130.46,-384 1130.46,-384 1130.46,-390 1124.46,-396 1118.46,-396"/>
<text text-anchor="middle" x="1086.46" y="-375.5" font-family="sans" font-size="10.00">get_kraken_db</text>
</g>
<!-- 33&#45;&gt;32 -->
<g id="edge50" class="edge">
<title>33&#45;&gt;32</title>
<path fill="none" stroke="grey" stroke-width="2" d="M1085.98,-359.87C1085.3,-335.67 1084.04,-291.21 1083.23,-262.39"/>
<polygon fill="grey" stroke="grey" stroke-width="2" points="1086.73,-262.09 1082.95,-252.19 1079.73,-262.28 1086.73,-262.09"/>
</g>
<!-- 34 -->
<g id="node35" class="node">
<title>34</title>
<path fill="none" stroke="#56d8a9" stroke-width="2" d="M1186.46,-324C1186.46,-324 1126.46,-324 1126.46,-324 1120.46,-324 1114.46,-318 1114.46,-312 1114.46,-312 1114.46,-300 1114.46,-300 1114.46,-294 1120.46,-288 1126.46,-288 1126.46,-288 1186.46,-288 1186.46,-288 1192.46,-288 1198.46,-294 1198.46,-300 1198.46,-300 1198.46,-312 1198.46,-312 1198.46,-318 1192.46,-324 1186.46,-324"/>
<text text-anchor="middle" x="1156.46" y="-303.5" font-family="sans" font-size="10.00">build_bracken</text>
</g>
<!-- 33&#45;&gt;34 -->
<g id="edge53" class="edge">
<title>33&#45;&gt;34</title>
<path fill="none" stroke="grey" stroke-width="2" d="M1103.76,-359.7C1112.33,-351.14 1122.81,-340.66 1132.16,-331.3"/>
<polygon fill="grey" stroke="grey" stroke-width="2" points="1134.76,-333.65 1139.36,-324.1 1129.81,-328.7 1134.76,-333.65"/>
</g>
<!-- 33&#45;&gt;35 -->
<g id="edge55" class="edge">
<title>33&#45;&gt;35</title>
<path fill="none" stroke="grey" stroke-width="2" d="M1070.64,-359.7C1062.89,-351.22 1053.42,-340.86 1044.94,-331.58"/>
<polygon fill="grey" stroke="grey" stroke-width="2" points="1047.43,-329.12 1038.1,-324.1 1042.26,-333.85 1047.43,-329.12"/>
</g>
<!-- 34&#45;&gt;32 -->
<g id="edge51" class="edge">
<title>34&#45;&gt;32</title>
<path fill="none" stroke="grey" stroke-width="2" d="M1138.17,-287.7C1129.03,-279.05 1117.82,-268.45 1107.86,-259.03"/>
<polygon fill="grey" stroke="grey" stroke-width="2" points="1110.21,-256.43 1100.54,-252.1 1105.4,-261.52 1110.21,-256.43"/>
</g>
<!-- 35&#45;&gt;32 -->
<g id="edge52" class="edge">
<title>35&#45;&gt;32</title>
<path fill="none" stroke="grey" stroke-width="2" d="M1037.29,-287.7C1044.49,-279.3 1053.26,-269.07 1061.15,-259.86"/>
<polygon fill="grey" stroke="grey" stroke-width="2" points="1063.95,-261.97 1067.8,-252.1 1058.64,-257.42 1063.95,-261.97"/>
</g>
<!-- 36&#45;&gt;0 -->
<g id="edge10" class="edge">
<title>36&#45;&gt;0</title>
<path fill="none" stroke="grey" stroke-width="2" d="M561.46,-71.7C561.46,-63.98 561.46,-54.71 561.46,-46.11"/>
<polygon fill="grey" stroke="grey" stroke-width="2" points="564.96,-46.1 561.46,-36.1 557.96,-46.1 564.96,-46.1"/>
</g>
<!-- 37&#45;&gt;0 -->
<g id="edge11" class="edge">
<title>37&#45;&gt;0</title>
<path fill="none" stroke="grey" stroke-width="2" d="M214.23,-75.17C219.03,-74.04 223.83,-72.96 228.46,-72 334.93,-49.87 462.21,-31.95 524.05,-23.78"/>
<polygon fill="grey" stroke="grey" stroke-width="2" points="524.65,-27.23 534.11,-22.46 523.74,-20.29 524.65,-27.23"/>
</g>
</g>
</svg>
