<?xml version="1.0" encoding="UTF-8" standalone="no"?>
<!DOCTYPE svg PUBLIC "-//W3C//DTD SVG 1.1//EN"
 "http://www.w3.org/Graphics/SVG/1.1/DTD/svg11.dtd">
<!-- Generated by graphviz version 2.43.0 (0)
 -->
<!-- Title: snakemake_dag Pages: 1 -->
<svg width="1220pt" height="620pt"
 viewBox="0.00 0.00 1220.49 620.00" xmlns="http://www.w3.org/2000/svg" xmlns:xlink="http://www.w3.org/1999/xlink">
<g id="graph0" class="graph" transform="scale(1 1) rotate(0) translate(4 616)">
<title>snakemake_dag</title>
<polygon fill="white" stroke="transparent" points="-4,4 -4,-616 1216.49,-616 1216.49,4 -4,4"/>
<!-- 0 -->
<g id="node1" class="node">
<title>0</title>
<path fill="none" stroke="#56d873" stroke-width="2" d="M672.49,-36C672.49,-36 642.49,-36 642.49,-36 636.49,-36 630.49,-30 630.49,-24 630.49,-24 630.49,-12 630.49,-12 630.49,-6 636.49,0 642.49,0 642.49,0 672.49,0 672.49,0 678.49,0 684.49,-6 684.49,-12 684.49,-12 684.49,-24 684.49,-24 684.49,-30 678.49,-36 672.49,-36"/>
<text text-anchor="middle" x="657.49" y="-15.5" font-family="sans" font-size="10.00">all</text>
</g>
<!-- 1 -->
<g id="node2" class="node">
<title>1</title>
<path fill="none" stroke="#88d856" stroke-width="2" d="M337.99,-396C337.99,-396 274.99,-396 274.99,-396 268.99,-396 262.99,-390 262.99,-384 262.99,-384 262.99,-372 262.99,-372 262.99,-366 268.99,-360 274.99,-360 274.99,-360 337.99,-360 337.99,-360 343.99,-360 349.99,-366 349.99,-372 349.99,-372 349.99,-384 349.99,-384 349.99,-390 343.99,-396 337.99,-396"/>
<text text-anchor="middle" x="306.49" y="-375.5" font-family="sans" font-size="10.00">multiqc_pass1</text>
</g>
<!-- 1&#45;&gt;0 -->
<g id="edge1" class="edge">
<title>1&#45;&gt;0</title>
<path fill="none" stroke="grey" stroke-width="2" d="M262.89,-374.68C191.74,-369.98 55.21,-356.83 21.49,-324 -7.48,-295.78 2.49,-275.45 2.49,-235 2.49,-235 2.49,-235 2.49,-161 2.49,-33.71 480.96,-20.28 620.02,-19.06"/>
<polygon fill="grey" stroke="grey" stroke-width="2" points="620.21,-22.56 630.18,-18.99 620.16,-15.56 620.21,-22.56"/>
</g>
<!-- 2 -->
<g id="node3" class="node">
<title>2</title>
<path fill="none" stroke="#5682d8" stroke-width="2" d="M335.99,-468C335.99,-468 276.99,-468 276.99,-468 270.99,-468 264.99,-462 264.99,-456 264.99,-456 264.99,-444 264.99,-444 264.99,-438 270.99,-432 276.99,-432 276.99,-432 335.99,-432 335.99,-432 341.99,-432 347.99,-438 347.99,-444 347.99,-444 347.99,-456 347.99,-456 347.99,-462 341.99,-468 335.99,-468"/>
<text text-anchor="middle" x="306.49" y="-453" font-family="sans" font-size="10.00">fastQC_pass1</text>
<text text-anchor="middle" x="306.49" y="-442" font-family="sans" font-size="10.00">read: R1</text>
</g>
<!-- 2&#45;&gt;1 -->
<g id="edge11" class="edge">
<title>2&#45;&gt;1</title>
<path fill="none" stroke="grey" stroke-width="2" d="M306.49,-431.7C306.49,-423.98 306.49,-414.71 306.49,-406.11"/>
<polygon fill="grey" stroke="grey" stroke-width="2" points="309.99,-406.1 306.49,-396.1 302.99,-406.1 309.99,-406.1"/>
</g>
<!-- 3 -->
<g id="node4" class="node">
<title>3</title>
<path fill="none" stroke="#59d856" stroke-width="2" d="M565.49,-540C565.49,-540 487.49,-540 487.49,-540 481.49,-540 475.49,-534 475.49,-528 475.49,-528 475.49,-516 475.49,-516 475.49,-510 481.49,-504 487.49,-504 487.49,-504 565.49,-504 565.49,-504 571.49,-504 577.49,-510 577.49,-516 577.49,-516 577.49,-528 577.49,-528 577.49,-534 571.49,-540 565.49,-540"/>
<text text-anchor="middle" x="526.49" y="-519.5" font-family="sans" font-size="10.00">remove_adapters</text>
</g>
<!-- 3&#45;&gt;2 -->
<g id="edge13" class="edge">
<title>3&#45;&gt;2</title>
<path fill="none" stroke="grey" stroke-width="2" d="M475.43,-505.45C443.86,-495.75 402.29,-482.83 357.75,-468.38"/>
<polygon fill="grey" stroke="grey" stroke-width="2" points="358.8,-465.04 348.21,-465.27 356.64,-471.7 358.8,-465.04"/>
</g>
<!-- 5 -->
<g id="node6" class="node">
<title>5</title>
<path fill="none" stroke="#5682d8" stroke-width="2" d="M436.99,-468C436.99,-468 377.99,-468 377.99,-468 371.99,-468 365.99,-462 365.99,-456 365.99,-456 365.99,-444 365.99,-444 365.99,-438 371.99,-432 377.99,-432 377.99,-432 436.99,-432 436.99,-432 442.99,-432 448.99,-438 448.99,-444 448.99,-444 448.99,-456 448.99,-456 448.99,-462 442.99,-468 436.99,-468"/>
<text text-anchor="middle" x="407.49" y="-453" font-family="sans" font-size="10.00">fastQC_pass1</text>
<text text-anchor="middle" x="407.49" y="-442" font-family="sans" font-size="10.00">read: R2</text>
</g>
<!-- 3&#45;&gt;5 -->
<g id="edge15" class="edge">
<title>3&#45;&gt;5</title>
<path fill="none" stroke="grey" stroke-width="2" d="M497.38,-503.88C481.82,-494.72 462.47,-483.34 445.72,-473.48"/>
<polygon fill="grey" stroke="grey" stroke-width="2" points="447.11,-470.24 436.72,-468.19 443.56,-476.28 447.11,-470.24"/>
</g>
<!-- 8 -->
<g id="node9" class="node">
<title>8</title>
<path fill="none" stroke="#d89556" stroke-width="2" d="M672.49,-468C672.49,-468 616.49,-468 616.49,-468 610.49,-468 604.49,-462 604.49,-456 604.49,-456 604.49,-444 604.49,-444 604.49,-438 610.49,-432 616.49,-432 616.49,-432 672.49,-432 672.49,-432 678.49,-432 684.49,-438 684.49,-444 684.49,-444 684.49,-456 684.49,-456 684.49,-462 678.49,-468 672.49,-468"/>
<text text-anchor="middle" x="644.49" y="-447.5" font-family="sans" font-size="10.00">trim_forward</text>
</g>
<!-- 3&#45;&gt;8 -->
<g id="edge19" class="edge">
<title>3&#45;&gt;8</title>
<path fill="none" stroke="grey" stroke-width="2" d="M555.36,-503.88C570.79,-494.72 589.98,-483.34 606.59,-473.48"/>
<polygon fill="grey" stroke="grey" stroke-width="2" points="608.7,-476.3 615.52,-468.19 605.13,-470.28 608.7,-476.3"/>
</g>
<!-- 10 -->
<g id="node11" class="node">
<title>10</title>
<path fill="none" stroke="#d86656" stroke-width="2" d="M769.99,-468C769.99,-468 714.99,-468 714.99,-468 708.99,-468 702.99,-462 702.99,-456 702.99,-456 702.99,-444 702.99,-444 702.99,-438 708.99,-432 714.99,-432 714.99,-432 769.99,-432 769.99,-432 775.99,-432 781.99,-438 781.99,-444 781.99,-444 781.99,-456 781.99,-456 781.99,-462 775.99,-468 769.99,-468"/>
<text text-anchor="middle" x="742.49" y="-447.5" font-family="sans" font-size="10.00">trim_reverse</text>
</g>
<!-- 3&#45;&gt;10 -->
<g id="edge21" class="edge">
<title>3&#45;&gt;10</title>
<path fill="none" stroke="grey" stroke-width="2" d="M577.77,-505.11C608.67,-495.45 649.02,-482.68 693.41,-467.99"/>
<polygon fill="grey" stroke="grey" stroke-width="2" points="694.56,-471.29 702.94,-464.82 692.35,-464.65 694.56,-471.29"/>
</g>
<!-- 4 -->
<g id="node5" class="node">
<title>4</title>
<path fill="none" stroke="#5673d8" stroke-width="2" d="M587.49,-612C587.49,-612 465.49,-612 465.49,-612 459.49,-612 453.49,-606 453.49,-600 453.49,-600 453.49,-588 453.49,-588 453.49,-582 459.49,-576 465.49,-576 465.49,-576 587.49,-576 587.49,-576 593.49,-576 599.49,-582 599.49,-588 599.49,-588 599.49,-600 599.49,-600 599.49,-606 593.49,-612 587.49,-612"/>
<text text-anchor="middle" x="526.49" y="-597" font-family="sans" font-size="10.00">symlink_fastqs</text>
<text text-anchor="middle" x="526.49" y="-586" font-family="sans" font-size="10.00">sample: mock_community</text>
</g>
<!-- 4&#45;&gt;3 -->
<g id="edge14" class="edge">
<title>4&#45;&gt;3</title>
<path fill="none" stroke="grey" stroke-width="2" d="M526.49,-575.7C526.49,-567.98 526.49,-558.71 526.49,-550.11"/>
<polygon fill="grey" stroke="grey" stroke-width="2" points="529.99,-550.1 526.49,-540.1 522.99,-550.1 529.99,-550.1"/>
</g>
<!-- 5&#45;&gt;1 -->
<g id="edge12" class="edge">
<title>5&#45;&gt;1</title>
<path fill="none" stroke="grey" stroke-width="2" d="M382.79,-431.88C369.83,-422.89 353.77,-411.76 339.73,-402.03"/>
<polygon fill="grey" stroke="grey" stroke-width="2" points="341.51,-399.01 331.3,-396.19 337.52,-404.76 341.51,-399.01"/>
</g>
<!-- 6 -->
<g id="node7" class="node">
<title>6</title>
<path fill="none" stroke="#d8c356" stroke-width="2" d="M785.99,-324C785.99,-324 722.99,-324 722.99,-324 716.99,-324 710.99,-318 710.99,-312 710.99,-312 710.99,-300 710.99,-300 710.99,-294 716.99,-288 722.99,-288 722.99,-288 785.99,-288 785.99,-288 791.99,-288 797.99,-294 797.99,-300 797.99,-300 797.99,-312 797.99,-312 797.99,-318 791.99,-324 785.99,-324"/>
<text text-anchor="middle" x="754.49" y="-303.5" font-family="sans" font-size="10.00">multiqc_pass2</text>
</g>
<!-- 6&#45;&gt;0 -->
<g id="edge2" class="edge">
<title>6&#45;&gt;0</title>
<path fill="none" stroke="grey" stroke-width="2" d="M752.49,-287.71C747.32,-247.75 731.14,-146.73 692.49,-72 687.68,-62.7 681.62,-53 675.9,-44.48"/>
<polygon fill="grey" stroke="grey" stroke-width="2" points="678.68,-42.35 670.13,-36.1 672.92,-46.32 678.68,-42.35"/>
</g>
<!-- 7 -->
<g id="node8" class="node">
<title>7</title>
<path fill="none" stroke="#56c1d8" stroke-width="2" d="M682.99,-396C682.99,-396 623.99,-396 623.99,-396 617.99,-396 611.99,-390 611.99,-384 611.99,-384 611.99,-372 611.99,-372 611.99,-366 617.99,-360 623.99,-360 623.99,-360 682.99,-360 682.99,-360 688.99,-360 694.99,-366 694.99,-372 694.99,-372 694.99,-384 694.99,-384 694.99,-390 688.99,-396 682.99,-396"/>
<text text-anchor="middle" x="653.49" y="-381" font-family="sans" font-size="10.00">fastQC_pass2</text>
<text text-anchor="middle" x="653.49" y="-370" font-family="sans" font-size="10.00">read: R1</text>
</g>
<!-- 7&#45;&gt;6 -->
<g id="edge16" class="edge">
<title>7&#45;&gt;6</title>
<path fill="none" stroke="grey" stroke-width="2" d="M678.2,-359.88C691.16,-350.89 707.22,-339.76 721.26,-330.03"/>
<polygon fill="grey" stroke="grey" stroke-width="2" points="723.47,-332.76 729.69,-324.19 719.48,-327.01 723.47,-332.76"/>
</g>
<!-- 8&#45;&gt;7 -->
<g id="edge18" class="edge">
<title>8&#45;&gt;7</title>
<path fill="none" stroke="grey" stroke-width="2" d="M646.72,-431.7C647.71,-423.98 648.9,-414.71 650.01,-406.11"/>
<polygon fill="grey" stroke="grey" stroke-width="2" points="653.49,-406.47 651.29,-396.1 646.55,-405.58 653.49,-406.47"/>
</g>
<!-- 18 -->
<g id="node19" class="node">
<title>18</title>
<path fill="none" stroke="#d87556" stroke-width="2" d="M581.99,-396C581.99,-396 540.99,-396 540.99,-396 534.99,-396 528.99,-390 528.99,-384 528.99,-384 528.99,-372 528.99,-372 528.99,-366 534.99,-360 540.99,-360 540.99,-360 581.99,-360 581.99,-360 587.99,-360 593.99,-366 593.99,-372 593.99,-372 593.99,-384 593.99,-384 593.99,-390 587.99,-396 581.99,-396"/>
<text text-anchor="middle" x="561.49" y="-375.5" font-family="sans" font-size="10.00">host_filter</text>
</g>
<!-- 8&#45;&gt;18 -->
<g id="edge30" class="edge">
<title>8&#45;&gt;18</title>
<path fill="none" stroke="grey" stroke-width="2" d="M623.98,-431.7C613.62,-422.97 600.91,-412.24 589.66,-402.75"/>
<polygon fill="grey" stroke="grey" stroke-width="2" points="591.68,-399.88 581.77,-396.1 587.16,-405.23 591.68,-399.88"/>
</g>
<!-- 27 -->
<g id="node28" class="node">
<title>27</title>
<path fill="none" stroke="#d88556" stroke-width="2" d="M866.99,-396C866.99,-396 825.99,-396 825.99,-396 819.99,-396 813.99,-390 813.99,-384 813.99,-384 813.99,-372 813.99,-372 813.99,-366 819.99,-360 825.99,-360 825.99,-360 866.99,-360 866.99,-360 872.99,-360 878.99,-366 878.99,-372 878.99,-372 878.99,-384 878.99,-384 878.99,-390 872.99,-396 866.99,-396"/>
<text text-anchor="middle" x="846.49" y="-375.5" font-family="sans" font-size="10.00">map_host</text>
</g>
<!-- 8&#45;&gt;27 -->
<g id="edge41" class="edge">
<title>8&#45;&gt;27</title>
<path fill="none" stroke="grey" stroke-width="2" d="M684.58,-435.02C687.6,-433.99 690.59,-432.97 693.49,-432 739.88,-416.43 754.16,-413.99 804.16,-396"/>
<polygon fill="grey" stroke="grey" stroke-width="2" points="805.36,-399.29 813.56,-392.59 802.97,-392.71 805.36,-399.29"/>
</g>
<!-- 9 -->
<g id="node10" class="node">
<title>9</title>
<path fill="none" stroke="#56c1d8" stroke-width="2" d="M783.99,-396C783.99,-396 724.99,-396 724.99,-396 718.99,-396 712.99,-390 712.99,-384 712.99,-384 712.99,-372 712.99,-372 712.99,-366 718.99,-360 724.99,-360 724.99,-360 783.99,-360 783.99,-360 789.99,-360 795.99,-366 795.99,-372 795.99,-372 795.99,-384 795.99,-384 795.99,-390 789.99,-396 783.99,-396"/>
<text text-anchor="middle" x="754.49" y="-381" font-family="sans" font-size="10.00">fastQC_pass2</text>
<text text-anchor="middle" x="754.49" y="-370" font-family="sans" font-size="10.00">read: R2</text>
</g>
<!-- 9&#45;&gt;6 -->
<g id="edge17" class="edge">
<title>9&#45;&gt;6</title>
<path fill="none" stroke="grey" stroke-width="2" d="M754.49,-359.7C754.49,-351.98 754.49,-342.71 754.49,-334.11"/>
<polygon fill="grey" stroke="grey" stroke-width="2" points="757.99,-334.1 754.49,-324.1 750.99,-334.1 757.99,-334.1"/>
</g>
<!-- 10&#45;&gt;9 -->
<g id="edge20" class="edge">
<title>10&#45;&gt;9</title>
<path fill="none" stroke="grey" stroke-width="2" d="M745.46,-431.7C746.78,-423.98 748.37,-414.71 749.85,-406.11"/>
<polygon fill="grey" stroke="grey" stroke-width="2" points="753.32,-406.55 751.56,-396.1 746.42,-405.37 753.32,-406.55"/>
</g>
<!-- 10&#45;&gt;18 -->
<g id="edge31" class="edge">
<title>10&#45;&gt;18</title>
<path fill="none" stroke="grey" stroke-width="2" d="M702.84,-434.36C676.83,-424.68 641.86,-411.5 603.44,-396.33"/>
<polygon fill="grey" stroke="grey" stroke-width="2" points="604.72,-393.07 594.13,-392.64 602.14,-399.58 604.72,-393.07"/>
</g>
<!-- 10&#45;&gt;27 -->
<g id="edge42" class="edge">
<title>10&#45;&gt;27</title>
<path fill="none" stroke="grey" stroke-width="2" d="M767.94,-431.88C781.28,-422.89 797.82,-411.76 812.27,-402.03"/>
<polygon fill="grey" stroke="grey" stroke-width="2" points="814.61,-404.68 820.95,-396.19 810.7,-398.87 814.61,-404.68"/>
</g>
<!-- 11 -->
<g id="node12" class="node">
<title>11</title>
<path fill="none" stroke="#d85656" stroke-width="2" d="M509.49,-180C509.49,-180 351.49,-180 351.49,-180 345.49,-180 339.49,-174 339.49,-168 339.49,-168 339.49,-156 339.49,-156 339.49,-150 345.49,-144 351.49,-144 351.49,-144 509.49,-144 509.49,-144 515.49,-144 521.49,-150 521.49,-156 521.49,-156 521.49,-168 521.49,-168 521.49,-174 515.49,-180 509.49,-180"/>
<text text-anchor="middle" x="430.49" y="-159.5" font-family="sans" font-size="10.00">aggregate_humann_outs_nonhost</text>
</g>
<!-- 11&#45;&gt;0 -->
<g id="edge3" class="edge">
<title>11&#45;&gt;0</title>
<path fill="none" stroke="grey" stroke-width="2" d="M432.65,-143.65C436.06,-123.54 444.64,-90.77 465.49,-72 508.62,-33.19 577.69,-22.49 620.17,-19.72"/>
<polygon fill="grey" stroke="grey" stroke-width="2" points="620.57,-23.2 630.37,-19.17 620.19,-16.21 620.57,-23.2"/>
</g>
<!-- 20 -->
<g id="node21" class="node">
<title>20</title>
<path fill="none" stroke="#56d892" stroke-width="2" d="M540.49,-108C540.49,-108 486.49,-108 486.49,-108 480.49,-108 474.49,-102 474.49,-96 474.49,-96 474.49,-84 474.49,-84 474.49,-78 480.49,-72 486.49,-72 486.49,-72 540.49,-72 540.49,-72 546.49,-72 552.49,-78 552.49,-84 552.49,-84 552.49,-96 552.49,-96 552.49,-102 546.49,-108 540.49,-108"/>
<text text-anchor="middle" x="513.49" y="-87.5" font-family="sans" font-size="10.00">taxa_barplot</text>
</g>
<!-- 11&#45;&gt;20 -->
<g id="edge32" class="edge">
<title>11&#45;&gt;20</title>
<path fill="none" stroke="grey" stroke-width="2" d="M451.01,-143.7C461.36,-134.97 474.08,-124.24 485.33,-114.75"/>
<polygon fill="grey" stroke="grey" stroke-width="2" points="487.83,-117.23 493.21,-108.1 483.31,-111.88 487.83,-117.23"/>
</g>
<!-- 21 -->
<g id="node22" class="node">
<title>21</title>
<path fill="none" stroke="#78d856" stroke-width="2" d="M656.49,-108C656.49,-108 582.49,-108 582.49,-108 576.49,-108 570.49,-102 570.49,-96 570.49,-96 570.49,-84 570.49,-84 570.49,-78 576.49,-72 582.49,-72 582.49,-72 656.49,-72 656.49,-72 662.49,-72 668.49,-78 668.49,-84 668.49,-84 668.49,-96 668.49,-96 668.49,-102 662.49,-108 656.49,-108"/>
<text text-anchor="middle" x="619.49" y="-87.5" font-family="sans" font-size="10.00">func_barplot_rxn</text>
</g>
<!-- 11&#45;&gt;21 -->
<g id="edge33" class="edge">
<title>11&#45;&gt;21</title>
<path fill="none" stroke="grey" stroke-width="2" d="M476.73,-143.88C503.03,-134.14 536.14,-121.87 563.85,-111.61"/>
<polygon fill="grey" stroke="grey" stroke-width="2" points="565.25,-114.82 573.41,-108.07 562.82,-108.26 565.25,-114.82"/>
</g>
<!-- 35 -->
<g id="node36" class="node">
<title>35</title>
<path fill="none" stroke="#68d856" stroke-width="2" d="M406.49,-108C406.49,-108 272.49,-108 272.49,-108 266.49,-108 260.49,-102 260.49,-96 260.49,-96 260.49,-84 260.49,-84 260.49,-78 266.49,-72 272.49,-72 272.49,-72 406.49,-72 406.49,-72 412.49,-72 418.49,-78 418.49,-84 418.49,-84 418.49,-96 418.49,-96 418.49,-102 412.49,-108 406.49,-108"/>
<text text-anchor="middle" x="339.49" y="-87.5" font-family="sans" font-size="10.00">calc_gut_metabolic_modules</text>
</g>
<!-- 11&#45;&gt;35 -->
<g id="edge52" class="edge">
<title>11&#45;&gt;35</title>
<path fill="none" stroke="grey" stroke-width="2" d="M408,-143.7C396.54,-134.88 382.44,-124.03 370.01,-114.47"/>
<polygon fill="grey" stroke="grey" stroke-width="2" points="371.79,-111.43 361.73,-108.1 367.52,-116.98 371.79,-111.43"/>
</g>
<!-- 12 -->
<g id="node13" class="node">
<title>12</title>
<path fill="none" stroke="#56b1d8" stroke-width="2" d="M330.99,-252C330.99,-252 223.99,-252 223.99,-252 217.99,-252 211.99,-246 211.99,-240 211.99,-240 211.99,-228 211.99,-228 211.99,-222 217.99,-216 223.99,-216 223.99,-216 330.99,-216 330.99,-216 336.99,-216 342.99,-222 342.99,-228 342.99,-228 342.99,-240 342.99,-240 342.99,-246 336.99,-252 330.99,-252"/>
<text text-anchor="middle" x="277.49" y="-231.5" font-family="sans" font-size="10.00">get_utility_mapping_db</text>
</g>
<!-- 12&#45;&gt;11 -->
<g id="edge22" class="edge">
<title>12&#45;&gt;11</title>
<path fill="none" stroke="grey" stroke-width="2" d="M314.92,-215.88C335.75,-206.35 361.85,-194.41 383.97,-184.28"/>
<polygon fill="grey" stroke="grey" stroke-width="2" points="385.55,-187.41 393.19,-180.07 382.64,-181.05 385.55,-187.41"/>
</g>
<!-- 13 -->
<g id="node14" class="node">
<title>13</title>
<path fill="none" stroke="#afd856" stroke-width="2" d="M471.49,-252C471.49,-252 373.49,-252 373.49,-252 367.49,-252 361.49,-246 361.49,-240 361.49,-240 361.49,-228 361.49,-228 361.49,-222 367.49,-216 373.49,-216 373.49,-216 471.49,-216 471.49,-216 477.49,-216 483.49,-222 483.49,-228 483.49,-228 483.49,-240 483.49,-240 483.49,-246 477.49,-252 471.49,-252"/>
<text text-anchor="middle" x="422.49" y="-231.5" font-family="sans" font-size="10.00">run_humann_nonhost</text>
</g>
<!-- 13&#45;&gt;11 -->
<g id="edge23" class="edge">
<title>13&#45;&gt;11</title>
<path fill="none" stroke="grey" stroke-width="2" d="M424.47,-215.7C425.35,-207.98 426.41,-198.71 427.4,-190.11"/>
<polygon fill="grey" stroke="grey" stroke-width="2" points="430.88,-190.44 428.54,-180.1 423.93,-189.64 430.88,-190.44"/>
</g>
<!-- 14 -->
<g id="node15" class="node">
<title>14</title>
<path fill="none" stroke="#56a2d8" stroke-width="2" d="M456.99,-324C456.99,-324 379.99,-324 379.99,-324 373.99,-324 367.99,-318 367.99,-312 367.99,-312 367.99,-300 367.99,-300 367.99,-294 373.99,-288 379.99,-288 379.99,-288 456.99,-288 456.99,-288 462.99,-288 468.99,-294 468.99,-300 468.99,-300 468.99,-312 468.99,-312 468.99,-318 462.99,-324 456.99,-324"/>
<text text-anchor="middle" x="418.49" y="-303.5" font-family="sans" font-size="10.00">setup_metaphlan</text>
</g>
<!-- 14&#45;&gt;13 -->
<g id="edge24" class="edge">
<title>14&#45;&gt;13</title>
<path fill="none" stroke="grey" stroke-width="2" d="M419.48,-287.7C419.92,-279.98 420.45,-270.71 420.94,-262.11"/>
<polygon fill="grey" stroke="grey" stroke-width="2" points="424.44,-262.29 421.52,-252.1 417.45,-261.89 424.44,-262.29"/>
</g>
<!-- 15 -->
<g id="node16" class="node">
<title>15</title>
<path fill="none" stroke="#5692d8" stroke-width="2" d="M182.49,-324C182.49,-324 42.49,-324 42.49,-324 36.49,-324 30.49,-318 30.49,-312 30.49,-312 30.49,-300 30.49,-300 30.49,-294 36.49,-288 42.49,-288 42.49,-288 182.49,-288 182.49,-288 188.49,-288 194.49,-294 194.49,-300 194.49,-300 194.49,-312 194.49,-312 194.49,-318 188.49,-324 182.49,-324"/>
<text text-anchor="middle" x="112.49" y="-303.5" font-family="sans" font-size="10.00">get_biobakery_chocophlan_db</text>
</g>
<!-- 15&#45;&gt;13 -->
<g id="edge25" class="edge">
<title>15&#45;&gt;13</title>
<path fill="none" stroke="grey" stroke-width="2" d="M190.88,-287.97C237.57,-277.73 297.97,-264.34 351.49,-252 351.59,-251.98 351.69,-251.95 351.8,-251.93"/>
<polygon fill="grey" stroke="grey" stroke-width="2" points="352.37,-255.39 361.32,-249.72 350.79,-248.57 352.37,-255.39"/>
</g>
<!-- 16 -->
<g id="node17" class="node">
<title>16</title>
<path fill="none" stroke="#d8b456" stroke-width="2" d="M337.99,-324C337.99,-324 224.99,-324 224.99,-324 218.99,-324 212.99,-318 212.99,-312 212.99,-312 212.99,-300 212.99,-300 212.99,-294 218.99,-288 224.99,-288 224.99,-288 337.99,-288 337.99,-288 343.99,-288 349.99,-294 349.99,-300 349.99,-300 349.99,-312 349.99,-312 349.99,-318 343.99,-324 337.99,-324"/>
<text text-anchor="middle" x="281.49" y="-303.5" font-family="sans" font-size="10.00">get_biobakery_uniref_db</text>
</g>
<!-- 16&#45;&gt;13 -->
<g id="edge26" class="edge">
<title>16&#45;&gt;13</title>
<path fill="none" stroke="grey" stroke-width="2" d="M315.99,-287.88C334.93,-278.47 358.63,-266.71 378.85,-256.67"/>
<polygon fill="grey" stroke="grey" stroke-width="2" points="380.47,-259.77 387.87,-252.19 377.36,-253.5 380.47,-259.77"/>
</g>
<!-- 17 -->
<g id="node18" class="node">
<title>17</title>
<path fill="none" stroke="#97d856" stroke-width="2" d="M599.99,-324C599.99,-324 498.99,-324 498.99,-324 492.99,-324 486.99,-318 486.99,-312 486.99,-312 486.99,-300 486.99,-300 486.99,-294 492.99,-288 498.99,-288 498.99,-288 599.99,-288 599.99,-288 605.99,-288 611.99,-294 611.99,-300 611.99,-300 611.99,-312 611.99,-312 611.99,-318 605.99,-324 599.99,-324"/>
<text text-anchor="middle" x="549.49" y="-303.5" font-family="sans" font-size="10.00">concat_nonhost_reads</text>
</g>
<!-- 17&#45;&gt;13 -->
<g id="edge27" class="edge">
<title>17&#45;&gt;13</title>
<path fill="none" stroke="grey" stroke-width="2" d="M518.43,-287.88C501.67,-278.64 480.79,-267.13 462.79,-257.21"/>
<polygon fill="grey" stroke="grey" stroke-width="2" points="464.13,-253.95 453.68,-252.19 460.75,-260.08 464.13,-253.95"/>
</g>
<!-- 18&#45;&gt;17 -->
<g id="edge28" class="edge">
<title>18&#45;&gt;17</title>
<path fill="none" stroke="grey" stroke-width="2" d="M558.53,-359.7C557.21,-351.98 555.62,-342.71 554.14,-334.11"/>
<polygon fill="grey" stroke="grey" stroke-width="2" points="557.57,-333.37 552.43,-324.1 550.67,-334.55 557.57,-333.37"/>
</g>
<!-- 23 -->
<g id="node24" class="node">
<title>23</title>
<path fill="none" stroke="#bed856" stroke-width="2" d="M680.49,-324C680.49,-324 642.49,-324 642.49,-324 636.49,-324 630.49,-318 630.49,-312 630.49,-312 630.49,-300 630.49,-300 630.49,-294 636.49,-288 642.49,-288 642.49,-288 680.49,-288 680.49,-288 686.49,-288 692.49,-294 692.49,-300 692.49,-300 692.49,-312 692.49,-312 692.49,-318 686.49,-324 680.49,-324"/>
<text text-anchor="middle" x="661.49" y="-303.5" font-family="sans" font-size="10.00">nonpareil</text>
</g>
<!-- 18&#45;&gt;23 -->
<g id="edge35" class="edge">
<title>18&#45;&gt;23</title>
<path fill="none" stroke="grey" stroke-width="2" d="M585.96,-359.88C598.79,-350.89 614.69,-339.76 628.59,-330.03"/>
<polygon fill="grey" stroke="grey" stroke-width="2" points="630.75,-332.79 636.94,-324.19 626.74,-327.06 630.75,-332.79"/>
</g>
<!-- 34 -->
<g id="node35" class="node">
<title>34</title>
<path fill="none" stroke="#56d863" stroke-width="2" d="M1059.99,-324C1059.99,-324 1012.99,-324 1012.99,-324 1006.99,-324 1000.99,-318 1000.99,-312 1000.99,-312 1000.99,-300 1000.99,-300 1000.99,-294 1006.99,-288 1012.99,-288 1012.99,-288 1059.99,-288 1059.99,-288 1065.99,-288 1071.99,-294 1071.99,-300 1071.99,-300 1071.99,-312 1071.99,-312 1071.99,-318 1065.99,-324 1059.99,-324"/>
<text text-anchor="middle" x="1036.49" y="-303.5" font-family="sans" font-size="10.00">run_kraken</text>
</g>
<!-- 18&#45;&gt;34 -->
<g id="edge50" class="edge">
<title>18&#45;&gt;34</title>
<path fill="none" stroke="grey" stroke-width="2" d="M594.33,-362.42C597.06,-361.51 599.8,-360.68 602.49,-360 754.09,-321.65 797.9,-347.54 952.49,-324 964.91,-322.11 978.26,-319.62 990.59,-317.13"/>
<polygon fill="grey" stroke="grey" stroke-width="2" points="991.57,-320.5 1000.66,-315.05 990.16,-313.64 991.57,-320.5"/>
</g>
<!-- 19 -->
<g id="node20" class="node">
<title>19</title>
<path fill="none" stroke="#56d8a2" stroke-width="2" d="M573.99,-468C573.99,-468 478.99,-468 478.99,-468 472.99,-468 466.99,-462 466.99,-456 466.99,-456 466.99,-444 466.99,-444 466.99,-438 472.99,-432 478.99,-432 478.99,-432 573.99,-432 573.99,-432 579.99,-432 585.99,-438 585.99,-444 585.99,-444 585.99,-456 585.99,-456 585.99,-462 579.99,-468 573.99,-468"/>
<text text-anchor="middle" x="526.49" y="-447.5" font-family="sans" font-size="10.00">download_hostile_db</text>
</g>
<!-- 19&#45;&gt;18 -->
<g id="edge29" class="edge">
<title>19&#45;&gt;18</title>
<path fill="none" stroke="grey" stroke-width="2" d="M535.15,-431.7C539.13,-423.73 543.94,-414.1 548.36,-405.26"/>
<polygon fill="grey" stroke="grey" stroke-width="2" points="551.6,-406.61 552.94,-396.1 545.34,-403.48 551.6,-406.61"/>
</g>
<!-- 20&#45;&gt;0 -->
<g id="edge4" class="edge">
<title>20&#45;&gt;0</title>
<path fill="none" stroke="grey" stroke-width="2" d="M548.72,-71.88C570.72,-61.18 598.99,-47.44 621.19,-36.65"/>
<polygon fill="grey" stroke="grey" stroke-width="2" points="622.84,-39.74 630.3,-32.22 619.78,-33.44 622.84,-39.74"/>
</g>
<!-- 21&#45;&gt;0 -->
<g id="edge5" class="edge">
<title>21&#45;&gt;0</title>
<path fill="none" stroke="grey" stroke-width="2" d="M628.89,-71.7C633.26,-63.64 638.55,-53.89 643.39,-44.98"/>
<polygon fill="grey" stroke="grey" stroke-width="2" points="646.51,-46.56 648.21,-36.1 640.36,-43.22 646.51,-46.56"/>
</g>
<!-- 22 -->
<g id="node23" class="node">
<title>22</title>
<path fill="none" stroke="#d8a456" stroke-width="2" d="M699.49,-180C699.49,-180 623.49,-180 623.49,-180 617.49,-180 611.49,-174 611.49,-168 611.49,-168 611.49,-156 611.49,-156 611.49,-150 617.49,-144 623.49,-144 623.49,-144 699.49,-144 699.49,-144 705.49,-144 711.49,-150 711.49,-156 711.49,-156 711.49,-168 711.49,-168 711.49,-174 705.49,-180 699.49,-180"/>
<text text-anchor="middle" x="661.49" y="-159.5" font-family="sans" font-size="10.00">nonpareil_curves</text>
</g>
<!-- 22&#45;&gt;0 -->
<g id="edge6" class="edge">
<title>22&#45;&gt;0</title>
<path fill="none" stroke="grey" stroke-width="2" d="M668.15,-143.63C671.7,-133.42 675.7,-120.17 677.49,-108 679.83,-92.17 680.37,-87.74 677.49,-72 675.89,-63.2 672.9,-53.95 669.71,-45.7"/>
<polygon fill="grey" stroke="grey" stroke-width="2" points="672.85,-44.12 665.8,-36.21 666.37,-46.79 672.85,-44.12"/>
</g>
<!-- 23&#45;&gt;22 -->
<g id="edge34" class="edge">
<title>23&#45;&gt;22</title>
<path fill="none" stroke="grey" stroke-width="2" d="M661.49,-287.87C661.49,-263.67 661.49,-219.21 661.49,-190.39"/>
<polygon fill="grey" stroke="grey" stroke-width="2" points="664.99,-190.19 661.49,-180.19 657.99,-190.19 664.99,-190.19"/>
</g>
<!-- 24 -->
<g id="node25" class="node">
<title>24</title>
<path fill="none" stroke="#ced856" stroke-width="2" d="M927.49,-252C927.49,-252 813.49,-252 813.49,-252 807.49,-252 801.49,-246 801.49,-240 801.49,-240 801.49,-228 801.49,-228 801.49,-222 807.49,-216 813.49,-216 813.49,-216 927.49,-216 927.49,-216 933.49,-216 939.49,-222 939.49,-228 939.49,-228 939.49,-240 939.49,-240 939.49,-246 933.49,-252 927.49,-252"/>
<text text-anchor="middle" x="870.49" y="-231.5" font-family="sans" font-size="10.00">generate_feature_counts</text>
</g>
<!-- 24&#45;&gt;0 -->
<g id="edge7" class="edge">
<title>24&#45;&gt;0</title>
<path fill="none" stroke="grey" stroke-width="2" d="M838.81,-215.97C824.33,-206.88 807.89,-194.56 796.49,-180 764.65,-139.32 787.66,-110.75 753.49,-72 737.59,-53.96 714,-40.82 694.19,-32.13"/>
<polygon fill="grey" stroke="grey" stroke-width="2" points="695.4,-28.84 684.82,-28.23 692.7,-35.31 695.4,-28.84"/>
</g>
<!-- 29 -->
<g id="node30" class="node">
<title>29</title>
<path fill="none" stroke="#56d8d0" stroke-width="2" d="M922.99,-180C922.99,-180 817.99,-180 817.99,-180 811.99,-180 805.99,-174 805.99,-168 805.99,-168 805.99,-156 805.99,-156 805.99,-150 811.99,-144 817.99,-144 817.99,-144 922.99,-144 922.99,-144 928.99,-144 934.99,-150 934.99,-156 934.99,-156 934.99,-168 934.99,-168 934.99,-174 928.99,-180 922.99,-180"/>
<text text-anchor="middle" x="870.49" y="-159.5" font-family="sans" font-size="10.00">feature_counts_to_tpm</text>
</g>
<!-- 24&#45;&gt;29 -->
<g id="edge44" class="edge">
<title>24&#45;&gt;29</title>
<path fill="none" stroke="grey" stroke-width="2" d="M870.49,-215.7C870.49,-207.98 870.49,-198.71 870.49,-190.11"/>
<polygon fill="grey" stroke="grey" stroke-width="2" points="873.99,-190.1 870.49,-180.1 866.99,-190.1 873.99,-190.1"/>
</g>
<!-- 25 -->
<g id="node26" class="node">
<title>25</title>
<path fill="none" stroke="#d8d356" stroke-width="2" d="M963.49,-540C963.49,-540 881.49,-540 881.49,-540 875.49,-540 869.49,-534 869.49,-528 869.49,-528 869.49,-516 869.49,-516 869.49,-510 875.49,-504 881.49,-504 881.49,-504 963.49,-504 963.49,-504 969.49,-504 975.49,-510 975.49,-516 975.49,-516 975.49,-528 975.49,-528 975.49,-534 969.49,-540 963.49,-540"/>
<text text-anchor="middle" x="922.49" y="-519.5" font-family="sans" font-size="10.00">pull_host_genome</text>
</g>
<!-- 25&#45;&gt;24 -->
<g id="edge36" class="edge">
<title>25&#45;&gt;24</title>
<path fill="none" stroke="grey" stroke-width="2" d="M935.64,-503.91C942.42,-494.01 949.98,-480.96 953.49,-468 964.5,-427.39 995.07,-365.57 952.49,-288 945.54,-275.33 934.11,-265.21 921.97,-257.36"/>
<polygon fill="grey" stroke="grey" stroke-width="2" points="923.44,-254.16 913.06,-252.04 919.85,-260.17 923.44,-254.16"/>
</g>
<!-- 28 -->
<g id="node29" class="node">
<title>28</title>
<path fill="none" stroke="#9fd856" stroke-width="2" d="M932.49,-468C932.49,-468 812.49,-468 812.49,-468 806.49,-468 800.49,-462 800.49,-456 800.49,-456 800.49,-444 800.49,-444 800.49,-438 806.49,-432 812.49,-432 812.49,-432 932.49,-432 932.49,-432 938.49,-432 944.49,-438 944.49,-444 944.49,-444 944.49,-456 944.49,-456 944.49,-462 938.49,-468 932.49,-468"/>
<text text-anchor="middle" x="872.49" y="-447.5" font-family="sans" font-size="10.00">build_host_genome_index</text>
</g>
<!-- 25&#45;&gt;28 -->
<g id="edge43" class="edge">
<title>25&#45;&gt;28</title>
<path fill="none" stroke="grey" stroke-width="2" d="M910.13,-503.7C904.26,-495.47 897.12,-485.48 890.65,-476.42"/>
<polygon fill="grey" stroke="grey" stroke-width="2" points="893.37,-474.21 884.71,-468.1 887.68,-478.28 893.37,-474.21"/>
</g>
<!-- 26 -->
<g id="node27" class="node">
<title>26</title>
<path fill="none" stroke="#56d8b1" stroke-width="2" d="M931.99,-324C931.99,-324 866.99,-324 866.99,-324 860.99,-324 854.99,-318 854.99,-312 854.99,-312 854.99,-300 854.99,-300 854.99,-294 860.99,-288 866.99,-288 866.99,-288 931.99,-288 931.99,-288 937.99,-288 943.99,-294 943.99,-300 943.99,-300 943.99,-312 943.99,-312 943.99,-318 937.99,-324 931.99,-324"/>
<text text-anchor="middle" x="899.49" y="-303.5" font-family="sans" font-size="10.00">validate_bams</text>
</g>
<!-- 26&#45;&gt;24 -->
<g id="edge37" class="edge">
<title>26&#45;&gt;24</title>
<path fill="none" stroke="grey" stroke-width="2" d="M892.33,-287.7C889.06,-279.81 885.12,-270.3 881.49,-261.55"/>
<polygon fill="grey" stroke="grey" stroke-width="2" points="884.64,-260 877.58,-252.1 878.17,-262.68 884.64,-260"/>
</g>
<!-- 27&#45;&gt;24 -->
<g id="edge38" class="edge">
<title>27&#45;&gt;24</title>
<path fill="none" stroke="grey" stroke-width="2" d="M843.98,-359.69C841.88,-341.58 840.02,-312.43 845.49,-288 847.51,-279.01 851.23,-269.75 855.19,-261.53"/>
<polygon fill="grey" stroke="grey" stroke-width="2" points="858.4,-262.94 859.87,-252.44 852.18,-259.73 858.4,-262.94"/>
</g>
<!-- 27&#45;&gt;26 -->
<g id="edge39" class="edge">
<title>27&#45;&gt;26</title>
<path fill="none" stroke="grey" stroke-width="2" d="M859.6,-359.7C865.88,-351.39 873.54,-341.28 880.46,-332.14"/>
<polygon fill="grey" stroke="grey" stroke-width="2" points="883.3,-334.19 886.54,-324.1 877.72,-329.96 883.3,-334.19"/>
</g>
<!-- 28&#45;&gt;27 -->
<g id="edge40" class="edge">
<title>28&#45;&gt;27</title>
<path fill="none" stroke="grey" stroke-width="2" d="M866.07,-431.7C863.14,-423.81 859.61,-414.3 856.35,-405.55"/>
<polygon fill="grey" stroke="grey" stroke-width="2" points="859.61,-404.26 852.85,-396.1 853.05,-406.7 859.61,-404.26"/>
</g>
<!-- 29&#45;&gt;0 -->
<g id="edge8" class="edge">
<title>29&#45;&gt;0</title>
<path fill="none" stroke="grey" stroke-width="2" d="M858.99,-143.74C845.07,-124.01 819.93,-91.91 791.49,-72 761.83,-51.24 722.88,-37.01 694.62,-28.57"/>
<polygon fill="grey" stroke="grey" stroke-width="2" points="695.31,-25.12 684.73,-25.72 693.37,-31.85 695.31,-25.12"/>
</g>
<!-- 30 -->
<g id="node31" class="node">
<title>30</title>
<path fill="none" stroke="#56d882" stroke-width="2" d="M1019.49,-108C1019.49,-108 933.49,-108 933.49,-108 927.49,-108 921.49,-102 921.49,-96 921.49,-96 921.49,-84 921.49,-84 921.49,-78 927.49,-72 933.49,-72 933.49,-72 1019.49,-72 1019.49,-72 1025.49,-72 1031.49,-78 1031.49,-84 1031.49,-84 1031.49,-96 1031.49,-96 1031.49,-102 1025.49,-108 1019.49,-108"/>
<text text-anchor="middle" x="976.49" y="-87.5" font-family="sans" font-size="10.00">aggregate_bracken</text>
</g>
<!-- 30&#45;&gt;0 -->
<g id="edge9" class="edge">
<title>30&#45;&gt;0</title>
<path fill="none" stroke="grey" stroke-width="2" d="M921.29,-76.89C856.32,-62.63 750.25,-39.35 694.46,-27.11"/>
<polygon fill="grey" stroke="grey" stroke-width="2" points="695.16,-23.68 684.65,-24.96 693.66,-30.52 695.16,-23.68"/>
</g>
<!-- 31 -->
<g id="node32" class="node">
<title>31</title>
<path fill="none" stroke="#56d8c1" stroke-width="2" d="M1094.49,-252C1094.49,-252 1042.49,-252 1042.49,-252 1036.49,-252 1030.49,-246 1030.49,-240 1030.49,-240 1030.49,-228 1030.49,-228 1030.49,-222 1036.49,-216 1042.49,-216 1042.49,-216 1094.49,-216 1094.49,-216 1100.49,-216 1106.49,-222 1106.49,-228 1106.49,-228 1106.49,-240 1106.49,-240 1106.49,-246 1100.49,-252 1094.49,-252"/>
<text text-anchor="middle" x="1068.49" y="-231.5" font-family="sans" font-size="10.00">run_bracken</text>
</g>
<!-- 31&#45;&gt;30 -->
<g id="edge45" class="edge">
<title>31&#45;&gt;30</title>
<path fill="none" stroke="grey" stroke-width="2" d="M1057.4,-215.87C1041.44,-191.24 1011.89,-145.64 993.26,-116.88"/>
<polygon fill="grey" stroke="grey" stroke-width="2" points="996.01,-114.68 987.63,-108.19 990.13,-118.48 996.01,-114.68"/>
</g>
<!-- 32 -->
<g id="node33" class="node">
<title>32</title>
<path fill="none" stroke="#56d0d8" stroke-width="2" d="M1132.49,-396C1132.49,-396 1068.49,-396 1068.49,-396 1062.49,-396 1056.49,-390 1056.49,-384 1056.49,-384 1056.49,-372 1056.49,-372 1056.49,-366 1062.49,-360 1068.49,-360 1068.49,-360 1132.49,-360 1132.49,-360 1138.49,-360 1144.49,-366 1144.49,-372 1144.49,-372 1144.49,-384 1144.49,-384 1144.49,-390 1138.49,-396 1132.49,-396"/>
<text text-anchor="middle" x="1100.49" y="-375.5" font-family="sans" font-size="10.00">get_kraken_db</text>
</g>
<!-- 32&#45;&gt;31 -->
<g id="edge46" class="edge">
<title>32&#45;&gt;31</title>
<path fill="none" stroke="grey" stroke-width="2" d="M1097,-359.9C1093.3,-341.96 1087.22,-312.95 1081.49,-288 1079.56,-279.56 1077.35,-270.39 1075.3,-262.09"/>
<polygon fill="grey" stroke="grey" stroke-width="2" points="1078.65,-261.02 1072.84,-252.15 1071.85,-262.7 1078.65,-261.02"/>
</g>
<!-- 33 -->
<g id="node34" class="node">
<title>33</title>
<path fill="none" stroke="#5663d8" stroke-width="2" d="M1200.49,-324C1200.49,-324 1140.49,-324 1140.49,-324 1134.49,-324 1128.49,-318 1128.49,-312 1128.49,-312 1128.49,-300 1128.49,-300 1128.49,-294 1134.49,-288 1140.49,-288 1140.49,-288 1200.49,-288 1200.49,-288 1206.49,-288 1212.49,-294 1212.49,-300 1212.49,-300 1212.49,-312 1212.49,-312 1212.49,-318 1206.49,-324 1200.49,-324"/>
<text text-anchor="middle" x="1170.49" y="-303.5" font-family="sans" font-size="10.00">build_bracken</text>
</g>
<!-- 32&#45;&gt;33 -->
<g id="edge49" class="edge">
<title>32&#45;&gt;33</title>
<path fill="none" stroke="grey" stroke-width="2" d="M1117.8,-359.7C1126.36,-351.14 1136.84,-340.66 1146.19,-331.3"/>
<polygon fill="grey" stroke="grey" stroke-width="2" points="1148.79,-333.65 1153.39,-324.1 1143.84,-328.7 1148.79,-333.65"/>
</g>
<!-- 32&#45;&gt;34 -->
<g id="edge51" class="edge">
<title>32&#45;&gt;34</title>
<path fill="none" stroke="grey" stroke-width="2" d="M1084.67,-359.7C1076.92,-351.22 1067.46,-340.86 1058.97,-331.58"/>
<polygon fill="grey" stroke="grey" stroke-width="2" points="1061.46,-329.12 1052.13,-324.1 1056.3,-333.85 1061.46,-329.12"/>
</g>
<!-- 33&#45;&gt;31 -->
<g id="edge47" class="edge">
<title>33&#45;&gt;31</title>
<path fill="none" stroke="grey" stroke-width="2" d="M1145.54,-287.88C1132.45,-278.89 1116.23,-267.76 1102.06,-258.03"/>
<polygon fill="grey" stroke="grey" stroke-width="2" points="1103.77,-254.96 1093.54,-252.19 1099.81,-260.73 1103.77,-254.96"/>
</g>
<!-- 34&#45;&gt;31 -->
<g id="edge48" class="edge">
<title>34&#45;&gt;31</title>
<path fill="none" stroke="grey" stroke-width="2" d="M1044.4,-287.7C1048.05,-279.73 1052.45,-270.1 1056.49,-261.26"/>
<polygon fill="grey" stroke="grey" stroke-width="2" points="1059.7,-262.65 1060.67,-252.1 1053.33,-259.74 1059.7,-262.65"/>
</g>
<!-- 35&#45;&gt;0 -->
<g id="edge10" class="edge">
<title>35&#45;&gt;0</title>
<path fill="none" stroke="grey" stroke-width="2" d="M416.88,-71.97C481.41,-57.76 570.56,-38.14 620.24,-27.2"/>
<polygon fill="grey" stroke="grey" stroke-width="2" points="621.2,-30.57 630.21,-25.01 619.7,-23.74 621.2,-30.57"/>
</g>
</g>
</svg>
