<?xml version="1.0" encoding="UTF-8" standalone="no"?>
<!DOCTYPE svg PUBLIC "-//W3C//DTD SVG 1.1//EN"
 "http://www.w3.org/Graphics/SVG/1.1/DTD/svg11.dtd">
<!-- Generated by graphviz version 2.43.0 (0)
 -->
<!-- Title: snakemake_dag Pages: 1 -->
<svg width="1220pt" height="620pt"
 viewBox="0.00 0.00 1220.36 620.00" xmlns="http://www.w3.org/2000/svg" xmlns:xlink="http://www.w3.org/1999/xlink">
<g id="graph0" class="graph" transform="scale(1 1) rotate(0) translate(4 616)">
<title>snakemake_dag</title>
<polygon fill="white" stroke="transparent" points="-4,4 -4,-616 1216.36,-616 1216.36,4 -4,4"/>
<!-- 0 -->
<g id="node1" class="node">
<title>0</title>
<path fill="none" stroke="#d8a456" stroke-width="2" d="M672.36,-36C672.36,-36 642.36,-36 642.36,-36 636.36,-36 630.36,-30 630.36,-24 630.36,-24 630.36,-12 630.36,-12 630.36,-6 636.36,0 642.36,0 642.36,0 672.36,0 672.36,0 678.36,0 684.36,-6 684.36,-12 684.36,-12 684.36,-24 684.36,-24 684.36,-30 678.36,-36 672.36,-36"/>
<text text-anchor="middle" x="657.36" y="-15.5" font-family="sans" font-size="10.00">all</text>
</g>
<!-- 1 -->
<g id="node2" class="node">
<title>1</title>
<path fill="none" stroke="#97d856" stroke-width="2" d="M286.86,-396C286.86,-396 223.86,-396 223.86,-396 217.86,-396 211.86,-390 211.86,-384 211.86,-384 211.86,-372 211.86,-372 211.86,-366 217.86,-360 223.86,-360 223.86,-360 286.86,-360 286.86,-360 292.86,-360 298.86,-366 298.86,-372 298.86,-372 298.86,-384 298.86,-384 298.86,-390 292.86,-396 286.86,-396"/>
<text text-anchor="middle" x="255.36" y="-375.5" font-family="sans" font-size="10.00">multiqc_pass1</text>
</g>
<!-- 1&#45;&gt;0 -->
<g id="edge1" class="edge">
<title>1&#45;&gt;0</title>
<path fill="none" stroke="grey" stroke-width="2" d="M211.69,-372.7C151.52,-365.87 47.55,-350.52 21.36,-324 -7.07,-295.22 2.36,-275.45 2.36,-235 2.36,-235 2.36,-235 2.36,-161 2.36,-33.71 480.83,-20.28 619.88,-19.06"/>
<polygon fill="grey" stroke="grey" stroke-width="2" points="620.07,-22.56 630.04,-18.99 620.02,-15.56 620.07,-22.56"/>
</g>
<!-- 2 -->
<g id="node3" class="node">
<title>2</title>
<path fill="none" stroke="#9fd856" stroke-width="2" d="M284.86,-468C284.86,-468 225.86,-468 225.86,-468 219.86,-468 213.86,-462 213.86,-456 213.86,-456 213.86,-444 213.86,-444 213.86,-438 219.86,-432 225.86,-432 225.86,-432 284.86,-432 284.86,-432 290.86,-432 296.86,-438 296.86,-444 296.86,-444 296.86,-456 296.86,-456 296.86,-462 290.86,-468 284.86,-468"/>
<text text-anchor="middle" x="255.36" y="-453" font-family="sans" font-size="10.00">fastQC_pass1</text>
<text text-anchor="middle" x="255.36" y="-442" font-family="sans" font-size="10.00">read: R1</text>
</g>
<!-- 2&#45;&gt;1 -->
<g id="edge11" class="edge">
<title>2&#45;&gt;1</title>
<path fill="none" stroke="grey" stroke-width="2" d="M255.36,-431.7C255.36,-423.98 255.36,-414.71 255.36,-406.11"/>
<polygon fill="grey" stroke="grey" stroke-width="2" points="258.86,-406.1 255.36,-396.1 251.86,-406.1 258.86,-406.1"/>
</g>
<!-- 3 -->
<g id="node4" class="node">
<title>3</title>
<path fill="none" stroke="#d8b456" stroke-width="2" d="M514.36,-540C514.36,-540 436.36,-540 436.36,-540 430.36,-540 424.36,-534 424.36,-528 424.36,-528 424.36,-516 424.36,-516 424.36,-510 430.36,-504 436.36,-504 436.36,-504 514.36,-504 514.36,-504 520.36,-504 526.36,-510 526.36,-516 526.36,-516 526.36,-528 526.36,-528 526.36,-534 520.36,-540 514.36,-540"/>
<text text-anchor="middle" x="475.36" y="-519.5" font-family="sans" font-size="10.00">remove_adapters</text>
</g>
<!-- 3&#45;&gt;2 -->
<g id="edge13" class="edge">
<title>3&#45;&gt;2</title>
<path fill="none" stroke="grey" stroke-width="2" d="M424.29,-505.45C392.72,-495.75 351.15,-482.83 306.62,-468.38"/>
<polygon fill="grey" stroke="grey" stroke-width="2" points="307.66,-465.04 297.07,-465.27 305.5,-471.7 307.66,-465.04"/>
</g>
<!-- 5 -->
<g id="node6" class="node">
<title>5</title>
<path fill="none" stroke="#9fd856" stroke-width="2" d="M385.86,-468C385.86,-468 326.86,-468 326.86,-468 320.86,-468 314.86,-462 314.86,-456 314.86,-456 314.86,-444 314.86,-444 314.86,-438 320.86,-432 326.86,-432 326.86,-432 385.86,-432 385.86,-432 391.86,-432 397.86,-438 397.86,-444 397.86,-444 397.86,-456 397.86,-456 397.86,-462 391.86,-468 385.86,-468"/>
<text text-anchor="middle" x="356.36" y="-453" font-family="sans" font-size="10.00">fastQC_pass1</text>
<text text-anchor="middle" x="356.36" y="-442" font-family="sans" font-size="10.00">read: R2</text>
</g>
<!-- 3&#45;&gt;5 -->
<g id="edge15" class="edge">
<title>3&#45;&gt;5</title>
<path fill="none" stroke="grey" stroke-width="2" d="M446.24,-503.88C430.69,-494.72 411.34,-483.34 394.58,-473.48"/>
<polygon fill="grey" stroke="grey" stroke-width="2" points="395.97,-470.24 385.58,-468.19 392.42,-476.28 395.97,-470.24"/>
</g>
<!-- 8 -->
<g id="node9" class="node">
<title>8</title>
<path fill="none" stroke="#56d8c1" stroke-width="2" d="M621.36,-468C621.36,-468 565.36,-468 565.36,-468 559.36,-468 553.36,-462 553.36,-456 553.36,-456 553.36,-444 553.36,-444 553.36,-438 559.36,-432 565.36,-432 565.36,-432 621.36,-432 621.36,-432 627.36,-432 633.36,-438 633.36,-444 633.36,-444 633.36,-456 633.36,-456 633.36,-462 627.36,-468 621.36,-468"/>
<text text-anchor="middle" x="593.36" y="-447.5" font-family="sans" font-size="10.00">trim_forward</text>
</g>
<!-- 3&#45;&gt;8 -->
<g id="edge19" class="edge">
<title>3&#45;&gt;8</title>
<path fill="none" stroke="grey" stroke-width="2" d="M504.22,-503.88C519.65,-494.72 538.84,-483.34 555.45,-473.48"/>
<polygon fill="grey" stroke="grey" stroke-width="2" points="557.56,-476.3 564.38,-468.19 553.99,-470.28 557.56,-476.3"/>
</g>
<!-- 10 -->
<g id="node11" class="node">
<title>10</title>
<path fill="none" stroke="#78d856" stroke-width="2" d="M718.86,-468C718.86,-468 663.86,-468 663.86,-468 657.86,-468 651.86,-462 651.86,-456 651.86,-456 651.86,-444 651.86,-444 651.86,-438 657.86,-432 663.86,-432 663.86,-432 718.86,-432 718.86,-432 724.86,-432 730.86,-438 730.86,-444 730.86,-444 730.86,-456 730.86,-456 730.86,-462 724.86,-468 718.86,-468"/>
<text text-anchor="middle" x="691.36" y="-447.5" font-family="sans" font-size="10.00">trim_reverse</text>
</g>
<!-- 3&#45;&gt;10 -->
<g id="edge21" class="edge">
<title>3&#45;&gt;10</title>
<path fill="none" stroke="grey" stroke-width="2" d="M526.63,-505.11C557.53,-495.45 597.88,-482.68 642.27,-467.99"/>
<polygon fill="grey" stroke="grey" stroke-width="2" points="643.42,-471.29 651.81,-464.82 641.21,-464.65 643.42,-471.29"/>
</g>
<!-- 4 -->
<g id="node5" class="node">
<title>4</title>
<path fill="none" stroke="#56d873" stroke-width="2" d="M536.36,-612C536.36,-612 414.36,-612 414.36,-612 408.36,-612 402.36,-606 402.36,-600 402.36,-600 402.36,-588 402.36,-588 402.36,-582 408.36,-576 414.36,-576 414.36,-576 536.36,-576 536.36,-576 542.36,-576 548.36,-582 548.36,-588 548.36,-588 548.36,-600 548.36,-600 548.36,-606 542.36,-612 536.36,-612"/>
<text text-anchor="middle" x="475.36" y="-597" font-family="sans" font-size="10.00">symlink_fastqs</text>
<text text-anchor="middle" x="475.36" y="-586" font-family="sans" font-size="10.00">sample: mock_community</text>
</g>
<!-- 4&#45;&gt;3 -->
<g id="edge14" class="edge">
<title>4&#45;&gt;3</title>
<path fill="none" stroke="grey" stroke-width="2" d="M475.36,-575.7C475.36,-567.98 475.36,-558.71 475.36,-550.11"/>
<polygon fill="grey" stroke="grey" stroke-width="2" points="478.86,-550.1 475.36,-540.1 471.86,-550.1 478.86,-550.1"/>
</g>
<!-- 5&#45;&gt;1 -->
<g id="edge12" class="edge">
<title>5&#45;&gt;1</title>
<path fill="none" stroke="grey" stroke-width="2" d="M331.65,-431.88C318.69,-422.89 302.63,-411.76 288.59,-402.03"/>
<polygon fill="grey" stroke="grey" stroke-width="2" points="290.37,-399.01 280.16,-396.19 286.38,-404.76 290.37,-399.01"/>
</g>
<!-- 6 -->
<g id="node7" class="node">
<title>6</title>
<path fill="none" stroke="#d8d356" stroke-width="2" d="M785.86,-324C785.86,-324 722.86,-324 722.86,-324 716.86,-324 710.86,-318 710.86,-312 710.86,-312 710.86,-300 710.86,-300 710.86,-294 716.86,-288 722.86,-288 722.86,-288 785.86,-288 785.86,-288 791.86,-288 797.86,-294 797.86,-300 797.86,-300 797.86,-312 797.86,-312 797.86,-318 791.86,-324 785.86,-324"/>
<text text-anchor="middle" x="754.36" y="-303.5" font-family="sans" font-size="10.00">multiqc_pass2</text>
</g>
<!-- 6&#45;&gt;0 -->
<g id="edge2" class="edge">
<title>6&#45;&gt;0</title>
<path fill="none" stroke="grey" stroke-width="2" d="M752.35,-287.71C747.18,-247.75 731,-146.73 692.36,-72 687.54,-62.7 681.48,-53 675.76,-44.48"/>
<polygon fill="grey" stroke="grey" stroke-width="2" points="678.55,-42.35 669.99,-36.1 672.78,-46.32 678.55,-42.35"/>
</g>
<!-- 7 -->
<g id="node8" class="node">
<title>7</title>
<path fill="none" stroke="#d87556" stroke-width="2" d="M676.86,-396C676.86,-396 617.86,-396 617.86,-396 611.86,-396 605.86,-390 605.86,-384 605.86,-384 605.86,-372 605.86,-372 605.86,-366 611.86,-360 617.86,-360 617.86,-360 676.86,-360 676.86,-360 682.86,-360 688.86,-366 688.86,-372 688.86,-372 688.86,-384 688.86,-384 688.86,-390 682.86,-396 676.86,-396"/>
<text text-anchor="middle" x="647.36" y="-381" font-family="sans" font-size="10.00">fastQC_pass2</text>
<text text-anchor="middle" x="647.36" y="-370" font-family="sans" font-size="10.00">read: R1</text>
</g>
<!-- 7&#45;&gt;6 -->
<g id="edge16" class="edge">
<title>7&#45;&gt;6</title>
<path fill="none" stroke="grey" stroke-width="2" d="M673.53,-359.88C687.39,-350.81 704.6,-339.55 719.57,-329.76"/>
<polygon fill="grey" stroke="grey" stroke-width="2" points="721.63,-332.59 728.08,-324.19 717.8,-326.74 721.63,-332.59"/>
</g>
<!-- 8&#45;&gt;7 -->
<g id="edge18" class="edge">
<title>8&#45;&gt;7</title>
<path fill="none" stroke="grey" stroke-width="2" d="M606.7,-431.7C613.11,-423.39 620.91,-413.28 627.96,-404.14"/>
<polygon fill="grey" stroke="grey" stroke-width="2" points="630.82,-406.16 634.16,-396.1 625.28,-401.88 630.82,-406.16"/>
</g>
<!-- 18 -->
<g id="node19" class="node">
<title>18</title>
<path fill="none" stroke="#afd856" stroke-width="2" d="M575.86,-396C575.86,-396 534.86,-396 534.86,-396 528.86,-396 522.86,-390 522.86,-384 522.86,-384 522.86,-372 522.86,-372 522.86,-366 528.86,-360 534.86,-360 534.86,-360 575.86,-360 575.86,-360 581.86,-360 587.86,-366 587.86,-372 587.86,-372 587.86,-384 587.86,-384 587.86,-390 581.86,-396 575.86,-396"/>
<text text-anchor="middle" x="555.36" y="-375.5" font-family="sans" font-size="10.00">host_filter</text>
</g>
<!-- 8&#45;&gt;18 -->
<g id="edge30" class="edge">
<title>8&#45;&gt;18</title>
<path fill="none" stroke="grey" stroke-width="2" d="M583.96,-431.7C579.59,-423.64 574.3,-413.89 569.46,-404.98"/>
<polygon fill="grey" stroke="grey" stroke-width="2" points="572.49,-403.22 564.64,-396.1 566.34,-406.56 572.49,-403.22"/>
</g>
<!-- 27 -->
<g id="node28" class="node">
<title>27</title>
<path fill="none" stroke="#59d856" stroke-width="2" d="M872.86,-396C872.86,-396 819.86,-396 819.86,-396 813.86,-396 807.86,-390 807.86,-384 807.86,-384 807.86,-372 807.86,-372 807.86,-366 813.86,-360 819.86,-360 819.86,-360 872.86,-360 872.86,-360 878.86,-360 884.86,-366 884.86,-372 884.86,-372 884.86,-384 884.86,-384 884.86,-390 878.86,-396 872.86,-396"/>
<text text-anchor="middle" x="846.36" y="-375.5" font-family="sans" font-size="10.00">bbmap_host</text>
</g>
<!-- 8&#45;&gt;27 -->
<g id="edge41" class="edge">
<title>8&#45;&gt;27</title>
<path fill="none" stroke="grey" stroke-width="2" d="M633.62,-434.65C636.57,-433.71 639.5,-432.82 642.36,-432 707.79,-413.16 728.29,-415.64 798.01,-395.91"/>
<polygon fill="grey" stroke="grey" stroke-width="2" points="799.07,-399.25 807.71,-393.11 797.13,-392.52 799.07,-399.25"/>
</g>
<!-- 9 -->
<g id="node10" class="node">
<title>9</title>
<path fill="none" stroke="#d87556" stroke-width="2" d="M777.86,-396C777.86,-396 718.86,-396 718.86,-396 712.86,-396 706.86,-390 706.86,-384 706.86,-384 706.86,-372 706.86,-372 706.86,-366 712.86,-360 718.86,-360 718.86,-360 777.86,-360 777.86,-360 783.86,-360 789.86,-366 789.86,-372 789.86,-372 789.86,-384 789.86,-384 789.86,-390 783.86,-396 777.86,-396"/>
<text text-anchor="middle" x="748.36" y="-381" font-family="sans" font-size="10.00">fastQC_pass2</text>
<text text-anchor="middle" x="748.36" y="-370" font-family="sans" font-size="10.00">read: R2</text>
</g>
<!-- 9&#45;&gt;6 -->
<g id="edge17" class="edge">
<title>9&#45;&gt;6</title>
<path fill="none" stroke="grey" stroke-width="2" d="M749.84,-359.7C750.5,-351.98 751.29,-342.71 752.03,-334.11"/>
<polygon fill="grey" stroke="grey" stroke-width="2" points="755.52,-334.37 752.89,-324.1 748.55,-333.77 755.52,-334.37"/>
</g>
<!-- 10&#45;&gt;9 -->
<g id="edge20" class="edge">
<title>10&#45;&gt;9</title>
<path fill="none" stroke="grey" stroke-width="2" d="M705.45,-431.7C712.28,-423.3 720.61,-413.07 728.11,-403.86"/>
<polygon fill="grey" stroke="grey" stroke-width="2" points="730.83,-406.07 734.43,-396.1 725.4,-401.65 730.83,-406.07"/>
</g>
<!-- 10&#45;&gt;18 -->
<g id="edge31" class="edge">
<title>10&#45;&gt;18</title>
<path fill="none" stroke="grey" stroke-width="2" d="M658.09,-431.88C639.76,-422.44 616.83,-410.64 597.28,-400.58"/>
<polygon fill="grey" stroke="grey" stroke-width="2" points="598.77,-397.41 588.28,-395.95 595.57,-403.64 598.77,-397.41"/>
</g>
<!-- 10&#45;&gt;27 -->
<g id="edge42" class="edge">
<title>10&#45;&gt;27</title>
<path fill="none" stroke="grey" stroke-width="2" d="M729.27,-431.88C750.37,-422.35 776.81,-410.41 799.23,-400.28"/>
<polygon fill="grey" stroke="grey" stroke-width="2" points="800.89,-403.37 808.56,-396.07 798.01,-396.99 800.89,-403.37"/>
</g>
<!-- 11 -->
<g id="node12" class="node">
<title>11</title>
<path fill="none" stroke="#d8c356" stroke-width="2" d="M509.36,-180C509.36,-180 351.36,-180 351.36,-180 345.36,-180 339.36,-174 339.36,-168 339.36,-168 339.36,-156 339.36,-156 339.36,-150 345.36,-144 351.36,-144 351.36,-144 509.36,-144 509.36,-144 515.36,-144 521.36,-150 521.36,-156 521.36,-156 521.36,-168 521.36,-168 521.36,-174 515.36,-180 509.36,-180"/>
<text text-anchor="middle" x="430.36" y="-159.5" font-family="sans" font-size="10.00">aggregate_humann_outs_nonhost</text>
</g>
<!-- 11&#45;&gt;0 -->
<g id="edge3" class="edge">
<title>11&#45;&gt;0</title>
<path fill="none" stroke="grey" stroke-width="2" d="M432.51,-143.65C435.93,-123.54 444.5,-90.77 465.36,-72 508.48,-33.19 577.55,-22.49 620.03,-19.72"/>
<polygon fill="grey" stroke="grey" stroke-width="2" points="620.43,-23.2 630.23,-19.17 620.06,-16.21 620.43,-23.2"/>
</g>
<!-- 20 -->
<g id="node21" class="node">
<title>20</title>
<path fill="none" stroke="#56b1d8" stroke-width="2" d="M540.36,-108C540.36,-108 486.36,-108 486.36,-108 480.36,-108 474.36,-102 474.36,-96 474.36,-96 474.36,-84 474.36,-84 474.36,-78 480.36,-72 486.36,-72 486.36,-72 540.36,-72 540.36,-72 546.36,-72 552.36,-78 552.36,-84 552.36,-84 552.36,-96 552.36,-96 552.36,-102 546.36,-108 540.36,-108"/>
<text text-anchor="middle" x="513.36" y="-87.5" font-family="sans" font-size="10.00">taxa_barplot</text>
</g>
<!-- 11&#45;&gt;20 -->
<g id="edge32" class="edge">
<title>11&#45;&gt;20</title>
<path fill="none" stroke="grey" stroke-width="2" d="M450.87,-143.7C461.23,-134.97 473.94,-124.24 485.19,-114.75"/>
<polygon fill="grey" stroke="grey" stroke-width="2" points="487.69,-117.23 493.07,-108.1 483.17,-111.88 487.69,-117.23"/>
</g>
<!-- 21 -->
<g id="node22" class="node">
<title>21</title>
<path fill="none" stroke="#56d882" stroke-width="2" d="M656.36,-108C656.36,-108 582.36,-108 582.36,-108 576.36,-108 570.36,-102 570.36,-96 570.36,-96 570.36,-84 570.36,-84 570.36,-78 576.36,-72 582.36,-72 582.36,-72 656.36,-72 656.36,-72 662.36,-72 668.36,-78 668.36,-84 668.36,-84 668.36,-96 668.36,-96 668.36,-102 662.36,-108 656.36,-108"/>
<text text-anchor="middle" x="619.36" y="-87.5" font-family="sans" font-size="10.00">func_barplot_rxn</text>
</g>
<!-- 11&#45;&gt;21 -->
<g id="edge33" class="edge">
<title>11&#45;&gt;21</title>
<path fill="none" stroke="grey" stroke-width="2" d="M476.59,-143.88C502.89,-134.14 536,-121.87 563.71,-111.61"/>
<polygon fill="grey" stroke="grey" stroke-width="2" points="565.11,-114.82 573.27,-108.07 562.68,-108.26 565.11,-114.82"/>
</g>
<!-- 35 -->
<g id="node36" class="node">
<title>35</title>
<path fill="none" stroke="#5692d8" stroke-width="2" d="M406.36,-108C406.36,-108 272.36,-108 272.36,-108 266.36,-108 260.36,-102 260.36,-96 260.36,-96 260.36,-84 260.36,-84 260.36,-78 266.36,-72 272.36,-72 272.36,-72 406.36,-72 406.36,-72 412.36,-72 418.36,-78 418.36,-84 418.36,-84 418.36,-96 418.36,-96 418.36,-102 412.36,-108 406.36,-108"/>
<text text-anchor="middle" x="339.36" y="-87.5" font-family="sans" font-size="10.00">calc_gut_metabolic_modules</text>
</g>
<!-- 11&#45;&gt;35 -->
<g id="edge52" class="edge">
<title>11&#45;&gt;35</title>
<path fill="none" stroke="grey" stroke-width="2" d="M407.86,-143.7C396.4,-134.88 382.3,-124.03 369.87,-114.47"/>
<polygon fill="grey" stroke="grey" stroke-width="2" points="371.65,-111.43 361.59,-108.1 367.38,-116.98 371.65,-111.43"/>
</g>
<!-- 12 -->
<g id="node13" class="node">
<title>12</title>
<path fill="none" stroke="#56a2d8" stroke-width="2" d="M330.86,-252C330.86,-252 223.86,-252 223.86,-252 217.86,-252 211.86,-246 211.86,-240 211.86,-240 211.86,-228 211.86,-228 211.86,-222 217.86,-216 223.86,-216 223.86,-216 330.86,-216 330.86,-216 336.86,-216 342.86,-222 342.86,-228 342.86,-228 342.86,-240 342.86,-240 342.86,-246 336.86,-252 330.86,-252"/>
<text text-anchor="middle" x="277.36" y="-231.5" font-family="sans" font-size="10.00">get_utility_mapping_db</text>
</g>
<!-- 12&#45;&gt;11 -->
<g id="edge22" class="edge">
<title>12&#45;&gt;11</title>
<path fill="none" stroke="grey" stroke-width="2" d="M314.78,-215.88C335.61,-206.35 361.71,-194.41 383.84,-184.28"/>
<polygon fill="grey" stroke="grey" stroke-width="2" points="385.41,-187.41 393.05,-180.07 382.5,-181.05 385.41,-187.41"/>
</g>
<!-- 13 -->
<g id="node14" class="node">
<title>13</title>
<path fill="none" stroke="#56c1d8" stroke-width="2" d="M471.36,-252C471.36,-252 373.36,-252 373.36,-252 367.36,-252 361.36,-246 361.36,-240 361.36,-240 361.36,-228 361.36,-228 361.36,-222 367.36,-216 373.36,-216 373.36,-216 471.36,-216 471.36,-216 477.36,-216 483.36,-222 483.36,-228 483.36,-228 483.36,-240 483.36,-240 483.36,-246 477.36,-252 471.36,-252"/>
<text text-anchor="middle" x="422.36" y="-231.5" font-family="sans" font-size="10.00">run_humann_nonhost</text>
</g>
<!-- 13&#45;&gt;11 -->
<g id="edge23" class="edge">
<title>13&#45;&gt;11</title>
<path fill="none" stroke="grey" stroke-width="2" d="M424.33,-215.7C425.21,-207.98 426.27,-198.71 427.26,-190.11"/>
<polygon fill="grey" stroke="grey" stroke-width="2" points="430.74,-190.44 428.4,-180.1 423.79,-189.64 430.74,-190.44"/>
</g>
<!-- 14 -->
<g id="node15" class="node">
<title>14</title>
<path fill="none" stroke="#d89556" stroke-width="2" d="M456.86,-324C456.86,-324 379.86,-324 379.86,-324 373.86,-324 367.86,-318 367.86,-312 367.86,-312 367.86,-300 367.86,-300 367.86,-294 373.86,-288 379.86,-288 379.86,-288 456.86,-288 456.86,-288 462.86,-288 468.86,-294 468.86,-300 468.86,-300 468.86,-312 468.86,-312 468.86,-318 462.86,-324 456.86,-324"/>
<text text-anchor="middle" x="418.36" y="-303.5" font-family="sans" font-size="10.00">setup_metaphlan</text>
</g>
<!-- 14&#45;&gt;13 -->
<g id="edge24" class="edge">
<title>14&#45;&gt;13</title>
<path fill="none" stroke="grey" stroke-width="2" d="M419.34,-287.7C419.79,-279.98 420.31,-270.71 420.81,-262.11"/>
<polygon fill="grey" stroke="grey" stroke-width="2" points="424.3,-262.29 421.38,-252.1 417.31,-261.89 424.3,-262.29"/>
</g>
<!-- 15 -->
<g id="node16" class="node">
<title>15</title>
<path fill="none" stroke="#5682d8" stroke-width="2" d="M182.36,-324C182.36,-324 42.36,-324 42.36,-324 36.36,-324 30.36,-318 30.36,-312 30.36,-312 30.36,-300 30.36,-300 30.36,-294 36.36,-288 42.36,-288 42.36,-288 182.36,-288 182.36,-288 188.36,-288 194.36,-294 194.36,-300 194.36,-300 194.36,-312 194.36,-312 194.36,-318 188.36,-324 182.36,-324"/>
<text text-anchor="middle" x="112.36" y="-303.5" font-family="sans" font-size="10.00">get_biobakery_chocophlan_db</text>
</g>
<!-- 15&#45;&gt;13 -->
<g id="edge25" class="edge">
<title>15&#45;&gt;13</title>
<path fill="none" stroke="grey" stroke-width="2" d="M190.74,-287.97C237.43,-277.73 297.83,-264.34 351.36,-252 351.46,-251.98 351.56,-251.95 351.66,-251.93"/>
<polygon fill="grey" stroke="grey" stroke-width="2" points="352.23,-255.39 361.18,-249.72 350.65,-248.57 352.23,-255.39"/>
</g>
<!-- 16 -->
<g id="node17" class="node">
<title>16</title>
<path fill="none" stroke="#ced856" stroke-width="2" d="M337.86,-324C337.86,-324 224.86,-324 224.86,-324 218.86,-324 212.86,-318 212.86,-312 212.86,-312 212.86,-300 212.86,-300 212.86,-294 218.86,-288 224.86,-288 224.86,-288 337.86,-288 337.86,-288 343.86,-288 349.86,-294 349.86,-300 349.86,-300 349.86,-312 349.86,-312 349.86,-318 343.86,-324 337.86,-324"/>
<text text-anchor="middle" x="281.36" y="-303.5" font-family="sans" font-size="10.00">get_biobakery_uniref_db</text>
</g>
<!-- 16&#45;&gt;13 -->
<g id="edge26" class="edge">
<title>16&#45;&gt;13</title>
<path fill="none" stroke="grey" stroke-width="2" d="M315.85,-287.88C334.8,-278.47 358.49,-266.71 378.71,-256.67"/>
<polygon fill="grey" stroke="grey" stroke-width="2" points="380.33,-259.77 387.73,-252.19 377.22,-253.5 380.33,-259.77"/>
</g>
<!-- 17 -->
<g id="node18" class="node">
<title>17</title>
<path fill="none" stroke="#5663d8" stroke-width="2" d="M599.86,-324C599.86,-324 498.86,-324 498.86,-324 492.86,-324 486.86,-318 486.86,-312 486.86,-312 486.86,-300 486.86,-300 486.86,-294 492.86,-288 498.86,-288 498.86,-288 599.86,-288 599.86,-288 605.86,-288 611.86,-294 611.86,-300 611.86,-300 611.86,-312 611.86,-312 611.86,-318 605.86,-324 599.86,-324"/>
<text text-anchor="middle" x="549.36" y="-303.5" font-family="sans" font-size="10.00">concat_nonhost_reads</text>
</g>
<!-- 17&#45;&gt;13 -->
<g id="edge27" class="edge">
<title>17&#45;&gt;13</title>
<path fill="none" stroke="grey" stroke-width="2" d="M518.29,-287.88C501.53,-278.64 480.65,-267.13 462.65,-257.21"/>
<polygon fill="grey" stroke="grey" stroke-width="2" points="463.99,-253.95 453.54,-252.19 460.61,-260.08 463.99,-253.95"/>
</g>
<!-- 18&#45;&gt;17 -->
<g id="edge28" class="edge">
<title>18&#45;&gt;17</title>
<path fill="none" stroke="grey" stroke-width="2" d="M553.87,-359.7C553.21,-351.98 552.42,-342.71 551.68,-334.11"/>
<polygon fill="grey" stroke="grey" stroke-width="2" points="555.16,-333.77 550.82,-324.1 548.19,-334.37 555.16,-333.77"/>
</g>
<!-- 23 -->
<g id="node24" class="node">
<title>23</title>
<path fill="none" stroke="#bed856" stroke-width="2" d="M680.36,-324C680.36,-324 642.36,-324 642.36,-324 636.36,-324 630.36,-318 630.36,-312 630.36,-312 630.36,-300 630.36,-300 630.36,-294 636.36,-288 642.36,-288 642.36,-288 680.36,-288 680.36,-288 686.36,-288 692.36,-294 692.36,-300 692.36,-300 692.36,-312 692.36,-312 692.36,-318 686.36,-324 680.36,-324"/>
<text text-anchor="middle" x="661.36" y="-303.5" font-family="sans" font-size="10.00">nonpareil</text>
</g>
<!-- 18&#45;&gt;23 -->
<g id="edge35" class="edge">
<title>18&#45;&gt;23</title>
<path fill="none" stroke="grey" stroke-width="2" d="M581.29,-359.88C595.02,-350.81 612.06,-339.55 626.89,-329.76"/>
<polygon fill="grey" stroke="grey" stroke-width="2" points="628.91,-332.62 635.33,-324.19 625.05,-326.78 628.91,-332.62"/>
</g>
<!-- 34 -->
<g id="node35" class="node">
<title>34</title>
<path fill="none" stroke="#56d863" stroke-width="2" d="M1059.86,-324C1059.86,-324 1012.86,-324 1012.86,-324 1006.86,-324 1000.86,-318 1000.86,-312 1000.86,-312 1000.86,-300 1000.86,-300 1000.86,-294 1006.86,-288 1012.86,-288 1012.86,-288 1059.86,-288 1059.86,-288 1065.86,-288 1071.86,-294 1071.86,-300 1071.86,-300 1071.86,-312 1071.86,-312 1071.86,-318 1065.86,-324 1059.86,-324"/>
<text text-anchor="middle" x="1036.36" y="-303.5" font-family="sans" font-size="10.00">run_kraken</text>
</g>
<!-- 18&#45;&gt;34 -->
<g id="edge50" class="edge">
<title>18&#45;&gt;34</title>
<path fill="none" stroke="grey" stroke-width="2" d="M588.19,-362.42C590.92,-361.5 593.67,-360.68 596.36,-360 750.56,-321.13 795.12,-347.8 952.36,-324 964.77,-322.12 978.12,-319.63 990.45,-317.14"/>
<polygon fill="grey" stroke="grey" stroke-width="2" points="991.44,-320.51 1000.52,-315.06 990.02,-313.66 991.44,-320.51"/>
</g>
<!-- 19 -->
<g id="node20" class="node">
<title>19</title>
<path fill="none" stroke="#d85656" stroke-width="2" d="M522.86,-468C522.86,-468 427.86,-468 427.86,-468 421.86,-468 415.86,-462 415.86,-456 415.86,-456 415.86,-444 415.86,-444 415.86,-438 421.86,-432 427.86,-432 427.86,-432 522.86,-432 522.86,-432 528.86,-432 534.86,-438 534.86,-444 534.86,-444 534.86,-456 534.86,-456 534.86,-462 528.86,-468 522.86,-468"/>
<text text-anchor="middle" x="475.36" y="-447.5" font-family="sans" font-size="10.00">download_hostile_db</text>
</g>
<!-- 19&#45;&gt;18 -->
<g id="edge29" class="edge">
<title>19&#45;&gt;18</title>
<path fill="none" stroke="grey" stroke-width="2" d="M495.13,-431.7C505.11,-422.97 517.37,-412.24 528.21,-402.75"/>
<polygon fill="grey" stroke="grey" stroke-width="2" points="530.59,-405.32 535.81,-396.1 525.98,-400.06 530.59,-405.32"/>
</g>
<!-- 20&#45;&gt;0 -->
<g id="edge4" class="edge">
<title>20&#45;&gt;0</title>
<path fill="none" stroke="grey" stroke-width="2" d="M548.58,-71.88C570.58,-61.18 598.85,-47.44 621.05,-36.65"/>
<polygon fill="grey" stroke="grey" stroke-width="2" points="622.7,-39.74 630.16,-32.22 619.64,-33.44 622.7,-39.74"/>
</g>
<!-- 21&#45;&gt;0 -->
<g id="edge5" class="edge">
<title>21&#45;&gt;0</title>
<path fill="none" stroke="grey" stroke-width="2" d="M628.75,-71.7C633.12,-63.64 638.41,-53.89 643.25,-44.98"/>
<polygon fill="grey" stroke="grey" stroke-width="2" points="646.38,-46.56 648.07,-36.1 640.22,-43.22 646.38,-46.56"/>
</g>
<!-- 22 -->
<g id="node23" class="node">
<title>22</title>
<path fill="none" stroke="#68d856" stroke-width="2" d="M699.36,-180C699.36,-180 623.36,-180 623.36,-180 617.36,-180 611.36,-174 611.36,-168 611.36,-168 611.36,-156 611.36,-156 611.36,-150 617.36,-144 623.36,-144 623.36,-144 699.36,-144 699.36,-144 705.36,-144 711.36,-150 711.36,-156 711.36,-156 711.36,-168 711.36,-168 711.36,-174 705.36,-180 699.36,-180"/>
<text text-anchor="middle" x="661.36" y="-159.5" font-family="sans" font-size="10.00">nonpareil_curves</text>
</g>
<!-- 22&#45;&gt;0 -->
<g id="edge6" class="edge">
<title>22&#45;&gt;0</title>
<path fill="none" stroke="grey" stroke-width="2" d="M668.01,-143.63C671.56,-133.42 675.56,-120.17 677.36,-108 679.69,-92.17 680.23,-87.74 677.36,-72 675.75,-63.2 672.76,-53.95 669.57,-45.7"/>
<polygon fill="grey" stroke="grey" stroke-width="2" points="672.71,-44.12 665.66,-36.21 666.23,-46.79 672.71,-44.12"/>
</g>
<!-- 23&#45;&gt;22 -->
<g id="edge34" class="edge">
<title>23&#45;&gt;22</title>
<path fill="none" stroke="grey" stroke-width="2" d="M661.36,-287.87C661.36,-263.67 661.36,-219.21 661.36,-190.39"/>
<polygon fill="grey" stroke="grey" stroke-width="2" points="664.86,-190.19 661.36,-180.19 657.86,-190.19 664.86,-190.19"/>
</g>
<!-- 24 -->
<g id="node25" class="node">
<title>24</title>
<path fill="none" stroke="#d86656" stroke-width="2" d="M927.36,-252C927.36,-252 813.36,-252 813.36,-252 807.36,-252 801.36,-246 801.36,-240 801.36,-240 801.36,-228 801.36,-228 801.36,-222 807.36,-216 813.36,-216 813.36,-216 927.36,-216 927.36,-216 933.36,-216 939.36,-222 939.36,-228 939.36,-228 939.36,-240 939.36,-240 939.36,-246 933.36,-252 927.36,-252"/>
<text text-anchor="middle" x="870.36" y="-231.5" font-family="sans" font-size="10.00">generate_feature_counts</text>
</g>
<!-- 24&#45;&gt;0 -->
<g id="edge7" class="edge">
<title>24&#45;&gt;0</title>
<path fill="none" stroke="grey" stroke-width="2" d="M838.68,-215.97C824.19,-206.88 807.75,-194.56 796.36,-180 764.51,-139.32 787.52,-110.75 753.36,-72 737.45,-53.96 713.86,-40.82 694.05,-32.13"/>
<polygon fill="grey" stroke="grey" stroke-width="2" points="695.26,-28.84 684.68,-28.23 692.56,-35.31 695.26,-28.84"/>
</g>
<!-- 29 -->
<g id="node30" class="node">
<title>29</title>
<path fill="none" stroke="#56d0d8" stroke-width="2" d="M922.86,-180C922.86,-180 817.86,-180 817.86,-180 811.86,-180 805.86,-174 805.86,-168 805.86,-168 805.86,-156 805.86,-156 805.86,-150 811.86,-144 817.86,-144 817.86,-144 922.86,-144 922.86,-144 928.86,-144 934.86,-150 934.86,-156 934.86,-156 934.86,-168 934.86,-168 934.86,-174 928.86,-180 922.86,-180"/>
<text text-anchor="middle" x="870.36" y="-159.5" font-family="sans" font-size="10.00">feature_counts_to_tpm</text>
</g>
<!-- 24&#45;&gt;29 -->
<g id="edge44" class="edge">
<title>24&#45;&gt;29</title>
<path fill="none" stroke="grey" stroke-width="2" d="M870.36,-215.7C870.36,-207.98 870.36,-198.71 870.36,-190.11"/>
<polygon fill="grey" stroke="grey" stroke-width="2" points="873.86,-190.1 870.36,-180.1 866.86,-190.1 873.86,-190.1"/>
</g>
<!-- 25 -->
<g id="node26" class="node">
<title>25</title>
<path fill="none" stroke="#56d892" stroke-width="2" d="M950.36,-540C950.36,-540 868.36,-540 868.36,-540 862.36,-540 856.36,-534 856.36,-528 856.36,-528 856.36,-516 856.36,-516 856.36,-510 862.36,-504 868.36,-504 868.36,-504 950.36,-504 950.36,-504 956.36,-504 962.36,-510 962.36,-516 962.36,-516 962.36,-528 962.36,-528 962.36,-534 956.36,-540 950.36,-540"/>
<text text-anchor="middle" x="909.36" y="-519.5" font-family="sans" font-size="10.00">pull_host_genome</text>
</g>
<!-- 25&#45;&gt;24 -->
<g id="edge36" class="edge">
<title>25&#45;&gt;24</title>
<path fill="none" stroke="grey" stroke-width="2" d="M928.83,-503.92C938.18,-494.4 948.4,-481.72 953.36,-468 966.57,-431.41 1003.75,-381.64 952.36,-288 945.4,-275.33 933.97,-265.21 921.83,-257.36"/>
<polygon fill="grey" stroke="grey" stroke-width="2" points="923.3,-254.16 912.92,-252.04 919.71,-260.17 923.3,-254.16"/>
</g>
<!-- 28 -->
<g id="node29" class="node">
<title>28</title>
<path fill="none" stroke="#d88556" stroke-width="2" d="M932.36,-468C932.36,-468 760.36,-468 760.36,-468 754.36,-468 748.36,-462 748.36,-456 748.36,-456 748.36,-444 748.36,-444 748.36,-438 754.36,-432 760.36,-432 760.36,-432 932.36,-432 932.36,-432 938.36,-432 944.36,-438 944.36,-444 944.36,-444 944.36,-456 944.36,-456 944.36,-462 938.36,-468 932.36,-468"/>
<text text-anchor="middle" x="846.36" y="-447.5" font-family="sans" font-size="10.00">build_human_genome_index_bbmap</text>
</g>
<!-- 25&#45;&gt;28 -->
<g id="edge43" class="edge">
<title>25&#45;&gt;28</title>
<path fill="none" stroke="grey" stroke-width="2" d="M893.78,-503.7C886.15,-495.22 876.83,-484.86 868.48,-475.58"/>
<polygon fill="grey" stroke="grey" stroke-width="2" points="871.04,-473.2 861.75,-468.1 865.84,-477.88 871.04,-473.2"/>
</g>
<!-- 26 -->
<g id="node27" class="node">
<title>26</title>
<path fill="none" stroke="#5673d8" stroke-width="2" d="M931.86,-324C931.86,-324 866.86,-324 866.86,-324 860.86,-324 854.86,-318 854.86,-312 854.86,-312 854.86,-300 854.86,-300 854.86,-294 860.86,-288 866.86,-288 866.86,-288 931.86,-288 931.86,-288 937.86,-288 943.86,-294 943.86,-300 943.86,-300 943.86,-312 943.86,-312 943.86,-318 937.86,-324 931.86,-324"/>
<text text-anchor="middle" x="899.36" y="-303.5" font-family="sans" font-size="10.00">validate_bams</text>
</g>
<!-- 26&#45;&gt;24 -->
<g id="edge37" class="edge">
<title>26&#45;&gt;24</title>
<path fill="none" stroke="grey" stroke-width="2" d="M892.19,-287.7C888.92,-279.81 884.98,-270.3 881.35,-261.55"/>
<polygon fill="grey" stroke="grey" stroke-width="2" points="884.5,-260 877.44,-252.1 878.04,-262.68 884.5,-260"/>
</g>
<!-- 27&#45;&gt;24 -->
<g id="edge38" class="edge">
<title>27&#45;&gt;24</title>
<path fill="none" stroke="grey" stroke-width="2" d="M843.84,-359.69C841.74,-341.58 839.88,-312.43 845.36,-288 847.37,-279.01 851.09,-269.75 855.05,-261.53"/>
<polygon fill="grey" stroke="grey" stroke-width="2" points="858.26,-262.94 859.73,-252.44 852.04,-259.73 858.26,-262.94"/>
</g>
<!-- 27&#45;&gt;26 -->
<g id="edge39" class="edge">
<title>27&#45;&gt;26</title>
<path fill="none" stroke="grey" stroke-width="2" d="M859.46,-359.7C865.75,-351.39 873.4,-341.28 880.32,-332.14"/>
<polygon fill="grey" stroke="grey" stroke-width="2" points="883.16,-334.19 886.41,-324.1 877.58,-329.96 883.16,-334.19"/>
</g>
<!-- 28&#45;&gt;27 -->
<g id="edge40" class="edge">
<title>28&#45;&gt;27</title>
<path fill="none" stroke="grey" stroke-width="2" d="M846.36,-431.7C846.36,-423.98 846.36,-414.71 846.36,-406.11"/>
<polygon fill="grey" stroke="grey" stroke-width="2" points="849.86,-406.1 846.36,-396.1 842.86,-406.1 849.86,-406.1"/>
</g>
<!-- 29&#45;&gt;0 -->
<g id="edge8" class="edge">
<title>29&#45;&gt;0</title>
<path fill="none" stroke="grey" stroke-width="2" d="M858.85,-143.74C844.93,-124.01 819.79,-91.91 791.36,-72 761.69,-51.24 722.74,-37.01 694.49,-28.57"/>
<polygon fill="grey" stroke="grey" stroke-width="2" points="695.17,-25.12 684.6,-25.72 693.24,-31.85 695.17,-25.12"/>
</g>
<!-- 30 -->
<g id="node31" class="node">
<title>30</title>
<path fill="none" stroke="#56d8b1" stroke-width="2" d="M1019.36,-108C1019.36,-108 933.36,-108 933.36,-108 927.36,-108 921.36,-102 921.36,-96 921.36,-96 921.36,-84 921.36,-84 921.36,-78 927.36,-72 933.36,-72 933.36,-72 1019.36,-72 1019.36,-72 1025.36,-72 1031.36,-78 1031.36,-84 1031.36,-84 1031.36,-96 1031.36,-96 1031.36,-102 1025.36,-108 1019.36,-108"/>
<text text-anchor="middle" x="976.36" y="-87.5" font-family="sans" font-size="10.00">aggregate_bracken</text>
</g>
<!-- 30&#45;&gt;0 -->
<g id="edge9" class="edge">
<title>30&#45;&gt;0</title>
<path fill="none" stroke="grey" stroke-width="2" d="M921.15,-76.89C856.19,-62.63 750.11,-39.35 694.32,-27.11"/>
<polygon fill="grey" stroke="grey" stroke-width="2" points="695.03,-23.68 684.51,-24.96 693.53,-30.52 695.03,-23.68"/>
</g>
<!-- 31 -->
<g id="node32" class="node">
<title>31</title>
<path fill="none" stroke="#88d856" stroke-width="2" d="M1094.36,-252C1094.36,-252 1042.36,-252 1042.36,-252 1036.36,-252 1030.36,-246 1030.36,-240 1030.36,-240 1030.36,-228 1030.36,-228 1030.36,-222 1036.36,-216 1042.36,-216 1042.36,-216 1094.36,-216 1094.36,-216 1100.36,-216 1106.36,-222 1106.36,-228 1106.36,-228 1106.36,-240 1106.36,-240 1106.36,-246 1100.36,-252 1094.36,-252"/>
<text text-anchor="middle" x="1068.36" y="-231.5" font-family="sans" font-size="10.00">run_bracken</text>
</g>
<!-- 31&#45;&gt;30 -->
<g id="edge45" class="edge">
<title>31&#45;&gt;30</title>
<path fill="none" stroke="grey" stroke-width="2" d="M1057.26,-215.87C1041.3,-191.24 1011.75,-145.64 993.13,-116.88"/>
<polygon fill="grey" stroke="grey" stroke-width="2" points="995.87,-114.68 987.49,-108.19 989.99,-118.48 995.87,-114.68"/>
</g>
<!-- 32 -->
<g id="node33" class="node">
<title>32</title>
<path fill="none" stroke="#56d8d0" stroke-width="2" d="M1132.36,-396C1132.36,-396 1068.36,-396 1068.36,-396 1062.36,-396 1056.36,-390 1056.36,-384 1056.36,-384 1056.36,-372 1056.36,-372 1056.36,-366 1062.36,-360 1068.36,-360 1068.36,-360 1132.36,-360 1132.36,-360 1138.36,-360 1144.36,-366 1144.36,-372 1144.36,-372 1144.36,-384 1144.36,-384 1144.36,-390 1138.36,-396 1132.36,-396"/>
<text text-anchor="middle" x="1100.36" y="-375.5" font-family="sans" font-size="10.00">get_kraken_db</text>
</g>
<!-- 32&#45;&gt;31 -->
<g id="edge46" class="edge">
<title>32&#45;&gt;31</title>
<path fill="none" stroke="grey" stroke-width="2" d="M1096.87,-359.9C1093.17,-341.96 1087.08,-312.95 1081.36,-288 1079.42,-279.56 1077.21,-270.39 1075.17,-262.09"/>
<polygon fill="grey" stroke="grey" stroke-width="2" points="1078.51,-261.02 1072.7,-252.15 1071.71,-262.7 1078.51,-261.02"/>
</g>
<!-- 33 -->
<g id="node34" class="node">
<title>33</title>
<path fill="none" stroke="#56d8a2" stroke-width="2" d="M1200.36,-324C1200.36,-324 1140.36,-324 1140.36,-324 1134.36,-324 1128.36,-318 1128.36,-312 1128.36,-312 1128.36,-300 1128.36,-300 1128.36,-294 1134.36,-288 1140.36,-288 1140.36,-288 1200.36,-288 1200.36,-288 1206.36,-288 1212.36,-294 1212.36,-300 1212.36,-300 1212.36,-312 1212.36,-312 1212.36,-318 1206.36,-324 1200.36,-324"/>
<text text-anchor="middle" x="1170.36" y="-303.5" font-family="sans" font-size="10.00">build_bracken</text>
</g>
<!-- 32&#45;&gt;33 -->
<g id="edge49" class="edge">
<title>32&#45;&gt;33</title>
<path fill="none" stroke="grey" stroke-width="2" d="M1117.66,-359.7C1126.22,-351.14 1136.7,-340.66 1146.05,-331.3"/>
<polygon fill="grey" stroke="grey" stroke-width="2" points="1148.66,-333.65 1153.25,-324.1 1143.71,-328.7 1148.66,-333.65"/>
</g>
<!-- 32&#45;&gt;34 -->
<g id="edge51" class="edge">
<title>32&#45;&gt;34</title>
<path fill="none" stroke="grey" stroke-width="2" d="M1084.54,-359.7C1076.79,-351.22 1067.32,-340.86 1058.83,-331.58"/>
<polygon fill="grey" stroke="grey" stroke-width="2" points="1061.32,-329.12 1051.99,-324.1 1056.16,-333.85 1061.32,-329.12"/>
</g>
<!-- 33&#45;&gt;31 -->
<g id="edge47" class="edge">
<title>33&#45;&gt;31</title>
<path fill="none" stroke="grey" stroke-width="2" d="M1145.4,-287.88C1132.31,-278.89 1116.1,-267.76 1101.92,-258.03"/>
<polygon fill="grey" stroke="grey" stroke-width="2" points="1103.63,-254.96 1093.4,-252.19 1099.67,-260.73 1103.63,-254.96"/>
</g>
<!-- 34&#45;&gt;31 -->
<g id="edge48" class="edge">
<title>34&#45;&gt;31</title>
<path fill="none" stroke="grey" stroke-width="2" d="M1044.27,-287.7C1047.91,-279.73 1052.31,-270.1 1056.35,-261.26"/>
<polygon fill="grey" stroke="grey" stroke-width="2" points="1059.56,-262.65 1060.54,-252.1 1053.2,-259.74 1059.56,-262.65"/>
</g>
<!-- 35&#45;&gt;0 -->
<g id="edge10" class="edge">
<title>35&#45;&gt;0</title>
<path fill="none" stroke="grey" stroke-width="2" d="M416.74,-71.97C481.28,-57.76 570.42,-38.14 620.1,-27.2"/>
<polygon fill="grey" stroke="grey" stroke-width="2" points="621.06,-30.57 630.08,-25.01 619.56,-23.74 621.06,-30.57"/>
</g>
</g>
</svg>
