<?xml version="1.0" encoding="UTF-8" standalone="no"?>
<!DOCTYPE svg PUBLIC "-//W3C//DTD SVG 1.1//EN"
 "http://www.w3.org/Graphics/SVG/1.1/DTD/svg11.dtd">
<!-- Generated by graphviz version 2.43.0 (0)
 -->
<!-- Title: snakemake_dag Pages: 1 -->
<svg width="1219pt" height="620pt"
 viewBox="0.00 0.00 1219.35 620.00" xmlns="http://www.w3.org/2000/svg" xmlns:xlink="http://www.w3.org/1999/xlink">
<g id="graph0" class="graph" transform="scale(1 1) rotate(0) translate(4 616)">
<title>snakemake_dag</title>
<polygon fill="white" stroke="transparent" points="-4,4 -4,-616 1215.35,-616 1215.35,4 -4,4"/>
<!-- 0 -->
<g id="node1" class="node">
<title>0</title>
<path fill="none" stroke="#61d856" stroke-width="2" d="M623.35,-36C623.35,-36 593.35,-36 593.35,-36 587.35,-36 581.35,-30 581.35,-24 581.35,-24 581.35,-12 581.35,-12 581.35,-6 587.35,0 593.35,0 593.35,0 623.35,0 623.35,0 629.35,0 635.35,-6 635.35,-12 635.35,-12 635.35,-24 635.35,-24 635.35,-30 629.35,-36 623.35,-36"/>
<text text-anchor="middle" x="608.35" y="-15.5" font-family="sans" font-size="10.00">all</text>
</g>
<!-- 1 -->
<g id="node2" class="node">
<title>1</title>
<path fill="none" stroke="#56d8a9" stroke-width="2" d="M285.85,-396C285.85,-396 222.85,-396 222.85,-396 216.85,-396 210.85,-390 210.85,-384 210.85,-384 210.85,-372 210.85,-372 210.85,-366 216.85,-360 222.85,-360 222.85,-360 285.85,-360 285.85,-360 291.85,-360 297.85,-366 297.85,-372 297.85,-372 297.85,-384 297.85,-384 297.85,-390 291.85,-396 285.85,-396"/>
<text text-anchor="middle" x="254.35" y="-375.5" font-family="sans" font-size="10.00">multiqc_pass1</text>
</g>
<!-- 1&#45;&gt;0 -->
<g id="edge1" class="edge">
<title>1&#45;&gt;0</title>
<path fill="none" stroke="grey" stroke-width="2" d="M210.62,-372.64C150.67,-365.77 47.39,-350.39 21.35,-324 -7.06,-295.21 2.35,-275.45 2.35,-235 2.35,-235 2.35,-235 2.35,-161 2.35,-43.56 439.24,-23.18 571.11,-19.7"/>
<polygon fill="grey" stroke="grey" stroke-width="2" points="571.23,-23.2 581.14,-19.46 571.05,-16.2 571.23,-23.2"/>
</g>
<!-- 2 -->
<g id="node3" class="node">
<title>2</title>
<path fill="none" stroke="#d8a456" stroke-width="2" d="M283.85,-468C283.85,-468 224.85,-468 224.85,-468 218.85,-468 212.85,-462 212.85,-456 212.85,-456 212.85,-444 212.85,-444 212.85,-438 218.85,-432 224.85,-432 224.85,-432 283.85,-432 283.85,-432 289.85,-432 295.85,-438 295.85,-444 295.85,-444 295.85,-456 295.85,-456 295.85,-462 289.85,-468 283.85,-468"/>
<text text-anchor="middle" x="254.35" y="-453" font-family="sans" font-size="10.00">fastQC_pass1</text>
<text text-anchor="middle" x="254.35" y="-442" font-family="sans" font-size="10.00">read: R1</text>
</g>
<!-- 2&#45;&gt;1 -->
<g id="edge10" class="edge">
<title>2&#45;&gt;1</title>
<path fill="none" stroke="grey" stroke-width="2" d="M254.35,-431.7C254.35,-423.98 254.35,-414.71 254.35,-406.11"/>
<polygon fill="grey" stroke="grey" stroke-width="2" points="257.85,-406.1 254.35,-396.1 250.85,-406.1 257.85,-406.1"/>
</g>
<!-- 3 -->
<g id="node4" class="node">
<title>3</title>
<path fill="none" stroke="#d87556" stroke-width="2" d="M513.35,-540C513.35,-540 435.35,-540 435.35,-540 429.35,-540 423.35,-534 423.35,-528 423.35,-528 423.35,-516 423.35,-516 423.35,-510 429.35,-504 435.35,-504 435.35,-504 513.35,-504 513.35,-504 519.35,-504 525.35,-510 525.35,-516 525.35,-516 525.35,-528 525.35,-528 525.35,-534 519.35,-540 513.35,-540"/>
<text text-anchor="middle" x="474.35" y="-519.5" font-family="sans" font-size="10.00">remove_adapters</text>
</g>
<!-- 3&#45;&gt;2 -->
<g id="edge12" class="edge">
<title>3&#45;&gt;2</title>
<path fill="none" stroke="grey" stroke-width="2" d="M423.29,-505.45C391.72,-495.75 350.15,-482.83 305.61,-468.38"/>
<polygon fill="grey" stroke="grey" stroke-width="2" points="306.66,-465.04 296.07,-465.27 304.49,-471.7 306.66,-465.04"/>
</g>
<!-- 5 -->
<g id="node6" class="node">
<title>5</title>
<path fill="none" stroke="#d8a456" stroke-width="2" d="M384.85,-468C384.85,-468 325.85,-468 325.85,-468 319.85,-468 313.85,-462 313.85,-456 313.85,-456 313.85,-444 313.85,-444 313.85,-438 319.85,-432 325.85,-432 325.85,-432 384.85,-432 384.85,-432 390.85,-432 396.85,-438 396.85,-444 396.85,-444 396.85,-456 396.85,-456 396.85,-462 390.85,-468 384.85,-468"/>
<text text-anchor="middle" x="355.35" y="-453" font-family="sans" font-size="10.00">fastQC_pass1</text>
<text text-anchor="middle" x="355.35" y="-442" font-family="sans" font-size="10.00">read: R2</text>
</g>
<!-- 3&#45;&gt;5 -->
<g id="edge14" class="edge">
<title>3&#45;&gt;5</title>
<path fill="none" stroke="grey" stroke-width="2" d="M445.24,-503.88C429.68,-494.72 410.33,-483.34 393.58,-473.48"/>
<polygon fill="grey" stroke="grey" stroke-width="2" points="394.97,-470.24 384.57,-468.19 391.42,-476.28 394.97,-470.24"/>
</g>
<!-- 8 -->
<g id="node9" class="node">
<title>8</title>
<path fill="none" stroke="#9fd856" stroke-width="2" d="M620.35,-468C620.35,-468 564.35,-468 564.35,-468 558.35,-468 552.35,-462 552.35,-456 552.35,-456 552.35,-444 552.35,-444 552.35,-438 558.35,-432 564.35,-432 564.35,-432 620.35,-432 620.35,-432 626.35,-432 632.35,-438 632.35,-444 632.35,-444 632.35,-456 632.35,-456 632.35,-462 626.35,-468 620.35,-468"/>
<text text-anchor="middle" x="592.35" y="-447.5" font-family="sans" font-size="10.00">trim_forward</text>
</g>
<!-- 3&#45;&gt;8 -->
<g id="edge18" class="edge">
<title>3&#45;&gt;8</title>
<path fill="none" stroke="grey" stroke-width="2" d="M503.22,-503.88C518.65,-494.72 537.83,-483.34 554.45,-473.48"/>
<polygon fill="grey" stroke="grey" stroke-width="2" points="556.56,-476.3 563.38,-468.19 552.99,-470.28 556.56,-476.3"/>
</g>
<!-- 10 -->
<g id="node11" class="node">
<title>10</title>
<path fill="none" stroke="#d88556" stroke-width="2" d="M717.85,-468C717.85,-468 662.85,-468 662.85,-468 656.85,-468 650.85,-462 650.85,-456 650.85,-456 650.85,-444 650.85,-444 650.85,-438 656.85,-432 662.85,-432 662.85,-432 717.85,-432 717.85,-432 723.85,-432 729.85,-438 729.85,-444 729.85,-444 729.85,-456 729.85,-456 729.85,-462 723.85,-468 717.85,-468"/>
<text text-anchor="middle" x="690.35" y="-447.5" font-family="sans" font-size="10.00">trim_reverse</text>
</g>
<!-- 3&#45;&gt;10 -->
<g id="edge20" class="edge">
<title>3&#45;&gt;10</title>
<path fill="none" stroke="grey" stroke-width="2" d="M525.63,-505.11C556.53,-495.45 596.88,-482.68 641.27,-467.99"/>
<polygon fill="grey" stroke="grey" stroke-width="2" points="642.41,-471.29 650.8,-464.82 640.21,-464.65 642.41,-471.29"/>
</g>
<!-- 4 -->
<g id="node5" class="node">
<title>4</title>
<path fill="none" stroke="#5682d8" stroke-width="2" d="M535.35,-612C535.35,-612 413.35,-612 413.35,-612 407.35,-612 401.35,-606 401.35,-600 401.35,-600 401.35,-588 401.35,-588 401.35,-582 407.35,-576 413.35,-576 413.35,-576 535.35,-576 535.35,-576 541.35,-576 547.35,-582 547.35,-588 547.35,-588 547.35,-600 547.35,-600 547.35,-606 541.35,-612 535.35,-612"/>
<text text-anchor="middle" x="474.35" y="-597" font-family="sans" font-size="10.00">symlink_fastqs</text>
<text text-anchor="middle" x="474.35" y="-586" font-family="sans" font-size="10.00">sample: mock_community</text>
</g>
<!-- 4&#45;&gt;3 -->
<g id="edge13" class="edge">
<title>4&#45;&gt;3</title>
<path fill="none" stroke="grey" stroke-width="2" d="M474.35,-575.7C474.35,-567.98 474.35,-558.71 474.35,-550.11"/>
<polygon fill="grey" stroke="grey" stroke-width="2" points="477.85,-550.1 474.35,-540.1 470.85,-550.1 477.85,-550.1"/>
</g>
<!-- 5&#45;&gt;1 -->
<g id="edge11" class="edge">
<title>5&#45;&gt;1</title>
<path fill="none" stroke="grey" stroke-width="2" d="M330.64,-431.88C317.68,-422.89 301.62,-411.76 287.59,-402.03"/>
<polygon fill="grey" stroke="grey" stroke-width="2" points="289.37,-399.01 279.15,-396.19 285.38,-404.76 289.37,-399.01"/>
</g>
<!-- 6 -->
<g id="node7" class="node">
<title>6</title>
<path fill="none" stroke="#56d88a" stroke-width="2" d="M784.85,-324C784.85,-324 721.85,-324 721.85,-324 715.85,-324 709.85,-318 709.85,-312 709.85,-312 709.85,-300 709.85,-300 709.85,-294 715.85,-288 721.85,-288 721.85,-288 784.85,-288 784.85,-288 790.85,-288 796.85,-294 796.85,-300 796.85,-300 796.85,-312 796.85,-312 796.85,-318 790.85,-324 784.85,-324"/>
<text text-anchor="middle" x="753.35" y="-303.5" font-family="sans" font-size="10.00">multiqc_pass2</text>
</g>
<!-- 6&#45;&gt;0 -->
<g id="edge2" class="edge">
<title>6&#45;&gt;0</title>
<path fill="none" stroke="grey" stroke-width="2" d="M755.39,-287.78C759.37,-246.23 763.84,-138.96 714.35,-72 697.66,-49.41 668.63,-35.85 645.17,-28.1"/>
<polygon fill="grey" stroke="grey" stroke-width="2" points="646.09,-24.72 635.51,-25.13 644.03,-31.41 646.09,-24.72"/>
</g>
<!-- 7 -->
<g id="node8" class="node">
<title>7</title>
<path fill="none" stroke="#56c1d8" stroke-width="2" d="M675.85,-396C675.85,-396 616.85,-396 616.85,-396 610.85,-396 604.85,-390 604.85,-384 604.85,-384 604.85,-372 604.85,-372 604.85,-366 610.85,-360 616.85,-360 616.85,-360 675.85,-360 675.85,-360 681.85,-360 687.85,-366 687.85,-372 687.85,-372 687.85,-384 687.85,-384 687.85,-390 681.85,-396 675.85,-396"/>
<text text-anchor="middle" x="646.35" y="-381" font-family="sans" font-size="10.00">fastQC_pass2</text>
<text text-anchor="middle" x="646.35" y="-370" font-family="sans" font-size="10.00">read: R1</text>
</g>
<!-- 7&#45;&gt;6 -->
<g id="edge15" class="edge">
<title>7&#45;&gt;6</title>
<path fill="none" stroke="grey" stroke-width="2" d="M672.53,-359.88C686.39,-350.81 703.59,-339.55 718.56,-329.76"/>
<polygon fill="grey" stroke="grey" stroke-width="2" points="720.62,-332.59 727.08,-324.19 716.79,-326.74 720.62,-332.59"/>
</g>
<!-- 8&#45;&gt;7 -->
<g id="edge17" class="edge">
<title>8&#45;&gt;7</title>
<path fill="none" stroke="grey" stroke-width="2" d="M605.7,-431.7C612.11,-423.39 619.91,-413.28 626.96,-404.14"/>
<polygon fill="grey" stroke="grey" stroke-width="2" points="629.82,-406.16 633.16,-396.1 624.28,-401.88 629.82,-406.16"/>
</g>
<!-- 18 -->
<g id="node19" class="node">
<title>18</title>
<path fill="none" stroke="#afd856" stroke-width="2" d="M574.85,-396C574.85,-396 533.85,-396 533.85,-396 527.85,-396 521.85,-390 521.85,-384 521.85,-384 521.85,-372 521.85,-372 521.85,-366 527.85,-360 533.85,-360 533.85,-360 574.85,-360 574.85,-360 580.85,-360 586.85,-366 586.85,-372 586.85,-372 586.85,-384 586.85,-384 586.85,-390 580.85,-396 574.85,-396"/>
<text text-anchor="middle" x="554.35" y="-375.5" font-family="sans" font-size="10.00">host_filter</text>
</g>
<!-- 8&#45;&gt;18 -->
<g id="edge29" class="edge">
<title>8&#45;&gt;18</title>
<path fill="none" stroke="grey" stroke-width="2" d="M582.96,-431.7C578.59,-423.64 573.29,-413.89 568.46,-404.98"/>
<polygon fill="grey" stroke="grey" stroke-width="2" points="571.48,-403.22 563.64,-396.1 565.33,-406.56 571.48,-403.22"/>
</g>
<!-- 27 -->
<g id="node28" class="node">
<title>27</title>
<path fill="none" stroke="#bed856" stroke-width="2" d="M871.85,-396C871.85,-396 818.85,-396 818.85,-396 812.85,-396 806.85,-390 806.85,-384 806.85,-384 806.85,-372 806.85,-372 806.85,-366 812.85,-360 818.85,-360 818.85,-360 871.85,-360 871.85,-360 877.85,-360 883.85,-366 883.85,-372 883.85,-372 883.85,-384 883.85,-384 883.85,-390 877.85,-396 871.85,-396"/>
<text text-anchor="middle" x="845.35" y="-375.5" font-family="sans" font-size="10.00">bbmap_host</text>
</g>
<!-- 8&#45;&gt;27 -->
<g id="edge40" class="edge">
<title>8&#45;&gt;27</title>
<path fill="none" stroke="grey" stroke-width="2" d="M632.62,-434.65C635.56,-433.71 638.5,-432.82 641.35,-432 706.79,-413.16 727.29,-415.64 797.01,-395.91"/>
<polygon fill="grey" stroke="grey" stroke-width="2" points="798.06,-399.25 806.7,-393.11 796.12,-392.52 798.06,-399.25"/>
</g>
<!-- 9 -->
<g id="node10" class="node">
<title>9</title>
<path fill="none" stroke="#56c1d8" stroke-width="2" d="M776.85,-396C776.85,-396 717.85,-396 717.85,-396 711.85,-396 705.85,-390 705.85,-384 705.85,-384 705.85,-372 705.85,-372 705.85,-366 711.85,-360 717.85,-360 717.85,-360 776.85,-360 776.85,-360 782.85,-360 788.85,-366 788.85,-372 788.85,-372 788.85,-384 788.85,-384 788.85,-390 782.85,-396 776.85,-396"/>
<text text-anchor="middle" x="747.35" y="-381" font-family="sans" font-size="10.00">fastQC_pass2</text>
<text text-anchor="middle" x="747.35" y="-370" font-family="sans" font-size="10.00">read: R2</text>
</g>
<!-- 9&#45;&gt;6 -->
<g id="edge16" class="edge">
<title>9&#45;&gt;6</title>
<path fill="none" stroke="grey" stroke-width="2" d="M748.84,-359.7C749.5,-351.98 750.29,-342.71 751.03,-334.11"/>
<polygon fill="grey" stroke="grey" stroke-width="2" points="754.52,-334.37 751.89,-324.1 747.54,-333.77 754.52,-334.37"/>
</g>
<!-- 10&#45;&gt;9 -->
<g id="edge19" class="edge">
<title>10&#45;&gt;9</title>
<path fill="none" stroke="grey" stroke-width="2" d="M704.44,-431.7C711.28,-423.3 719.61,-413.07 727.11,-403.86"/>
<polygon fill="grey" stroke="grey" stroke-width="2" points="729.82,-406.07 733.42,-396.1 724.4,-401.65 729.82,-406.07"/>
</g>
<!-- 10&#45;&gt;18 -->
<g id="edge30" class="edge">
<title>10&#45;&gt;18</title>
<path fill="none" stroke="grey" stroke-width="2" d="M657.08,-431.88C638.75,-422.44 615.82,-410.64 596.28,-400.58"/>
<polygon fill="grey" stroke="grey" stroke-width="2" points="597.77,-397.41 587.28,-395.95 594.57,-403.64 597.77,-397.41"/>
</g>
<!-- 10&#45;&gt;27 -->
<g id="edge41" class="edge">
<title>10&#45;&gt;27</title>
<path fill="none" stroke="grey" stroke-width="2" d="M728.27,-431.88C749.36,-422.35 775.81,-410.41 798.22,-400.28"/>
<polygon fill="grey" stroke="grey" stroke-width="2" points="799.88,-403.37 807.56,-396.07 797,-396.99 799.88,-403.37"/>
</g>
<!-- 11 -->
<g id="node12" class="node">
<title>11</title>
<path fill="none" stroke="#56d8b9" stroke-width="2" d="M550.35,-180C550.35,-180 392.35,-180 392.35,-180 386.35,-180 380.35,-174 380.35,-168 380.35,-168 380.35,-156 380.35,-156 380.35,-150 386.35,-144 392.35,-144 392.35,-144 550.35,-144 550.35,-144 556.35,-144 562.35,-150 562.35,-156 562.35,-156 562.35,-168 562.35,-168 562.35,-174 556.35,-180 550.35,-180"/>
<text text-anchor="middle" x="471.35" y="-159.5" font-family="sans" font-size="10.00">aggregate_humann_outs_nonhost</text>
</g>
<!-- 11&#45;&gt;0 -->
<g id="edge3" class="edge">
<title>11&#45;&gt;0</title>
<path fill="none" stroke="grey" stroke-width="2" d="M562.45,-151.04C617.2,-142.97 679.44,-129.36 696.35,-108 706.28,-95.46 704.22,-85.93 696.35,-72 685.32,-52.47 663.89,-39.34 644.94,-31.03"/>
<polygon fill="grey" stroke="grey" stroke-width="2" points="646.19,-27.77 635.61,-27.23 643.55,-34.25 646.19,-27.77"/>
</g>
<!-- 20 -->
<g id="node21" class="node">
<title>20</title>
<path fill="none" stroke="#d8d356" stroke-width="2" d="M383.35,-108C383.35,-108 329.35,-108 329.35,-108 323.35,-108 317.35,-102 317.35,-96 317.35,-96 317.35,-84 317.35,-84 317.35,-78 323.35,-72 329.35,-72 329.35,-72 383.35,-72 383.35,-72 389.35,-72 395.35,-78 395.35,-84 395.35,-84 395.35,-96 395.35,-96 395.35,-102 389.35,-108 383.35,-108"/>
<text text-anchor="middle" x="356.35" y="-87.5" font-family="sans" font-size="10.00">taxa_barplot</text>
</g>
<!-- 11&#45;&gt;20 -->
<g id="edge31" class="edge">
<title>11&#45;&gt;20</title>
<path fill="none" stroke="grey" stroke-width="2" d="M443.22,-143.88C428.18,-134.72 409.49,-123.34 393.29,-113.48"/>
<polygon fill="grey" stroke="grey" stroke-width="2" points="394.95,-110.4 384.59,-108.19 391.31,-116.38 394.95,-110.4"/>
</g>
<!-- 21 -->
<g id="node22" class="node">
<title>21</title>
<path fill="none" stroke="#8fd856" stroke-width="2" d="M499.35,-108C499.35,-108 425.35,-108 425.35,-108 419.35,-108 413.35,-102 413.35,-96 413.35,-96 413.35,-84 413.35,-84 413.35,-78 419.35,-72 425.35,-72 425.35,-72 499.35,-72 499.35,-72 505.35,-72 511.35,-78 511.35,-84 511.35,-84 511.35,-96 511.35,-96 511.35,-102 505.35,-108 499.35,-108"/>
<text text-anchor="middle" x="462.35" y="-87.5" font-family="sans" font-size="10.00">func_barplot_rxn</text>
</g>
<!-- 11&#45;&gt;21 -->
<g id="edge32" class="edge">
<title>11&#45;&gt;21</title>
<path fill="none" stroke="grey" stroke-width="2" d="M469.13,-143.7C468.14,-135.98 466.94,-126.71 465.84,-118.11"/>
<polygon fill="grey" stroke="grey" stroke-width="2" points="469.3,-117.58 464.55,-108.1 462.36,-118.47 469.3,-117.58"/>
</g>
<!-- 34 -->
<g id="node35" class="node">
<title>34</title>
<path fill="none" stroke="#ced856" stroke-width="2" d="M675.35,-108C675.35,-108 541.35,-108 541.35,-108 535.35,-108 529.35,-102 529.35,-96 529.35,-96 529.35,-84 529.35,-84 529.35,-78 535.35,-72 541.35,-72 541.35,-72 675.35,-72 675.35,-72 681.35,-72 687.35,-78 687.35,-84 687.35,-84 687.35,-96 687.35,-96 687.35,-102 681.35,-108 675.35,-108"/>
<text text-anchor="middle" x="608.35" y="-87.5" font-family="sans" font-size="10.00">calc_gut_metabolic_modules</text>
</g>
<!-- 11&#45;&gt;34 -->
<g id="edge50" class="edge">
<title>11&#45;&gt;34</title>
<path fill="none" stroke="grey" stroke-width="2" d="M504.87,-143.88C523.19,-134.51 546.09,-122.81 565.68,-112.8"/>
<polygon fill="grey" stroke="grey" stroke-width="2" points="567.4,-115.86 574.71,-108.19 564.21,-109.62 567.4,-115.86"/>
</g>
<!-- 12 -->
<g id="node13" class="node">
<title>12</title>
<path fill="none" stroke="#56d89a" stroke-width="2" d="M397.85,-252C397.85,-252 290.85,-252 290.85,-252 284.85,-252 278.85,-246 278.85,-240 278.85,-240 278.85,-228 278.85,-228 278.85,-222 284.85,-216 290.85,-216 290.85,-216 397.85,-216 397.85,-216 403.85,-216 409.85,-222 409.85,-228 409.85,-228 409.85,-240 409.85,-240 409.85,-246 403.85,-252 397.85,-252"/>
<text text-anchor="middle" x="344.35" y="-231.5" font-family="sans" font-size="10.00">get_utility_mapping_db</text>
</g>
<!-- 12&#45;&gt;11 -->
<g id="edge21" class="edge">
<title>12&#45;&gt;11</title>
<path fill="none" stroke="grey" stroke-width="2" d="M375.42,-215.88C392.18,-206.64 413.06,-195.13 431.05,-185.21"/>
<polygon fill="grey" stroke="grey" stroke-width="2" points="433.1,-188.08 440.17,-180.19 429.72,-181.95 433.1,-188.08"/>
</g>
<!-- 13 -->
<g id="node14" class="node">
<title>13</title>
<path fill="none" stroke="#80d856" stroke-width="2" d="M538.35,-252C538.35,-252 440.35,-252 440.35,-252 434.35,-252 428.35,-246 428.35,-240 428.35,-240 428.35,-228 428.35,-228 428.35,-222 434.35,-216 440.35,-216 440.35,-216 538.35,-216 538.35,-216 544.35,-216 550.35,-222 550.35,-228 550.35,-228 550.35,-240 550.35,-240 550.35,-246 544.35,-252 538.35,-252"/>
<text text-anchor="middle" x="489.35" y="-231.5" font-family="sans" font-size="10.00">run_humann_nonhost</text>
</g>
<!-- 13&#45;&gt;11 -->
<g id="edge22" class="edge">
<title>13&#45;&gt;11</title>
<path fill="none" stroke="grey" stroke-width="2" d="M484.9,-215.7C482.9,-207.9 480.48,-198.51 478.25,-189.83"/>
<polygon fill="grey" stroke="grey" stroke-width="2" points="481.63,-188.92 475.75,-180.1 474.85,-190.66 481.63,-188.92"/>
</g>
<!-- 14 -->
<g id="node15" class="node">
<title>14</title>
<path fill="none" stroke="#56d87b" stroke-width="2" d="M536.85,-324C536.85,-324 459.85,-324 459.85,-324 453.85,-324 447.85,-318 447.85,-312 447.85,-312 447.85,-300 447.85,-300 447.85,-294 453.85,-288 459.85,-288 459.85,-288 536.85,-288 536.85,-288 542.85,-288 548.85,-294 548.85,-300 548.85,-300 548.85,-312 548.85,-312 548.85,-318 542.85,-324 536.85,-324"/>
<text text-anchor="middle" x="498.35" y="-303.5" font-family="sans" font-size="10.00">setup_metaphlan</text>
</g>
<!-- 14&#45;&gt;13 -->
<g id="edge23" class="edge">
<title>14&#45;&gt;13</title>
<path fill="none" stroke="grey" stroke-width="2" d="M496.13,-287.7C495.14,-279.98 493.94,-270.71 492.84,-262.11"/>
<polygon fill="grey" stroke="grey" stroke-width="2" points="496.3,-261.58 491.55,-252.1 489.36,-262.47 496.3,-261.58"/>
</g>
<!-- 15 -->
<g id="node16" class="node">
<title>15</title>
<path fill="none" stroke="#d8b456" stroke-width="2" d="M262.35,-324C262.35,-324 122.35,-324 122.35,-324 116.35,-324 110.35,-318 110.35,-312 110.35,-312 110.35,-300 110.35,-300 110.35,-294 116.35,-288 122.35,-288 122.35,-288 262.35,-288 262.35,-288 268.35,-288 274.35,-294 274.35,-300 274.35,-300 274.35,-312 274.35,-312 274.35,-318 268.35,-324 262.35,-324"/>
<text text-anchor="middle" x="192.35" y="-303.5" font-family="sans" font-size="10.00">get_biobakery_chocophlan_db</text>
</g>
<!-- 15&#45;&gt;13 -->
<g id="edge24" class="edge">
<title>15&#45;&gt;13</title>
<path fill="none" stroke="grey" stroke-width="2" d="M265.4,-287.96C309.67,-277.61 367.28,-264.1 418.35,-252 418.45,-251.98 418.55,-251.95 418.65,-251.93"/>
<polygon fill="grey" stroke="grey" stroke-width="2" points="419.25,-255.39 428.17,-249.67 417.63,-248.57 419.25,-255.39"/>
</g>
<!-- 16 -->
<g id="node17" class="node">
<title>16</title>
<path fill="none" stroke="#d85656" stroke-width="2" d="M417.85,-324C417.85,-324 304.85,-324 304.85,-324 298.85,-324 292.85,-318 292.85,-312 292.85,-312 292.85,-300 292.85,-300 292.85,-294 298.85,-288 304.85,-288 304.85,-288 417.85,-288 417.85,-288 423.85,-288 429.85,-294 429.85,-300 429.85,-300 429.85,-312 429.85,-312 429.85,-318 423.85,-324 417.85,-324"/>
<text text-anchor="middle" x="361.35" y="-303.5" font-family="sans" font-size="10.00">get_biobakery_uniref_db</text>
</g>
<!-- 16&#45;&gt;13 -->
<g id="edge25" class="edge">
<title>16&#45;&gt;13</title>
<path fill="none" stroke="grey" stroke-width="2" d="M392.66,-287.88C409.56,-278.64 430.6,-267.13 448.74,-257.21"/>
<polygon fill="grey" stroke="grey" stroke-width="2" points="450.83,-260.06 457.92,-252.19 447.47,-253.92 450.83,-260.06"/>
</g>
<!-- 17 -->
<g id="node18" class="node">
<title>17</title>
<path fill="none" stroke="#56d0d8" stroke-width="2" d="M679.85,-324C679.85,-324 578.85,-324 578.85,-324 572.85,-324 566.85,-318 566.85,-312 566.85,-312 566.85,-300 566.85,-300 566.85,-294 572.85,-288 578.85,-288 578.85,-288 679.85,-288 679.85,-288 685.85,-288 691.85,-294 691.85,-300 691.85,-300 691.85,-312 691.85,-312 691.85,-318 685.85,-324 679.85,-324"/>
<text text-anchor="middle" x="629.35" y="-303.5" font-family="sans" font-size="10.00">concat_nonhost_reads</text>
</g>
<!-- 17&#45;&gt;13 -->
<g id="edge26" class="edge">
<title>17&#45;&gt;13</title>
<path fill="none" stroke="grey" stroke-width="2" d="M595.1,-287.88C576.29,-278.47 552.77,-266.71 532.69,-256.67"/>
<polygon fill="grey" stroke="grey" stroke-width="2" points="534.24,-253.53 523.73,-252.19 531.11,-259.79 534.24,-253.53"/>
</g>
<!-- 18&#45;&gt;17 -->
<g id="edge27" class="edge">
<title>18&#45;&gt;17</title>
<path fill="none" stroke="grey" stroke-width="2" d="M572.89,-359.7C582.16,-351.05 593.51,-340.45 603.61,-331.03"/>
<polygon fill="grey" stroke="grey" stroke-width="2" points="606.1,-333.49 611.03,-324.1 601.33,-328.37 606.1,-333.49"/>
</g>
<!-- 23 -->
<g id="node24" class="node">
<title>23</title>
<path fill="none" stroke="#56a2d8" stroke-width="2" d="M80.35,-324C80.35,-324 42.35,-324 42.35,-324 36.35,-324 30.35,-318 30.35,-312 30.35,-312 30.35,-300 30.35,-300 30.35,-294 36.35,-288 42.35,-288 42.35,-288 80.35,-288 80.35,-288 86.35,-288 92.35,-294 92.35,-300 92.35,-300 92.35,-312 92.35,-312 92.35,-318 86.35,-324 80.35,-324"/>
<text text-anchor="middle" x="61.35" y="-303.5" font-family="sans" font-size="10.00">nonpareil</text>
</g>
<!-- 18&#45;&gt;23 -->
<g id="edge34" class="edge">
<title>18&#45;&gt;23</title>
<path fill="none" stroke="grey" stroke-width="2" d="M521.59,-374.39C434.62,-367.27 198.54,-346.67 102.43,-323.75"/>
<polygon fill="grey" stroke="grey" stroke-width="2" points="103.05,-320.29 92.5,-321.23 101.33,-327.08 103.05,-320.29"/>
</g>
<!-- 33 -->
<g id="node34" class="node">
<title>33</title>
<path fill="none" stroke="#d89556" stroke-width="2" d="M1058.85,-324C1058.85,-324 1011.85,-324 1011.85,-324 1005.85,-324 999.85,-318 999.85,-312 999.85,-312 999.85,-300 999.85,-300 999.85,-294 1005.85,-288 1011.85,-288 1011.85,-288 1058.85,-288 1058.85,-288 1064.85,-288 1070.85,-294 1070.85,-300 1070.85,-300 1070.85,-312 1070.85,-312 1070.85,-318 1064.85,-324 1058.85,-324"/>
<text text-anchor="middle" x="1035.35" y="-303.5" font-family="sans" font-size="10.00">run_kraken</text>
</g>
<!-- 18&#45;&gt;33 -->
<g id="edge48" class="edge">
<title>18&#45;&gt;33</title>
<path fill="none" stroke="grey" stroke-width="2" d="M587.19,-362.42C589.92,-361.5 592.66,-360.68 595.35,-360 749.56,-321.13 794.11,-347.8 951.35,-324 963.76,-322.12 977.12,-319.63 989.45,-317.14"/>
<polygon fill="grey" stroke="grey" stroke-width="2" points="990.43,-320.51 999.52,-315.06 989.02,-313.66 990.43,-320.51"/>
</g>
<!-- 19 -->
<g id="node20" class="node">
<title>19</title>
<path fill="none" stroke="#d86656" stroke-width="2" d="M521.85,-468C521.85,-468 426.85,-468 426.85,-468 420.85,-468 414.85,-462 414.85,-456 414.85,-456 414.85,-444 414.85,-444 414.85,-438 420.85,-432 426.85,-432 426.85,-432 521.85,-432 521.85,-432 527.85,-432 533.85,-438 533.85,-444 533.85,-444 533.85,-456 533.85,-456 533.85,-462 527.85,-468 521.85,-468"/>
<text text-anchor="middle" x="474.35" y="-447.5" font-family="sans" font-size="10.00">download_hostile_db</text>
</g>
<!-- 19&#45;&gt;18 -->
<g id="edge28" class="edge">
<title>19&#45;&gt;18</title>
<path fill="none" stroke="grey" stroke-width="2" d="M494.13,-431.7C504.11,-422.97 516.36,-412.24 527.21,-402.75"/>
<polygon fill="grey" stroke="grey" stroke-width="2" points="529.58,-405.32 534.8,-396.1 524.97,-400.06 529.58,-405.32"/>
</g>
<!-- 20&#45;&gt;0 -->
<g id="edge4" class="edge">
<title>20&#45;&gt;0</title>
<path fill="none" stroke="grey" stroke-width="2" d="M395.55,-74.81C398.52,-73.83 401.48,-72.88 404.35,-72 462.09,-54.31 530.15,-37.41 571.24,-27.62"/>
<polygon fill="grey" stroke="grey" stroke-width="2" points="572.16,-31 581.08,-25.29 570.55,-24.19 572.16,-31"/>
</g>
<!-- 21&#45;&gt;0 -->
<g id="edge5" class="edge">
<title>21&#45;&gt;0</title>
<path fill="none" stroke="grey" stroke-width="2" d="M498.07,-71.88C520.52,-61.11 549.41,-47.26 571.99,-36.43"/>
<polygon fill="grey" stroke="grey" stroke-width="2" points="573.74,-39.48 581.24,-32 570.71,-33.16 573.74,-39.48"/>
</g>
<!-- 22 -->
<g id="node23" class="node">
<title>22</title>
<path fill="none" stroke="#70d856" stroke-width="2" d="M222.35,-180C222.35,-180 146.35,-180 146.35,-180 140.35,-180 134.35,-174 134.35,-168 134.35,-168 134.35,-156 134.35,-156 134.35,-150 140.35,-144 146.35,-144 146.35,-144 222.35,-144 222.35,-144 228.35,-144 234.35,-150 234.35,-156 234.35,-156 234.35,-168 234.35,-168 234.35,-174 228.35,-180 222.35,-180"/>
<text text-anchor="middle" x="184.35" y="-159.5" font-family="sans" font-size="10.00">nonpareil_curves</text>
</g>
<!-- 22&#45;&gt;0 -->
<g id="edge6" class="edge">
<title>22&#45;&gt;0</title>
<path fill="none" stroke="grey" stroke-width="2" d="M202.47,-143.9C225.3,-123.39 266.59,-89.59 308.35,-72 397.6,-34.4 512.65,-23.47 570.94,-20.3"/>
<polygon fill="grey" stroke="grey" stroke-width="2" points="571.33,-23.78 581.14,-19.79 570.98,-16.79 571.33,-23.78"/>
</g>
<!-- 23&#45;&gt;22 -->
<g id="edge33" class="edge">
<title>23&#45;&gt;22</title>
<path fill="none" stroke="grey" stroke-width="2" d="M76.19,-287.87C97.8,-262.92 138.05,-216.45 162.89,-187.77"/>
<polygon fill="grey" stroke="grey" stroke-width="2" points="165.56,-190.04 169.46,-180.19 160.27,-185.46 165.56,-190.04"/>
</g>
<!-- 24 -->
<g id="node25" class="node">
<title>24</title>
<path fill="none" stroke="#5673d8" stroke-width="2" d="M931.35,-252C931.35,-252 817.35,-252 817.35,-252 811.35,-252 805.35,-246 805.35,-240 805.35,-240 805.35,-228 805.35,-228 805.35,-222 811.35,-216 817.35,-216 817.35,-216 931.35,-216 931.35,-216 937.35,-216 943.35,-222 943.35,-228 943.35,-228 943.35,-240 943.35,-240 943.35,-246 937.35,-252 931.35,-252"/>
<text text-anchor="middle" x="874.35" y="-231.5" font-family="sans" font-size="10.00">generate_feature_counts</text>
</g>
<!-- 24&#45;&gt;0 -->
<g id="edge7" class="edge">
<title>24&#45;&gt;0</title>
<path fill="none" stroke="grey" stroke-width="2" d="M867.56,-215.95C853.67,-183.25 818.93,-111.46 767.35,-72 731.33,-44.44 680.22,-30.8 645.76,-24.33"/>
<polygon fill="grey" stroke="grey" stroke-width="2" points="646.09,-20.84 635.64,-22.55 644.88,-27.73 646.09,-20.84"/>
</g>
<!-- 25 -->
<g id="node26" class="node">
<title>25</title>
<path fill="none" stroke="#56d8c9" stroke-width="2" d="M949.35,-540C949.35,-540 867.35,-540 867.35,-540 861.35,-540 855.35,-534 855.35,-528 855.35,-528 855.35,-516 855.35,-516 855.35,-510 861.35,-504 867.35,-504 867.35,-504 949.35,-504 949.35,-504 955.35,-504 961.35,-510 961.35,-516 961.35,-516 961.35,-528 961.35,-528 961.35,-534 955.35,-540 949.35,-540"/>
<text text-anchor="middle" x="908.35" y="-519.5" font-family="sans" font-size="10.00">pull_host_genome</text>
</g>
<!-- 25&#45;&gt;24 -->
<g id="edge35" class="edge">
<title>25&#45;&gt;24</title>
<path fill="none" stroke="grey" stroke-width="2" d="M927.83,-503.92C937.17,-494.4 947.4,-481.72 952.35,-468 965.38,-431.9 1002.04,-383.61 951.35,-288 944.75,-275.54 933.75,-265.43 922.11,-257.51"/>
<polygon fill="grey" stroke="grey" stroke-width="2" points="923.9,-254.5 913.57,-252.13 920.17,-260.43 923.9,-254.5"/>
</g>
<!-- 28 -->
<g id="node29" class="node">
<title>28</title>
<path fill="none" stroke="#5692d8" stroke-width="2" d="M931.35,-468C931.35,-468 759.35,-468 759.35,-468 753.35,-468 747.35,-462 747.35,-456 747.35,-456 747.35,-444 747.35,-444 747.35,-438 753.35,-432 759.35,-432 759.35,-432 931.35,-432 931.35,-432 937.35,-432 943.35,-438 943.35,-444 943.35,-444 943.35,-456 943.35,-456 943.35,-462 937.35,-468 931.35,-468"/>
<text text-anchor="middle" x="845.35" y="-447.5" font-family="sans" font-size="10.00">build_human_genome_index_bbmap</text>
</g>
<!-- 25&#45;&gt;28 -->
<g id="edge42" class="edge">
<title>25&#45;&gt;28</title>
<path fill="none" stroke="grey" stroke-width="2" d="M892.78,-503.7C885.15,-495.22 875.83,-484.86 867.48,-475.58"/>
<polygon fill="grey" stroke="grey" stroke-width="2" points="870.04,-473.2 860.75,-468.1 864.83,-477.88 870.04,-473.2"/>
</g>
<!-- 26 -->
<g id="node27" class="node">
<title>26</title>
<path fill="none" stroke="#56d85b" stroke-width="2" d="M930.85,-324C930.85,-324 865.85,-324 865.85,-324 859.85,-324 853.85,-318 853.85,-312 853.85,-312 853.85,-300 853.85,-300 853.85,-294 859.85,-288 865.85,-288 865.85,-288 930.85,-288 930.85,-288 936.85,-288 942.85,-294 942.85,-300 942.85,-300 942.85,-312 942.85,-312 942.85,-318 936.85,-324 930.85,-324"/>
<text text-anchor="middle" x="898.35" y="-303.5" font-family="sans" font-size="10.00">validate_bams</text>
</g>
<!-- 26&#45;&gt;24 -->
<g id="edge36" class="edge">
<title>26&#45;&gt;24</title>
<path fill="none" stroke="grey" stroke-width="2" d="M892.42,-287.7C889.75,-279.9 886.53,-270.51 883.55,-261.83"/>
<polygon fill="grey" stroke="grey" stroke-width="2" points="886.77,-260.43 880.22,-252.1 880.15,-262.7 886.77,-260.43"/>
</g>
<!-- 27&#45;&gt;24 -->
<g id="edge37" class="edge">
<title>27&#45;&gt;24</title>
<path fill="none" stroke="grey" stroke-width="2" d="M842.51,-359.94C840.1,-341.78 837.94,-312.36 844.35,-288 846.84,-278.54 851.45,-268.99 856.33,-260.66"/>
<polygon fill="grey" stroke="grey" stroke-width="2" points="859.31,-262.49 861.63,-252.15 853.37,-258.79 859.31,-262.49"/>
</g>
<!-- 27&#45;&gt;26 -->
<g id="edge38" class="edge">
<title>27&#45;&gt;26</title>
<path fill="none" stroke="grey" stroke-width="2" d="M858.45,-359.7C864.74,-351.39 872.4,-341.28 879.32,-332.14"/>
<polygon fill="grey" stroke="grey" stroke-width="2" points="882.16,-334.19 885.4,-324.1 876.57,-329.96 882.16,-334.19"/>
</g>
<!-- 28&#45;&gt;27 -->
<g id="edge39" class="edge">
<title>28&#45;&gt;27</title>
<path fill="none" stroke="grey" stroke-width="2" d="M845.35,-431.7C845.35,-423.98 845.35,-414.71 845.35,-406.11"/>
<polygon fill="grey" stroke="grey" stroke-width="2" points="848.85,-406.1 845.35,-396.1 841.85,-406.1 848.85,-406.1"/>
</g>
<!-- 29 -->
<g id="node30" class="node">
<title>29</title>
<path fill="none" stroke="#5663d8" stroke-width="2" d="M1024.35,-180C1024.35,-180 938.35,-180 938.35,-180 932.35,-180 926.35,-174 926.35,-168 926.35,-168 926.35,-156 926.35,-156 926.35,-150 932.35,-144 938.35,-144 938.35,-144 1024.35,-144 1024.35,-144 1030.35,-144 1036.35,-150 1036.35,-156 1036.35,-156 1036.35,-168 1036.35,-168 1036.35,-174 1030.35,-180 1024.35,-180"/>
<text text-anchor="middle" x="981.35" y="-159.5" font-family="sans" font-size="10.00">aggregate_bracken</text>
</g>
<!-- 29&#45;&gt;0 -->
<g id="edge8" class="edge">
<title>29&#45;&gt;0</title>
<path fill="none" stroke="grey" stroke-width="2" d="M962.9,-143.77C940.11,-123.46 899.31,-90.17 858.35,-72 786.98,-40.33 695.6,-27.16 645.44,-22.02"/>
<polygon fill="grey" stroke="grey" stroke-width="2" points="645.68,-18.52 635.38,-21.04 645,-25.49 645.68,-18.52"/>
</g>
<!-- 30 -->
<g id="node31" class="node">
<title>30</title>
<path fill="none" stroke="#56d86b" stroke-width="2" d="M1093.35,-252C1093.35,-252 1041.35,-252 1041.35,-252 1035.35,-252 1029.35,-246 1029.35,-240 1029.35,-240 1029.35,-228 1029.35,-228 1029.35,-222 1035.35,-216 1041.35,-216 1041.35,-216 1093.35,-216 1093.35,-216 1099.35,-216 1105.35,-222 1105.35,-228 1105.35,-228 1105.35,-240 1105.35,-240 1105.35,-246 1099.35,-252 1093.35,-252"/>
<text text-anchor="middle" x="1067.35" y="-231.5" font-family="sans" font-size="10.00">run_bracken</text>
</g>
<!-- 30&#45;&gt;29 -->
<g id="edge43" class="edge">
<title>30&#45;&gt;29</title>
<path fill="none" stroke="grey" stroke-width="2" d="M1046.09,-215.7C1035.26,-206.88 1021.93,-196.03 1010.19,-186.47"/>
<polygon fill="grey" stroke="grey" stroke-width="2" points="1012.33,-183.7 1002.37,-180.1 1007.91,-189.13 1012.33,-183.7"/>
</g>
<!-- 31 -->
<g id="node32" class="node">
<title>31</title>
<path fill="none" stroke="#56b1d8" stroke-width="2" d="M1131.35,-396C1131.35,-396 1067.35,-396 1067.35,-396 1061.35,-396 1055.35,-390 1055.35,-384 1055.35,-384 1055.35,-372 1055.35,-372 1055.35,-366 1061.35,-360 1067.35,-360 1067.35,-360 1131.35,-360 1131.35,-360 1137.35,-360 1143.35,-366 1143.35,-372 1143.35,-372 1143.35,-384 1143.35,-384 1143.35,-390 1137.35,-396 1131.35,-396"/>
<text text-anchor="middle" x="1099.35" y="-375.5" font-family="sans" font-size="10.00">get_kraken_db</text>
</g>
<!-- 31&#45;&gt;30 -->
<g id="edge44" class="edge">
<title>31&#45;&gt;30</title>
<path fill="none" stroke="grey" stroke-width="2" d="M1095.86,-359.9C1092.16,-341.96 1086.07,-312.95 1080.35,-288 1078.42,-279.56 1076.21,-270.39 1074.16,-262.09"/>
<polygon fill="grey" stroke="grey" stroke-width="2" points="1077.5,-261.02 1071.7,-252.15 1070.71,-262.7 1077.5,-261.02"/>
</g>
<!-- 32 -->
<g id="node33" class="node">
<title>32</title>
<path fill="none" stroke="#d8c356" stroke-width="2" d="M1199.35,-324C1199.35,-324 1139.35,-324 1139.35,-324 1133.35,-324 1127.35,-318 1127.35,-312 1127.35,-312 1127.35,-300 1127.35,-300 1127.35,-294 1133.35,-288 1139.35,-288 1139.35,-288 1199.35,-288 1199.35,-288 1205.35,-288 1211.35,-294 1211.35,-300 1211.35,-300 1211.35,-312 1211.35,-312 1211.35,-318 1205.35,-324 1199.35,-324"/>
<text text-anchor="middle" x="1169.35" y="-303.5" font-family="sans" font-size="10.00">build_bracken</text>
</g>
<!-- 31&#45;&gt;32 -->
<g id="edge47" class="edge">
<title>31&#45;&gt;32</title>
<path fill="none" stroke="grey" stroke-width="2" d="M1116.66,-359.7C1125.22,-351.14 1135.7,-340.66 1145.05,-331.3"/>
<polygon fill="grey" stroke="grey" stroke-width="2" points="1147.65,-333.65 1152.25,-324.1 1142.7,-328.7 1147.65,-333.65"/>
</g>
<!-- 31&#45;&gt;33 -->
<g id="edge49" class="edge">
<title>31&#45;&gt;33</title>
<path fill="none" stroke="grey" stroke-width="2" d="M1083.53,-359.7C1075.78,-351.22 1066.31,-340.86 1057.83,-331.58"/>
<polygon fill="grey" stroke="grey" stroke-width="2" points="1060.32,-329.12 1050.99,-324.1 1055.16,-333.85 1060.32,-329.12"/>
</g>
<!-- 32&#45;&gt;30 -->
<g id="edge45" class="edge">
<title>32&#45;&gt;30</title>
<path fill="none" stroke="grey" stroke-width="2" d="M1144.4,-287.88C1131.31,-278.89 1115.09,-267.76 1100.92,-258.03"/>
<polygon fill="grey" stroke="grey" stroke-width="2" points="1102.63,-254.96 1092.4,-252.19 1098.66,-260.73 1102.63,-254.96"/>
</g>
<!-- 33&#45;&gt;30 -->
<g id="edge46" class="edge">
<title>33&#45;&gt;30</title>
<path fill="none" stroke="grey" stroke-width="2" d="M1043.26,-287.7C1046.9,-279.73 1051.31,-270.1 1055.35,-261.26"/>
<polygon fill="grey" stroke="grey" stroke-width="2" points="1058.56,-262.65 1059.53,-252.1 1052.19,-259.74 1058.56,-262.65"/>
</g>
<!-- 34&#45;&gt;0 -->
<g id="edge9" class="edge">
<title>34&#45;&gt;0</title>
<path fill="none" stroke="grey" stroke-width="2" d="M608.35,-71.7C608.35,-63.98 608.35,-54.71 608.35,-46.11"/>
<polygon fill="grey" stroke="grey" stroke-width="2" points="611.85,-46.1 608.35,-36.1 604.85,-46.1 611.85,-46.1"/>
</g>
</g>
</svg>
