<?xml version="1.0" encoding="UTF-8" standalone="no"?>
<!DOCTYPE svg PUBLIC "-//W3C//DTD SVG 1.1//EN"
 "http://www.w3.org/Graphics/SVG/1.1/DTD/svg11.dtd">
<!-- Generated by graphviz version 2.43.0 (0)
 -->
<!-- Title: snakemake_dag Pages: 1 -->
<svg width="1432pt" height="620pt"
 viewBox="0.00 0.00 1432.48 620.00" xmlns="http://www.w3.org/2000/svg" xmlns:xlink="http://www.w3.org/1999/xlink">
<g id="graph0" class="graph" transform="scale(1 1) rotate(0) translate(4 616)">
<title>snakemake_dag</title>
<polygon fill="white" stroke="transparent" points="-4,4 -4,-616 1428.48,-616 1428.48,4 -4,4"/>
<!-- 0 -->
<g id="node1" class="node">
<title>0</title>
<path fill="none" stroke="#d87d56" stroke-width="2" d="M741.98,-36C741.98,-36 711.98,-36 711.98,-36 705.98,-36 699.98,-30 699.98,-24 699.98,-24 699.98,-12 699.98,-12 699.98,-6 705.98,0 711.98,0 711.98,0 741.98,0 741.98,0 747.98,0 753.98,-6 753.98,-12 753.98,-12 753.98,-24 753.98,-24 753.98,-30 747.98,-36 741.98,-36"/>
<text text-anchor="middle" x="726.98" y="-15.5" font-family="sans" font-size="10.00">all</text>
</g>
<!-- 1 -->
<g id="node2" class="node">
<title>1</title>
<path fill="none" stroke="#d86656" stroke-width="2" d="M1316.48,-396C1316.48,-396 1253.48,-396 1253.48,-396 1247.48,-396 1241.48,-390 1241.48,-384 1241.48,-384 1241.48,-372 1241.48,-372 1241.48,-366 1247.48,-360 1253.48,-360 1253.48,-360 1316.48,-360 1316.48,-360 1322.48,-360 1328.48,-366 1328.48,-372 1328.48,-372 1328.48,-384 1328.48,-384 1328.48,-390 1322.48,-396 1316.48,-396"/>
<text text-anchor="middle" x="1284.98" y="-375.5" font-family="sans" font-size="10.00">multiqc_pass1</text>
</g>
<!-- 1&#45;&gt;0 -->
<g id="edge1" class="edge">
<title>1&#45;&gt;0</title>
<path fill="none" stroke="grey" stroke-width="2" d="M1270.98,-359.82C1251.61,-334.26 1218.98,-283.93 1218.98,-235 1218.98,-235 1218.98,-235 1218.98,-161 1218.98,-66.38 878.84,-30.94 764.19,-21.68"/>
<polygon fill="grey" stroke="grey" stroke-width="2" points="764.38,-18.18 754.13,-20.89 763.83,-25.16 764.38,-18.18"/>
</g>
<!-- 2 -->
<g id="node3" class="node">
<title>2</title>
<path fill="none" stroke="#56d8a2" stroke-width="2" d="M1311.48,-468C1311.48,-468 1252.48,-468 1252.48,-468 1246.48,-468 1240.48,-462 1240.48,-456 1240.48,-456 1240.48,-444 1240.48,-444 1240.48,-438 1246.48,-432 1252.48,-432 1252.48,-432 1311.48,-432 1311.48,-432 1317.48,-432 1323.48,-438 1323.48,-444 1323.48,-444 1323.48,-456 1323.48,-456 1323.48,-462 1317.48,-468 1311.48,-468"/>
<text text-anchor="middle" x="1281.98" y="-453" font-family="sans" font-size="10.00">fastQC_pass1</text>
<text text-anchor="middle" x="1281.98" y="-442" font-family="sans" font-size="10.00">read: R1</text>
</g>
<!-- 2&#45;&gt;1 -->
<g id="edge13" class="edge">
<title>2&#45;&gt;1</title>
<path fill="none" stroke="grey" stroke-width="2" d="M1282.72,-431.7C1283.05,-423.98 1283.45,-414.71 1283.82,-406.11"/>
<polygon fill="grey" stroke="grey" stroke-width="2" points="1287.32,-406.25 1284.25,-396.1 1280.32,-405.95 1287.32,-406.25"/>
</g>
<!-- 3 -->
<g id="node4" class="node">
<title>3</title>
<path fill="none" stroke="#d8c356" stroke-width="2" d="M1270.98,-540C1270.98,-540 1192.98,-540 1192.98,-540 1186.98,-540 1180.98,-534 1180.98,-528 1180.98,-528 1180.98,-516 1180.98,-516 1180.98,-510 1186.98,-504 1192.98,-504 1192.98,-504 1270.98,-504 1270.98,-504 1276.98,-504 1282.98,-510 1282.98,-516 1282.98,-516 1282.98,-528 1282.98,-528 1282.98,-534 1276.98,-540 1270.98,-540"/>
<text text-anchor="middle" x="1231.98" y="-519.5" font-family="sans" font-size="10.00">remove_adapters</text>
</g>
<!-- 3&#45;&gt;2 -->
<g id="edge15" class="edge">
<title>3&#45;&gt;2</title>
<path fill="none" stroke="grey" stroke-width="2" d="M1244.34,-503.7C1250.21,-495.47 1257.35,-485.48 1263.82,-476.42"/>
<polygon fill="grey" stroke="grey" stroke-width="2" points="1266.8,-478.28 1269.76,-468.1 1261.1,-474.21 1266.8,-478.28"/>
</g>
<!-- 5 -->
<g id="node6" class="node">
<title>5</title>
<path fill="none" stroke="#56d8a2" stroke-width="2" d="M1412.48,-468C1412.48,-468 1353.48,-468 1353.48,-468 1347.48,-468 1341.48,-462 1341.48,-456 1341.48,-456 1341.48,-444 1341.48,-444 1341.48,-438 1347.48,-432 1353.48,-432 1353.48,-432 1412.48,-432 1412.48,-432 1418.48,-432 1424.48,-438 1424.48,-444 1424.48,-444 1424.48,-456 1424.48,-456 1424.48,-462 1418.48,-468 1412.48,-468"/>
<text text-anchor="middle" x="1382.98" y="-453" font-family="sans" font-size="10.00">fastQC_pass1</text>
<text text-anchor="middle" x="1382.98" y="-442" font-family="sans" font-size="10.00">read: R2</text>
</g>
<!-- 3&#45;&gt;5 -->
<g id="edge17" class="edge">
<title>3&#45;&gt;5</title>
<path fill="none" stroke="grey" stroke-width="2" d="M1268.92,-503.88C1289.47,-494.35 1315.23,-482.41 1337.07,-472.28"/>
<polygon fill="grey" stroke="grey" stroke-width="2" points="1338.56,-475.45 1346.16,-468.07 1335.62,-469.1 1338.56,-475.45"/>
</g>
<!-- 8 -->
<g id="node9" class="node">
<title>8</title>
<path fill="none" stroke="#ced856" stroke-width="2" d="M1209.98,-468C1209.98,-468 1153.98,-468 1153.98,-468 1147.98,-468 1141.98,-462 1141.98,-456 1141.98,-456 1141.98,-444 1141.98,-444 1141.98,-438 1147.98,-432 1153.98,-432 1153.98,-432 1209.98,-432 1209.98,-432 1215.98,-432 1221.98,-438 1221.98,-444 1221.98,-444 1221.98,-456 1221.98,-456 1221.98,-462 1215.98,-468 1209.98,-468"/>
<text text-anchor="middle" x="1181.98" y="-447.5" font-family="sans" font-size="10.00">trim_forward</text>
</g>
<!-- 3&#45;&gt;8 -->
<g id="edge21" class="edge">
<title>3&#45;&gt;8</title>
<path fill="none" stroke="grey" stroke-width="2" d="M1219.62,-503.7C1213.75,-495.47 1206.61,-485.48 1200.14,-476.42"/>
<polygon fill="grey" stroke="grey" stroke-width="2" points="1202.86,-474.21 1194.2,-468.1 1197.16,-478.28 1202.86,-474.21"/>
</g>
<!-- 10 -->
<g id="node11" class="node">
<title>10</title>
<path fill="none" stroke="#56d88a" stroke-width="2" d="M1111.48,-468C1111.48,-468 1056.48,-468 1056.48,-468 1050.48,-468 1044.48,-462 1044.48,-456 1044.48,-456 1044.48,-444 1044.48,-444 1044.48,-438 1050.48,-432 1056.48,-432 1056.48,-432 1111.48,-432 1111.48,-432 1117.48,-432 1123.48,-438 1123.48,-444 1123.48,-444 1123.48,-456 1123.48,-456 1123.48,-462 1117.48,-468 1111.48,-468"/>
<text text-anchor="middle" x="1083.98" y="-447.5" font-family="sans" font-size="10.00">trim_reverse</text>
</g>
<!-- 3&#45;&gt;10 -->
<g id="edge23" class="edge">
<title>3&#45;&gt;10</title>
<path fill="none" stroke="grey" stroke-width="2" d="M1195.78,-503.88C1175.72,-494.39 1150.61,-482.51 1129.27,-472.42"/>
<polygon fill="grey" stroke="grey" stroke-width="2" points="1130.6,-469.18 1120.07,-468.07 1127.61,-475.51 1130.6,-469.18"/>
</g>
<!-- 4 -->
<g id="node5" class="node">
<title>4</title>
<path fill="none" stroke="#5682d8" stroke-width="2" d="M1292.98,-612C1292.98,-612 1170.98,-612 1170.98,-612 1164.98,-612 1158.98,-606 1158.98,-600 1158.98,-600 1158.98,-588 1158.98,-588 1158.98,-582 1164.98,-576 1170.98,-576 1170.98,-576 1292.98,-576 1292.98,-576 1298.98,-576 1304.98,-582 1304.98,-588 1304.98,-588 1304.98,-600 1304.98,-600 1304.98,-606 1298.98,-612 1292.98,-612"/>
<text text-anchor="middle" x="1231.98" y="-597" font-family="sans" font-size="10.00">symlink_fastqs</text>
<text text-anchor="middle" x="1231.98" y="-586" font-family="sans" font-size="10.00">sample: mock_community</text>
</g>
<!-- 4&#45;&gt;3 -->
<g id="edge16" class="edge">
<title>4&#45;&gt;3</title>
<path fill="none" stroke="grey" stroke-width="2" d="M1231.98,-575.7C1231.98,-567.98 1231.98,-558.71 1231.98,-550.11"/>
<polygon fill="grey" stroke="grey" stroke-width="2" points="1235.48,-550.1 1231.98,-540.1 1228.48,-550.1 1235.48,-550.1"/>
</g>
<!-- 5&#45;&gt;1 -->
<g id="edge14" class="edge">
<title>5&#45;&gt;1</title>
<path fill="none" stroke="grey" stroke-width="2" d="M1359.01,-431.88C1346.43,-422.89 1330.85,-411.76 1317.23,-402.03"/>
<polygon fill="grey" stroke="grey" stroke-width="2" points="1319.22,-399.15 1309.05,-396.19 1315.15,-404.85 1319.22,-399.15"/>
</g>
<!-- 6 -->
<g id="node7" class="node">
<title>6</title>
<path fill="none" stroke="#d8d356" stroke-width="2" d="M1112.48,-324C1112.48,-324 1049.48,-324 1049.48,-324 1043.48,-324 1037.48,-318 1037.48,-312 1037.48,-312 1037.48,-300 1037.48,-300 1037.48,-294 1043.48,-288 1049.48,-288 1049.48,-288 1112.48,-288 1112.48,-288 1118.48,-288 1124.48,-294 1124.48,-300 1124.48,-300 1124.48,-312 1124.48,-312 1124.48,-318 1118.48,-324 1112.48,-324"/>
<text text-anchor="middle" x="1080.98" y="-303.5" font-family="sans" font-size="10.00">multiqc_pass2</text>
</g>
<!-- 6&#45;&gt;0 -->
<g id="edge2" class="edge">
<title>6&#45;&gt;0</title>
<path fill="none" stroke="grey" stroke-width="2" d="M1078.45,-287.95C1070.92,-243.83 1044.29,-125.64 968.98,-72 907,-27.86 815.11,-19.41 764.25,-18.41"/>
<polygon fill="grey" stroke="grey" stroke-width="2" points="764.08,-14.91 754.05,-18.3 764.01,-21.91 764.08,-14.91"/>
</g>
<!-- 7 -->
<g id="node8" class="node">
<title>7</title>
<path fill="none" stroke="#61d856" stroke-width="2" d="M1211.48,-396C1211.48,-396 1152.48,-396 1152.48,-396 1146.48,-396 1140.48,-390 1140.48,-384 1140.48,-384 1140.48,-372 1140.48,-372 1140.48,-366 1146.48,-360 1152.48,-360 1152.48,-360 1211.48,-360 1211.48,-360 1217.48,-360 1223.48,-366 1223.48,-372 1223.48,-372 1223.48,-384 1223.48,-384 1223.48,-390 1217.48,-396 1211.48,-396"/>
<text text-anchor="middle" x="1181.98" y="-381" font-family="sans" font-size="10.00">fastQC_pass2</text>
<text text-anchor="middle" x="1181.98" y="-370" font-family="sans" font-size="10.00">read: R1</text>
</g>
<!-- 7&#45;&gt;6 -->
<g id="edge18" class="edge">
<title>7&#45;&gt;6</title>
<path fill="none" stroke="grey" stroke-width="2" d="M1157.27,-359.88C1144.31,-350.89 1128.25,-339.76 1114.22,-330.03"/>
<polygon fill="grey" stroke="grey" stroke-width="2" points="1116,-327.01 1105.78,-324.19 1112.01,-332.76 1116,-327.01"/>
</g>
<!-- 8&#45;&gt;7 -->
<g id="edge20" class="edge">
<title>8&#45;&gt;7</title>
<path fill="none" stroke="grey" stroke-width="2" d="M1181.98,-431.7C1181.98,-423.98 1181.98,-414.71 1181.98,-406.11"/>
<polygon fill="grey" stroke="grey" stroke-width="2" points="1185.48,-406.1 1181.98,-396.1 1178.48,-406.1 1185.48,-406.1"/>
</g>
<!-- 18 -->
<g id="node19" class="node">
<title>18</title>
<path fill="none" stroke="#bed856" stroke-width="2" d="M799.48,-396C799.48,-396 758.48,-396 758.48,-396 752.48,-396 746.48,-390 746.48,-384 746.48,-384 746.48,-372 746.48,-372 746.48,-366 752.48,-360 758.48,-360 758.48,-360 799.48,-360 799.48,-360 805.48,-360 811.48,-366 811.48,-372 811.48,-372 811.48,-384 811.48,-384 811.48,-390 805.48,-396 799.48,-396"/>
<text text-anchor="middle" x="778.98" y="-375.5" font-family="sans" font-size="10.00">host_filter</text>
</g>
<!-- 8&#45;&gt;18 -->
<g id="edge32" class="edge">
<title>8&#45;&gt;18</title>
<path fill="none" stroke="grey" stroke-width="2" d="M1141.77,-434.64C1138.48,-433.68 1135.19,-432.78 1131.98,-432 1021.95,-405.26 889.15,-389.69 822.14,-382.97"/>
<polygon fill="grey" stroke="grey" stroke-width="2" points="822.26,-379.46 811.97,-381.97 821.57,-386.43 822.26,-379.46"/>
</g>
<!-- 28 -->
<g id="node29" class="node">
<title>28</title>
<path fill="none" stroke="#d85656" stroke-width="2" d="M1009.48,-396C1009.48,-396 968.48,-396 968.48,-396 962.48,-396 956.48,-390 956.48,-384 956.48,-384 956.48,-372 956.48,-372 956.48,-366 962.48,-360 968.48,-360 968.48,-360 1009.48,-360 1009.48,-360 1015.48,-360 1021.48,-366 1021.48,-372 1021.48,-372 1021.48,-384 1021.48,-384 1021.48,-390 1015.48,-396 1009.48,-396"/>
<text text-anchor="middle" x="988.98" y="-375.5" font-family="sans" font-size="10.00">map_host</text>
</g>
<!-- 8&#45;&gt;28 -->
<g id="edge46" class="edge">
<title>8&#45;&gt;28</title>
<path fill="none" stroke="grey" stroke-width="2" d="M1141.64,-435.23C1107.83,-423.64 1061.35,-407.58 1031.16,-396.33"/>
<polygon fill="grey" stroke="grey" stroke-width="2" points="1032.18,-392.98 1021.59,-392.72 1029.7,-399.53 1032.18,-392.98"/>
</g>
<!-- 9 -->
<g id="node10" class="node">
<title>9</title>
<path fill="none" stroke="#61d856" stroke-width="2" d="M1110.48,-396C1110.48,-396 1051.48,-396 1051.48,-396 1045.48,-396 1039.48,-390 1039.48,-384 1039.48,-384 1039.48,-372 1039.48,-372 1039.48,-366 1045.48,-360 1051.48,-360 1051.48,-360 1110.48,-360 1110.48,-360 1116.48,-360 1122.48,-366 1122.48,-372 1122.48,-372 1122.48,-384 1122.48,-384 1122.48,-390 1116.48,-396 1110.48,-396"/>
<text text-anchor="middle" x="1080.98" y="-381" font-family="sans" font-size="10.00">fastQC_pass2</text>
<text text-anchor="middle" x="1080.98" y="-370" font-family="sans" font-size="10.00">read: R2</text>
</g>
<!-- 9&#45;&gt;6 -->
<g id="edge19" class="edge">
<title>9&#45;&gt;6</title>
<path fill="none" stroke="grey" stroke-width="2" d="M1080.98,-359.7C1080.98,-351.98 1080.98,-342.71 1080.98,-334.11"/>
<polygon fill="grey" stroke="grey" stroke-width="2" points="1084.48,-334.1 1080.98,-324.1 1077.48,-334.1 1084.48,-334.1"/>
</g>
<!-- 10&#45;&gt;9 -->
<g id="edge22" class="edge">
<title>10&#45;&gt;9</title>
<path fill="none" stroke="grey" stroke-width="2" d="M1083.24,-431.7C1082.91,-423.98 1082.51,-414.71 1082.14,-406.11"/>
<polygon fill="grey" stroke="grey" stroke-width="2" points="1085.64,-405.95 1081.71,-396.1 1078.64,-406.25 1085.64,-405.95"/>
</g>
<!-- 10&#45;&gt;18 -->
<g id="edge33" class="edge">
<title>10&#45;&gt;18</title>
<path fill="none" stroke="grey" stroke-width="2" d="M1044.27,-434.74C1041.14,-433.76 1038.02,-432.84 1034.98,-432 960.89,-411.57 872.81,-394.98 821.66,-386.09"/>
<polygon fill="grey" stroke="grey" stroke-width="2" points="822.08,-382.61 811.63,-384.36 820.89,-389.51 822.08,-382.61"/>
</g>
<!-- 10&#45;&gt;28 -->
<g id="edge47" class="edge">
<title>10&#45;&gt;28</title>
<path fill="none" stroke="grey" stroke-width="2" d="M1060.5,-431.7C1048.42,-422.8 1033.53,-411.82 1020.46,-402.2"/>
<polygon fill="grey" stroke="grey" stroke-width="2" points="1022.32,-399.22 1012.19,-396.1 1018.17,-404.85 1022.32,-399.22"/>
</g>
<!-- 11 -->
<g id="node12" class="node">
<title>11</title>
<path fill="none" stroke="#97d856" stroke-width="2" d="M616.98,-180C616.98,-180 458.98,-180 458.98,-180 452.98,-180 446.98,-174 446.98,-168 446.98,-168 446.98,-156 446.98,-156 446.98,-150 452.98,-144 458.98,-144 458.98,-144 616.98,-144 616.98,-144 622.98,-144 628.98,-150 628.98,-156 628.98,-156 628.98,-168 628.98,-168 628.98,-174 622.98,-180 616.98,-180"/>
<text text-anchor="middle" x="537.98" y="-159.5" font-family="sans" font-size="10.00">aggregate_humann_outs_nonhost</text>
</g>
<!-- 11&#45;&gt;0 -->
<g id="edge3" class="edge">
<title>11&#45;&gt;0</title>
<path fill="none" stroke="grey" stroke-width="2" d="M629.17,-149.08C678.38,-140.57 732.04,-127.2 746.98,-108 760.94,-90.06 752.96,-64.27 743.25,-45.06"/>
<polygon fill="grey" stroke="grey" stroke-width="2" points="746.3,-43.33 738.44,-36.22 740.15,-46.68 746.3,-43.33"/>
</g>
<!-- 20 -->
<g id="node21" class="node">
<title>20</title>
<path fill="none" stroke="#d89c56" stroke-width="2" d="M428.98,-108C428.98,-108 374.98,-108 374.98,-108 368.98,-108 362.98,-102 362.98,-96 362.98,-96 362.98,-84 362.98,-84 362.98,-78 368.98,-72 374.98,-72 374.98,-72 428.98,-72 428.98,-72 434.98,-72 440.98,-78 440.98,-84 440.98,-84 440.98,-96 440.98,-96 440.98,-102 434.98,-108 428.98,-108"/>
<text text-anchor="middle" x="401.98" y="-87.5" font-family="sans" font-size="10.00">taxa_barplot</text>
</g>
<!-- 11&#45;&gt;20 -->
<g id="edge34" class="edge">
<title>11&#45;&gt;20</title>
<path fill="none" stroke="grey" stroke-width="2" d="M504.71,-143.88C486.52,-134.51 463.79,-122.81 444.34,-112.8"/>
<polygon fill="grey" stroke="grey" stroke-width="2" points="445.87,-109.65 435.38,-108.19 442.67,-115.88 445.87,-109.65"/>
</g>
<!-- 22 -->
<g id="node23" class="node">
<title>22</title>
<path fill="none" stroke="#68d856" stroke-width="2" d="M332.98,-108C332.98,-108 258.98,-108 258.98,-108 252.98,-108 246.98,-102 246.98,-96 246.98,-96 246.98,-84 246.98,-84 246.98,-78 252.98,-72 258.98,-72 258.98,-72 332.98,-72 332.98,-72 338.98,-72 344.98,-78 344.98,-84 344.98,-84 344.98,-96 344.98,-96 344.98,-102 338.98,-108 332.98,-108"/>
<text text-anchor="middle" x="295.98" y="-87.5" font-family="sans" font-size="10.00">func_barplot_rxn</text>
</g>
<!-- 11&#45;&gt;22 -->
<g id="edge36" class="edge">
<title>11&#45;&gt;22</title>
<path fill="none" stroke="grey" stroke-width="2" d="M478.3,-143.88C444.6,-134.2 401.47,-121.78 354.73,-108.21"/>
<polygon fill="grey" stroke="grey" stroke-width="2" points="355.6,-104.82 345.02,-105.39 353.65,-111.54 355.6,-104.82"/>
</g>
<!-- 37 -->
<g id="node38" class="node">
<title>37</title>
<path fill="none" stroke="#5692d8" stroke-width="2" d="M604.98,-108C604.98,-108 470.98,-108 470.98,-108 464.98,-108 458.98,-102 458.98,-96 458.98,-96 458.98,-84 458.98,-84 458.98,-78 464.98,-72 470.98,-72 470.98,-72 604.98,-72 604.98,-72 610.98,-72 616.98,-78 616.98,-84 616.98,-84 616.98,-96 616.98,-96 616.98,-102 610.98,-108 604.98,-108"/>
<text text-anchor="middle" x="537.98" y="-87.5" font-family="sans" font-size="10.00">calc_gut_metabolic_modules</text>
</g>
<!-- 11&#45;&gt;37 -->
<g id="edge59" class="edge">
<title>11&#45;&gt;37</title>
<path fill="none" stroke="grey" stroke-width="2" d="M537.98,-143.7C537.98,-135.98 537.98,-126.71 537.98,-118.11"/>
<polygon fill="grey" stroke="grey" stroke-width="2" points="541.48,-118.1 537.98,-108.1 534.48,-118.1 541.48,-118.1"/>
</g>
<!-- 38 -->
<g id="node39" class="node">
<title>38</title>
<path fill="none" stroke="#56d87b" stroke-width="2" d="M726.48,-108C726.48,-108 647.48,-108 647.48,-108 641.48,-108 635.48,-102 635.48,-96 635.48,-96 635.48,-84 635.48,-84 635.48,-78 641.48,-72 647.48,-72 647.48,-72 726.48,-72 726.48,-72 732.48,-72 738.48,-78 738.48,-84 738.48,-84 738.48,-96 738.48,-96 738.48,-102 732.48,-108 726.48,-108"/>
<text text-anchor="middle" x="686.98" y="-87.5" font-family="sans" font-size="10.00">reads_breakdown</text>
</g>
<!-- 11&#45;&gt;38 -->
<g id="edge61" class="edge">
<title>11&#45;&gt;38</title>
<path fill="none" stroke="grey" stroke-width="2" d="M574.43,-143.88C594.62,-134.39 619.9,-122.51 641.39,-112.42"/>
<polygon fill="grey" stroke="grey" stroke-width="2" points="643.09,-115.49 650.65,-108.07 640.11,-109.15 643.09,-115.49"/>
</g>
<!-- 12 -->
<g id="node13" class="node">
<title>12</title>
<path fill="none" stroke="#56d8b1" stroke-width="2" d="M488.48,-252C488.48,-252 381.48,-252 381.48,-252 375.48,-252 369.48,-246 369.48,-240 369.48,-240 369.48,-228 369.48,-228 369.48,-222 375.48,-216 381.48,-216 381.48,-216 488.48,-216 488.48,-216 494.48,-216 500.48,-222 500.48,-228 500.48,-228 500.48,-240 500.48,-240 500.48,-246 494.48,-252 488.48,-252"/>
<text text-anchor="middle" x="434.98" y="-231.5" font-family="sans" font-size="10.00">get_utility_mapping_db</text>
</g>
<!-- 12&#45;&gt;11 -->
<g id="edge24" class="edge">
<title>12&#45;&gt;11</title>
<path fill="none" stroke="grey" stroke-width="2" d="M460.18,-215.88C473.39,-206.89 489.77,-195.76 504.09,-186.03"/>
<polygon fill="grey" stroke="grey" stroke-width="2" points="506.38,-188.71 512.69,-180.19 502.45,-182.92 506.38,-188.71"/>
</g>
<!-- 13 -->
<g id="node14" class="node">
<title>13</title>
<path fill="none" stroke="#56d85b" stroke-width="2" d="M628.98,-252C628.98,-252 530.98,-252 530.98,-252 524.98,-252 518.98,-246 518.98,-240 518.98,-240 518.98,-228 518.98,-228 518.98,-222 524.98,-216 530.98,-216 530.98,-216 628.98,-216 628.98,-216 634.98,-216 640.98,-222 640.98,-228 640.98,-228 640.98,-240 640.98,-240 640.98,-246 634.98,-252 628.98,-252"/>
<text text-anchor="middle" x="579.98" y="-231.5" font-family="sans" font-size="10.00">run_humann_nonhost</text>
</g>
<!-- 13&#45;&gt;11 -->
<g id="edge25" class="edge">
<title>13&#45;&gt;11</title>
<path fill="none" stroke="grey" stroke-width="2" d="M569.6,-215.7C564.72,-207.56 558.79,-197.69 553.4,-188.7"/>
<polygon fill="grey" stroke="grey" stroke-width="2" points="556.39,-186.88 548.24,-180.1 550.39,-190.48 556.39,-186.88"/>
</g>
<!-- 14 -->
<g id="node15" class="node">
<title>14</title>
<path fill="none" stroke="#56d8d0" stroke-width="2" d="M294.48,-324C294.48,-324 217.48,-324 217.48,-324 211.48,-324 205.48,-318 205.48,-312 205.48,-312 205.48,-300 205.48,-300 205.48,-294 211.48,-288 217.48,-288 217.48,-288 294.48,-288 294.48,-288 300.48,-288 306.48,-294 306.48,-300 306.48,-300 306.48,-312 306.48,-312 306.48,-318 300.48,-324 294.48,-324"/>
<text text-anchor="middle" x="255.98" y="-303.5" font-family="sans" font-size="10.00">setup_metaphlan</text>
</g>
<!-- 14&#45;&gt;13 -->
<g id="edge26" class="edge">
<title>14&#45;&gt;13</title>
<path fill="none" stroke="grey" stroke-width="2" d="M306.63,-290.3C309.79,-289.49 312.92,-288.72 315.98,-288 400.93,-268.09 423.63,-270.16 508.98,-252 509.08,-251.98 509.18,-251.96 509.28,-251.94"/>
<polygon fill="grey" stroke="grey" stroke-width="2" points="509.81,-255.4 518.83,-249.85 508.32,-248.56 509.81,-255.4"/>
</g>
<!-- 15 -->
<g id="node16" class="node">
<title>15</title>
<path fill="none" stroke="#56d8c1" stroke-width="2" d="M476.98,-324C476.98,-324 336.98,-324 336.98,-324 330.98,-324 324.98,-318 324.98,-312 324.98,-312 324.98,-300 324.98,-300 324.98,-294 330.98,-288 336.98,-288 336.98,-288 476.98,-288 476.98,-288 482.98,-288 488.98,-294 488.98,-300 488.98,-300 488.98,-312 488.98,-312 488.98,-318 482.98,-324 476.98,-324"/>
<text text-anchor="middle" x="406.98" y="-303.5" font-family="sans" font-size="10.00">get_biobakery_chocophlan_db</text>
</g>
<!-- 15&#45;&gt;13 -->
<g id="edge27" class="edge">
<title>15&#45;&gt;13</title>
<path fill="none" stroke="grey" stroke-width="2" d="M449.3,-287.88C473.16,-278.22 503.15,-266.09 528.38,-255.88"/>
<polygon fill="grey" stroke="grey" stroke-width="2" points="529.84,-259.06 537.8,-252.07 527.21,-252.57 529.84,-259.06"/>
</g>
<!-- 16 -->
<g id="node17" class="node">
<title>16</title>
<path fill="none" stroke="#56c9d8" stroke-width="2" d="M632.48,-324C632.48,-324 519.48,-324 519.48,-324 513.48,-324 507.48,-318 507.48,-312 507.48,-312 507.48,-300 507.48,-300 507.48,-294 513.48,-288 519.48,-288 519.48,-288 632.48,-288 632.48,-288 638.48,-288 644.48,-294 644.48,-300 644.48,-300 644.48,-312 644.48,-312 644.48,-318 638.48,-324 632.48,-324"/>
<text text-anchor="middle" x="575.98" y="-303.5" font-family="sans" font-size="10.00">get_biobakery_uniref_db</text>
</g>
<!-- 16&#45;&gt;13 -->
<g id="edge28" class="edge">
<title>16&#45;&gt;13</title>
<path fill="none" stroke="grey" stroke-width="2" d="M576.97,-287.7C577.41,-279.98 577.94,-270.71 578.43,-262.11"/>
<polygon fill="grey" stroke="grey" stroke-width="2" points="581.93,-262.29 579,-252.1 574.94,-261.89 581.93,-262.29"/>
</g>
<!-- 17 -->
<g id="node18" class="node">
<title>17</title>
<path fill="none" stroke="#56a9d8" stroke-width="2" d="M775.48,-324C775.48,-324 674.48,-324 674.48,-324 668.48,-324 662.48,-318 662.48,-312 662.48,-312 662.48,-300 662.48,-300 662.48,-294 668.48,-288 674.48,-288 674.48,-288 775.48,-288 775.48,-288 781.48,-288 787.48,-294 787.48,-300 787.48,-300 787.48,-312 787.48,-312 787.48,-318 781.48,-324 775.48,-324"/>
<text text-anchor="middle" x="724.98" y="-303.5" font-family="sans" font-size="10.00">concat_nonhost_reads</text>
</g>
<!-- 17&#45;&gt;13 -->
<g id="edge29" class="edge">
<title>17&#45;&gt;13</title>
<path fill="none" stroke="grey" stroke-width="2" d="M689.51,-287.88C669.86,-278.39 645.26,-266.51 624.35,-256.42"/>
<polygon fill="grey" stroke="grey" stroke-width="2" points="625.86,-253.26 615.34,-252.07 622.82,-259.57 625.86,-253.26"/>
</g>
<!-- 18&#45;&gt;17 -->
<g id="edge30" class="edge">
<title>18&#45;&gt;17</title>
<path fill="none" stroke="grey" stroke-width="2" d="M765.63,-359.7C759.22,-351.39 751.42,-341.28 744.37,-332.14"/>
<polygon fill="grey" stroke="grey" stroke-width="2" points="747.05,-329.88 738.18,-324.1 741.51,-334.16 747.05,-329.88"/>
</g>
<!-- 24 -->
<g id="node25" class="node">
<title>24</title>
<path fill="none" stroke="#afd856" stroke-width="2" d="M827.98,-180C827.98,-180 789.98,-180 789.98,-180 783.98,-180 777.98,-174 777.98,-168 777.98,-168 777.98,-156 777.98,-156 777.98,-150 783.98,-144 789.98,-144 789.98,-144 827.98,-144 827.98,-144 833.98,-144 839.98,-150 839.98,-156 839.98,-156 839.98,-168 839.98,-168 839.98,-174 833.98,-180 827.98,-180"/>
<text text-anchor="middle" x="808.98" y="-159.5" font-family="sans" font-size="10.00">nonpareil</text>
</g>
<!-- 18&#45;&gt;24 -->
<g id="edge39" class="edge">
<title>18&#45;&gt;24</title>
<path fill="none" stroke="grey" stroke-width="2" d="M785.68,-359.6C789.33,-349.38 793.58,-336.13 795.98,-324 805.14,-277.74 807.88,-222.78 808.67,-190.51"/>
<polygon fill="grey" stroke="grey" stroke-width="2" points="812.18,-190.17 808.88,-180.1 805.18,-190.03 812.18,-190.17"/>
</g>
<!-- 35 -->
<g id="node36" class="node">
<title>35</title>
<path fill="none" stroke="#56d8d8" stroke-width="2" d="M175.48,-324C175.48,-324 128.48,-324 128.48,-324 122.48,-324 116.48,-318 116.48,-312 116.48,-312 116.48,-300 116.48,-300 116.48,-294 122.48,-288 128.48,-288 128.48,-288 175.48,-288 175.48,-288 181.48,-288 187.48,-294 187.48,-300 187.48,-300 187.48,-312 187.48,-312 187.48,-318 181.48,-324 175.48,-324"/>
<text text-anchor="middle" x="151.98" y="-303.5" font-family="sans" font-size="10.00">run_kraken</text>
</g>
<!-- 18&#45;&gt;35 -->
<g id="edge55" class="edge">
<title>18&#45;&gt;35</title>
<path fill="none" stroke="grey" stroke-width="2" d="M746.24,-377.18C658.21,-377.01 409.27,-372.17 197.78,-324.07"/>
<polygon fill="grey" stroke="grey" stroke-width="2" points="198.27,-320.59 187.74,-321.75 196.7,-327.41 198.27,-320.59"/>
</g>
<!-- 19 -->
<g id="node20" class="node">
<title>19</title>
<path fill="none" stroke="#56d86b" stroke-width="2" d="M813.48,-468C813.48,-468 718.48,-468 718.48,-468 712.48,-468 706.48,-462 706.48,-456 706.48,-456 706.48,-444 706.48,-444 706.48,-438 712.48,-432 718.48,-432 718.48,-432 813.48,-432 813.48,-432 819.48,-432 825.48,-438 825.48,-444 825.48,-444 825.48,-456 825.48,-456 825.48,-462 819.48,-468 813.48,-468"/>
<text text-anchor="middle" x="765.98" y="-447.5" font-family="sans" font-size="10.00">download_hostile_db</text>
</g>
<!-- 19&#45;&gt;18 -->
<g id="edge31" class="edge">
<title>19&#45;&gt;18</title>
<path fill="none" stroke="grey" stroke-width="2" d="M769.19,-431.7C770.63,-423.98 772.35,-414.71 773.95,-406.11"/>
<polygon fill="grey" stroke="grey" stroke-width="2" points="777.42,-406.58 775.8,-396.1 770.54,-405.3 777.42,-406.58"/>
</g>
<!-- 20&#45;&gt;0 -->
<g id="edge4" class="edge">
<title>20&#45;&gt;0</title>
<path fill="none" stroke="grey" stroke-width="2" d="M441.12,-74.59C444.1,-73.66 447.08,-72.79 449.98,-72 534.6,-49.06 636.36,-32.28 689.89,-24.27"/>
<polygon fill="grey" stroke="grey" stroke-width="2" points="690.55,-27.71 699.93,-22.78 689.53,-20.78 690.55,-27.71"/>
</g>
<!-- 21 -->
<g id="node22" class="node">
<title>21</title>
<path fill="none" stroke="#d88d56" stroke-width="2" d="M338.98,-252C338.98,-252 252.98,-252 252.98,-252 246.98,-252 240.98,-246 240.98,-240 240.98,-240 240.98,-228 240.98,-228 240.98,-222 246.98,-216 252.98,-216 252.98,-216 338.98,-216 338.98,-216 344.98,-216 350.98,-222 350.98,-228 350.98,-228 350.98,-240 350.98,-240 350.98,-246 344.98,-252 338.98,-252"/>
<text text-anchor="middle" x="295.98" y="-231.5" font-family="sans" font-size="10.00">install_R_packages</text>
</g>
<!-- 21&#45;&gt;20 -->
<g id="edge35" class="edge">
<title>21&#45;&gt;20</title>
<path fill="none" stroke="grey" stroke-width="2" d="M308.77,-215.87C327.23,-191.14 361.49,-145.24 382.94,-116.51"/>
<polygon fill="grey" stroke="grey" stroke-width="2" points="385.97,-118.3 389.15,-108.19 380.36,-114.11 385.97,-118.3"/>
</g>
<!-- 21&#45;&gt;22 -->
<g id="edge37" class="edge">
<title>21&#45;&gt;22</title>
<path fill="none" stroke="grey" stroke-width="2" d="M295.98,-215.87C295.98,-191.67 295.98,-147.21 295.98,-118.39"/>
<polygon fill="grey" stroke="grey" stroke-width="2" points="299.48,-118.19 295.98,-108.19 292.48,-118.19 299.48,-118.19"/>
</g>
<!-- 21&#45;&gt;24 -->
<g id="edge40" class="edge">
<title>21&#45;&gt;24</title>
<path fill="none" stroke="grey" stroke-width="2" d="M351.02,-217.85C354.04,-217.18 357.04,-216.56 359.98,-216 437.83,-201.14 672.23,-176.75 767.77,-167.11"/>
<polygon fill="grey" stroke="grey" stroke-width="2" points="768.31,-170.57 777.91,-166.09 767.61,-163.6 768.31,-170.57"/>
</g>
<!-- 36 -->
<g id="node37" class="node">
<title>36</title>
<path fill="none" stroke="#5663d8" stroke-width="2" d="M216.98,-108C216.98,-108 124.98,-108 124.98,-108 118.98,-108 112.98,-102 112.98,-96 112.98,-96 112.98,-84 112.98,-84 112.98,-78 118.98,-72 124.98,-72 124.98,-72 216.98,-72 216.98,-72 222.98,-72 228.98,-78 228.98,-84 228.98,-84 228.98,-96 228.98,-96 228.98,-102 222.98,-108 216.98,-108"/>
<text text-anchor="middle" x="170.98" y="-87.5" font-family="sans" font-size="10.00">taxa_barplot_kraken</text>
</g>
<!-- 21&#45;&gt;36 -->
<g id="edge58" class="edge">
<title>21&#45;&gt;36</title>
<path fill="none" stroke="grey" stroke-width="2" d="M280.9,-215.87C258.94,-190.92 218.03,-144.45 192.79,-115.77"/>
<polygon fill="grey" stroke="grey" stroke-width="2" points="195.35,-113.38 186.11,-108.19 190.09,-118.01 195.35,-113.38"/>
</g>
<!-- 21&#45;&gt;37 -->
<g id="edge60" class="edge">
<title>21&#45;&gt;37</title>
<path fill="none" stroke="grey" stroke-width="2" d="M322.07,-215.85C350.29,-197.49 396.78,-167.79 437.98,-144 456.53,-133.29 477.41,-122.09 495.28,-112.76"/>
<polygon fill="grey" stroke="grey" stroke-width="2" points="497.06,-115.78 504.32,-108.07 493.83,-109.57 497.06,-115.78"/>
</g>
<!-- 22&#45;&gt;0 -->
<g id="edge5" class="edge">
<title>22&#45;&gt;0</title>
<path fill="none" stroke="grey" stroke-width="2" d="M345.22,-74.04C348.17,-73.31 351.11,-72.62 353.98,-72 475.34,-45.73 621.83,-29.28 689.44,-22.53"/>
<polygon fill="grey" stroke="grey" stroke-width="2" points="689.99,-25.99 699.6,-21.53 689.3,-19.02 689.99,-25.99"/>
</g>
<!-- 23 -->
<g id="node24" class="node">
<title>23</title>
<path fill="none" stroke="#56d892" stroke-width="2" d="M882.98,-108C882.98,-108 806.98,-108 806.98,-108 800.98,-108 794.98,-102 794.98,-96 794.98,-96 794.98,-84 794.98,-84 794.98,-78 800.98,-72 806.98,-72 806.98,-72 882.98,-72 882.98,-72 888.98,-72 894.98,-78 894.98,-84 894.98,-84 894.98,-96 894.98,-96 894.98,-102 888.98,-108 882.98,-108"/>
<text text-anchor="middle" x="844.98" y="-87.5" font-family="sans" font-size="10.00">nonpareil_curves</text>
</g>
<!-- 23&#45;&gt;0 -->
<g id="edge6" class="edge">
<title>23&#45;&gt;0</title>
<path fill="none" stroke="grey" stroke-width="2" d="M816.11,-71.88C800.23,-62.45 780.35,-50.66 763.4,-40.61"/>
<polygon fill="grey" stroke="grey" stroke-width="2" points="764.72,-37.32 754.33,-35.23 761.15,-43.34 764.72,-37.32"/>
</g>
<!-- 24&#45;&gt;23 -->
<g id="edge38" class="edge">
<title>24&#45;&gt;23</title>
<path fill="none" stroke="grey" stroke-width="2" d="M817.88,-143.7C821.98,-135.73 826.93,-126.1 831.47,-117.26"/>
<polygon fill="grey" stroke="grey" stroke-width="2" points="834.72,-118.6 836.18,-108.1 828.5,-115.4 834.72,-118.6"/>
</g>
<!-- 25 -->
<g id="node26" class="node">
<title>25</title>
<path fill="none" stroke="#78d856" stroke-width="2" d="M983.98,-252C983.98,-252 869.98,-252 869.98,-252 863.98,-252 857.98,-246 857.98,-240 857.98,-240 857.98,-228 857.98,-228 857.98,-222 863.98,-216 869.98,-216 869.98,-216 983.98,-216 983.98,-216 989.98,-216 995.98,-222 995.98,-228 995.98,-228 995.98,-240 995.98,-240 995.98,-246 989.98,-252 983.98,-252"/>
<text text-anchor="middle" x="926.98" y="-231.5" font-family="sans" font-size="10.00">generate_feature_counts</text>
</g>
<!-- 25&#45;&gt;0 -->
<g id="edge7" class="edge">
<title>25&#45;&gt;0</title>
<path fill="none" stroke="grey" stroke-width="2" d="M960.82,-215.96C974.36,-207.22 988.5,-195.17 995.98,-180 1003.05,-165.65 1001.95,-158.85 995.98,-144 959.51,-53.25 829.09,-28.35 764.2,-21.55"/>
<polygon fill="grey" stroke="grey" stroke-width="2" points="764.29,-18.04 754,-20.57 763.62,-25.01 764.29,-18.04"/>
</g>
<!-- 30 -->
<g id="node31" class="node">
<title>30</title>
<path fill="none" stroke="#d8ac56" stroke-width="2" d="M975.48,-180C975.48,-180 870.48,-180 870.48,-180 864.48,-180 858.48,-174 858.48,-168 858.48,-168 858.48,-156 858.48,-156 858.48,-150 864.48,-144 870.48,-144 870.48,-144 975.48,-144 975.48,-144 981.48,-144 987.48,-150 987.48,-156 987.48,-156 987.48,-168 987.48,-168 987.48,-174 981.48,-180 975.48,-180"/>
<text text-anchor="middle" x="922.98" y="-159.5" font-family="sans" font-size="10.00">feature_counts_to_tpm</text>
</g>
<!-- 25&#45;&gt;30 -->
<g id="edge49" class="edge">
<title>25&#45;&gt;30</title>
<path fill="none" stroke="grey" stroke-width="2" d="M925.99,-215.7C925.55,-207.98 925.02,-198.71 924.53,-190.11"/>
<polygon fill="grey" stroke="grey" stroke-width="2" points="928.02,-189.89 923.96,-180.1 921.03,-190.29 928.02,-189.89"/>
</g>
<!-- 26 -->
<g id="node27" class="node">
<title>26</title>
<path fill="none" stroke="#a7d856" stroke-width="2" d="M944.98,-540C944.98,-540 862.98,-540 862.98,-540 856.98,-540 850.98,-534 850.98,-528 850.98,-528 850.98,-516 850.98,-516 850.98,-510 856.98,-504 862.98,-504 862.98,-504 944.98,-504 944.98,-504 950.98,-504 956.98,-510 956.98,-516 956.98,-516 956.98,-528 956.98,-528 956.98,-534 950.98,-540 944.98,-540"/>
<text text-anchor="middle" x="903.98" y="-519.5" font-family="sans" font-size="10.00">pull_host_genome</text>
</g>
<!-- 26&#45;&gt;25 -->
<g id="edge41" class="edge">
<title>26&#45;&gt;25</title>
<path fill="none" stroke="grey" stroke-width="2" d="M890.83,-503.91C884.06,-494.01 876.49,-480.96 872.98,-468 852.06,-390.78 842.02,-361.77 872.98,-288 877.62,-276.95 885.81,-267.04 894.44,-258.86"/>
<polygon fill="grey" stroke="grey" stroke-width="2" points="896.87,-261.38 902.05,-252.14 892.24,-256.14 896.87,-261.38"/>
</g>
<!-- 29 -->
<g id="node30" class="node">
<title>29</title>
<path fill="none" stroke="#d87556" stroke-width="2" d="M1013.98,-468C1013.98,-468 893.98,-468 893.98,-468 887.98,-468 881.98,-462 881.98,-456 881.98,-456 881.98,-444 881.98,-444 881.98,-438 887.98,-432 893.98,-432 893.98,-432 1013.98,-432 1013.98,-432 1019.98,-432 1025.98,-438 1025.98,-444 1025.98,-444 1025.98,-456 1025.98,-456 1025.98,-462 1019.98,-468 1013.98,-468"/>
<text text-anchor="middle" x="953.98" y="-447.5" font-family="sans" font-size="10.00">build_host_genome_index</text>
</g>
<!-- 26&#45;&gt;29 -->
<g id="edge48" class="edge">
<title>26&#45;&gt;29</title>
<path fill="none" stroke="grey" stroke-width="2" d="M916.34,-503.7C922.21,-495.47 929.35,-485.48 935.82,-476.42"/>
<polygon fill="grey" stroke="grey" stroke-width="2" points="938.8,-478.28 941.76,-468.1 933.1,-474.21 938.8,-478.28"/>
</g>
<!-- 27 -->
<g id="node28" class="node">
<title>27</title>
<path fill="none" stroke="#5673d8" stroke-width="2" d="M959.48,-324C959.48,-324 894.48,-324 894.48,-324 888.48,-324 882.48,-318 882.48,-312 882.48,-312 882.48,-300 882.48,-300 882.48,-294 888.48,-288 894.48,-288 894.48,-288 959.48,-288 959.48,-288 965.48,-288 971.48,-294 971.48,-300 971.48,-300 971.48,-312 971.48,-312 971.48,-318 965.48,-324 959.48,-324"/>
<text text-anchor="middle" x="926.98" y="-303.5" font-family="sans" font-size="10.00">validate_bams</text>
</g>
<!-- 27&#45;&gt;25 -->
<g id="edge42" class="edge">
<title>27&#45;&gt;25</title>
<path fill="none" stroke="grey" stroke-width="2" d="M926.98,-287.7C926.98,-279.98 926.98,-270.71 926.98,-262.11"/>
<polygon fill="grey" stroke="grey" stroke-width="2" points="930.48,-262.1 926.98,-252.1 923.48,-262.1 930.48,-262.1"/>
</g>
<!-- 28&#45;&gt;25 -->
<g id="edge43" class="edge">
<title>28&#45;&gt;25</title>
<path fill="none" stroke="grey" stroke-width="2" d="M990.56,-359.69C991.52,-341.06 990.9,-311.01 979.98,-288 974.8,-277.09 966.41,-267.12 957.82,-258.85"/>
<polygon fill="grey" stroke="grey" stroke-width="2" points="960.06,-256.15 950.29,-252.04 955.36,-261.34 960.06,-256.15"/>
</g>
<!-- 28&#45;&gt;27 -->
<g id="edge44" class="edge">
<title>28&#45;&gt;27</title>
<path fill="none" stroke="grey" stroke-width="2" d="M973.65,-359.7C966.22,-351.3 957.16,-341.07 949,-331.86"/>
<polygon fill="grey" stroke="grey" stroke-width="2" points="951.38,-329.27 942.13,-324.1 946.14,-333.91 951.38,-329.27"/>
</g>
<!-- 29&#45;&gt;28 -->
<g id="edge45" class="edge">
<title>29&#45;&gt;28</title>
<path fill="none" stroke="grey" stroke-width="2" d="M962.63,-431.7C966.62,-423.73 971.43,-414.1 975.85,-405.26"/>
<polygon fill="grey" stroke="grey" stroke-width="2" points="979.09,-406.61 980.43,-396.1 972.83,-403.48 979.09,-406.61"/>
</g>
<!-- 30&#45;&gt;0 -->
<g id="edge8" class="edge">
<title>30&#45;&gt;0</title>
<path fill="none" stroke="grey" stroke-width="2" d="M924.16,-143.95C924.57,-124.13 922.08,-91.63 903.98,-72 868.04,-33.04 804.76,-22.29 764.4,-19.57"/>
<polygon fill="grey" stroke="grey" stroke-width="2" points="764.34,-16.06 754.17,-19.02 763.96,-23.05 764.34,-16.06"/>
</g>
<!-- 31 -->
<g id="node32" class="node">
<title>31</title>
<path fill="none" stroke="#d8bc56" stroke-width="2" d="M127.98,-180C127.98,-180 41.98,-180 41.98,-180 35.98,-180 29.98,-174 29.98,-168 29.98,-168 29.98,-156 29.98,-156 29.98,-150 35.98,-144 41.98,-144 41.98,-144 127.98,-144 127.98,-144 133.98,-144 139.98,-150 139.98,-156 139.98,-156 139.98,-168 139.98,-168 139.98,-174 133.98,-180 127.98,-180"/>
<text text-anchor="middle" x="84.98" y="-159.5" font-family="sans" font-size="10.00">aggregate_bracken</text>
</g>
<!-- 31&#45;&gt;0 -->
<g id="edge9" class="edge">
<title>31&#45;&gt;0</title>
<path fill="none" stroke="grey" stroke-width="2" d="M83.17,-143.99C82.05,-123.58 83.72,-89.87 103.98,-72 147.98,-33.2 561.9,-22.14 689.63,-19.63"/>
<polygon fill="grey" stroke="grey" stroke-width="2" points="689.78,-23.13 699.71,-19.44 689.65,-16.13 689.78,-23.13"/>
</g>
<!-- 31&#45;&gt;36 -->
<g id="edge57" class="edge">
<title>31&#45;&gt;36</title>
<path fill="none" stroke="grey" stroke-width="2" d="M106.24,-143.7C117.07,-134.88 130.4,-124.03 142.14,-114.47"/>
<polygon fill="grey" stroke="grey" stroke-width="2" points="144.42,-117.13 149.97,-108.1 140,-111.7 144.42,-117.13"/>
</g>
<!-- 32 -->
<g id="node33" class="node">
<title>32</title>
<path fill="none" stroke="#88d856" stroke-width="2" d="M97.98,-252C97.98,-252 45.98,-252 45.98,-252 39.98,-252 33.98,-246 33.98,-240 33.98,-240 33.98,-228 33.98,-228 33.98,-222 39.98,-216 45.98,-216 45.98,-216 97.98,-216 97.98,-216 103.98,-216 109.98,-222 109.98,-228 109.98,-228 109.98,-240 109.98,-240 109.98,-246 103.98,-252 97.98,-252"/>
<text text-anchor="middle" x="71.98" y="-231.5" font-family="sans" font-size="10.00">run_bracken</text>
</g>
<!-- 32&#45;&gt;31 -->
<g id="edge50" class="edge">
<title>32&#45;&gt;31</title>
<path fill="none" stroke="grey" stroke-width="2" d="M75.19,-215.7C76.63,-207.98 78.35,-198.71 79.95,-190.11"/>
<polygon fill="grey" stroke="grey" stroke-width="2" points="83.42,-190.58 81.8,-180.1 76.54,-189.3 83.42,-190.58"/>
</g>
<!-- 33 -->
<g id="node34" class="node">
<title>33</title>
<path fill="none" stroke="#569ad8" stroke-width="2" d="M87.98,-396C87.98,-396 23.98,-396 23.98,-396 17.98,-396 11.98,-390 11.98,-384 11.98,-384 11.98,-372 11.98,-372 11.98,-366 17.98,-360 23.98,-360 23.98,-360 87.98,-360 87.98,-360 93.98,-360 99.98,-366 99.98,-372 99.98,-372 99.98,-384 99.98,-384 99.98,-390 93.98,-396 87.98,-396"/>
<text text-anchor="middle" x="55.98" y="-375.5" font-family="sans" font-size="10.00">get_kraken_db</text>
</g>
<!-- 33&#45;&gt;32 -->
<g id="edge51" class="edge">
<title>33&#45;&gt;32</title>
<path fill="none" stroke="grey" stroke-width="2" d="M32.68,-359.82C22.08,-350.54 10.66,-338.09 4.98,-324 -1,-309.16 -1.99,-302.4 4.98,-288 10.74,-276.1 20.62,-266.06 31.04,-258.02"/>
<polygon fill="grey" stroke="grey" stroke-width="2" points="33.35,-260.68 39.45,-252.02 29.28,-254.98 33.35,-260.68"/>
</g>
<!-- 34 -->
<g id="node35" class="node">
<title>34</title>
<path fill="none" stroke="#56b9d8" stroke-width="2" d="M85.98,-324C85.98,-324 25.98,-324 25.98,-324 19.98,-324 13.98,-318 13.98,-312 13.98,-312 13.98,-300 13.98,-300 13.98,-294 19.98,-288 25.98,-288 25.98,-288 85.98,-288 85.98,-288 91.98,-288 97.98,-294 97.98,-300 97.98,-300 97.98,-312 97.98,-312 97.98,-318 91.98,-324 85.98,-324"/>
<text text-anchor="middle" x="55.98" y="-303.5" font-family="sans" font-size="10.00">build_bracken</text>
</g>
<!-- 33&#45;&gt;34 -->
<g id="edge54" class="edge">
<title>33&#45;&gt;34</title>
<path fill="none" stroke="grey" stroke-width="2" d="M55.98,-359.7C55.98,-351.98 55.98,-342.71 55.98,-334.11"/>
<polygon fill="grey" stroke="grey" stroke-width="2" points="59.48,-334.1 55.98,-324.1 52.48,-334.1 59.48,-334.1"/>
</g>
<!-- 33&#45;&gt;35 -->
<g id="edge56" class="edge">
<title>33&#45;&gt;35</title>
<path fill="none" stroke="grey" stroke-width="2" d="M79.71,-359.7C91.92,-350.8 106.97,-339.82 120.16,-330.2"/>
<polygon fill="grey" stroke="grey" stroke-width="2" points="122.51,-332.82 128.52,-324.1 118.38,-327.17 122.51,-332.82"/>
</g>
<!-- 34&#45;&gt;32 -->
<g id="edge52" class="edge">
<title>34&#45;&gt;32</title>
<path fill="none" stroke="grey" stroke-width="2" d="M59.94,-287.7C61.7,-279.98 63.82,-270.71 65.78,-262.11"/>
<polygon fill="grey" stroke="grey" stroke-width="2" points="69.25,-262.63 68.07,-252.1 62.43,-261.07 69.25,-262.63"/>
</g>
<!-- 35&#45;&gt;32 -->
<g id="edge53" class="edge">
<title>35&#45;&gt;32</title>
<path fill="none" stroke="grey" stroke-width="2" d="M132.21,-287.7C122.23,-278.97 109.97,-268.24 99.12,-258.75"/>
<polygon fill="grey" stroke="grey" stroke-width="2" points="101.36,-256.06 91.53,-252.1 96.75,-261.32 101.36,-256.06"/>
</g>
<!-- 36&#45;&gt;0 -->
<g id="edge10" class="edge">
<title>36&#45;&gt;0</title>
<path fill="none" stroke="grey" stroke-width="2" d="M229.34,-73.68C232.25,-73.07 235.15,-72.51 237.98,-72 405.04,-41.91 607.5,-26.59 689.66,-21.25"/>
<polygon fill="grey" stroke="grey" stroke-width="2" points="690,-24.73 699.75,-20.6 689.55,-17.75 690,-24.73"/>
</g>
<!-- 37&#45;&gt;0 -->
<g id="edge11" class="edge">
<title>37&#45;&gt;0</title>
<path fill="none" stroke="grey" stroke-width="2" d="M584.22,-71.88C616.81,-59.8 659.88,-43.85 690.16,-32.64"/>
<polygon fill="grey" stroke="grey" stroke-width="2" points="691.74,-35.78 699.9,-29.03 689.31,-29.22 691.74,-35.78"/>
</g>
<!-- 38&#45;&gt;0 -->
<g id="edge12" class="edge">
<title>38&#45;&gt;0</title>
<path fill="none" stroke="grey" stroke-width="2" d="M696.87,-71.7C701.47,-63.64 707.04,-53.89 712.13,-44.98"/>
<polygon fill="grey" stroke="grey" stroke-width="2" points="715.28,-46.52 717.21,-36.1 709.21,-43.05 715.28,-46.52"/>
</g>
</g>
</svg>
