<?xml version="1.0" encoding="UTF-8" standalone="no"?>
<!DOCTYPE svg PUBLIC "-//W3C//DTD SVG 1.1//EN"
 "http://www.w3.org/Graphics/SVG/1.1/DTD/svg11.dtd">
<!-- Generated by graphviz version 2.43.0 (0)
 -->
<!-- Title: snakemake_dag Pages: 1 -->
<svg width="1452pt" height="620pt"
 viewBox="0.00 0.00 1452.00 620.00" xmlns="http://www.w3.org/2000/svg" xmlns:xlink="http://www.w3.org/1999/xlink">
<g id="graph0" class="graph" transform="scale(1 1) rotate(0) translate(4 616)">
<title>snakemake_dag</title>
<polygon fill="white" stroke="transparent" points="-4,4 -4,-616 1448,-616 1448,4 -4,4"/>
<!-- 0 -->
<g id="node1" class="node">
<title>0</title>
<path fill="none" stroke="#d86656" stroke-width="2" d="M777.5,-36C777.5,-36 747.5,-36 747.5,-36 741.5,-36 735.5,-30 735.5,-24 735.5,-24 735.5,-12 735.5,-12 735.5,-6 741.5,0 747.5,0 747.5,0 777.5,0 777.5,0 783.5,0 789.5,-6 789.5,-12 789.5,-12 789.5,-24 789.5,-24 789.5,-30 783.5,-36 777.5,-36"/>
<text text-anchor="middle" x="762.5" y="-15.5" font-family="sans" font-size="10.00">all</text>
</g>
<!-- 1 -->
<g id="node2" class="node">
<title>1</title>
<path fill="none" stroke="#56d86b" stroke-width="2" d="M1336,-396C1336,-396 1273,-396 1273,-396 1267,-396 1261,-390 1261,-384 1261,-384 1261,-372 1261,-372 1261,-366 1267,-360 1273,-360 1273,-360 1336,-360 1336,-360 1342,-360 1348,-366 1348,-372 1348,-372 1348,-384 1348,-384 1348,-390 1342,-396 1336,-396"/>
<text text-anchor="middle" x="1304.5" y="-375.5" font-family="sans" font-size="10.00">multiqc_pass1</text>
</g>
<!-- 1&#45;&gt;0 -->
<g id="edge1" class="edge">
<title>1&#45;&gt;0</title>
<path fill="none" stroke="grey" stroke-width="2" d="M1290.5,-359.82C1271.13,-334.26 1238.5,-283.93 1238.5,-235 1238.5,-235 1238.5,-235 1238.5,-161 1238.5,-69.63 912.33,-32.23 799.99,-22.05"/>
<polygon fill="grey" stroke="grey" stroke-width="2" points="800.07,-18.55 789.8,-21.15 799.45,-25.52 800.07,-18.55"/>
</g>
<!-- 2 -->
<g id="node3" class="node">
<title>2</title>
<path fill="none" stroke="#d8bc56" stroke-width="2" d="M1331,-468C1331,-468 1272,-468 1272,-468 1266,-468 1260,-462 1260,-456 1260,-456 1260,-444 1260,-444 1260,-438 1266,-432 1272,-432 1272,-432 1331,-432 1331,-432 1337,-432 1343,-438 1343,-444 1343,-444 1343,-456 1343,-456 1343,-462 1337,-468 1331,-468"/>
<text text-anchor="middle" x="1301.5" y="-453" font-family="sans" font-size="10.00">fastQC_pass1</text>
<text text-anchor="middle" x="1301.5" y="-442" font-family="sans" font-size="10.00">read: R1</text>
</g>
<!-- 2&#45;&gt;1 -->
<g id="edge11" class="edge">
<title>2&#45;&gt;1</title>
<path fill="none" stroke="grey" stroke-width="2" d="M1302.24,-431.7C1302.57,-423.98 1302.97,-414.71 1303.34,-406.11"/>
<polygon fill="grey" stroke="grey" stroke-width="2" points="1306.84,-406.25 1303.77,-396.1 1299.84,-405.95 1306.84,-406.25"/>
</g>
<!-- 3 -->
<g id="node4" class="node">
<title>3</title>
<path fill="none" stroke="#d8a456" stroke-width="2" d="M1290.5,-540C1290.5,-540 1212.5,-540 1212.5,-540 1206.5,-540 1200.5,-534 1200.5,-528 1200.5,-528 1200.5,-516 1200.5,-516 1200.5,-510 1206.5,-504 1212.5,-504 1212.5,-504 1290.5,-504 1290.5,-504 1296.5,-504 1302.5,-510 1302.5,-516 1302.5,-516 1302.5,-528 1302.5,-528 1302.5,-534 1296.5,-540 1290.5,-540"/>
<text text-anchor="middle" x="1251.5" y="-519.5" font-family="sans" font-size="10.00">remove_adapters</text>
</g>
<!-- 3&#45;&gt;2 -->
<g id="edge13" class="edge">
<title>3&#45;&gt;2</title>
<path fill="none" stroke="grey" stroke-width="2" d="M1263.86,-503.7C1269.73,-495.47 1276.87,-485.48 1283.34,-476.42"/>
<polygon fill="grey" stroke="grey" stroke-width="2" points="1286.32,-478.28 1289.28,-468.1 1280.62,-474.21 1286.32,-478.28"/>
</g>
<!-- 5 -->
<g id="node6" class="node">
<title>5</title>
<path fill="none" stroke="#d8bc56" stroke-width="2" d="M1432,-468C1432,-468 1373,-468 1373,-468 1367,-468 1361,-462 1361,-456 1361,-456 1361,-444 1361,-444 1361,-438 1367,-432 1373,-432 1373,-432 1432,-432 1432,-432 1438,-432 1444,-438 1444,-444 1444,-444 1444,-456 1444,-456 1444,-462 1438,-468 1432,-468"/>
<text text-anchor="middle" x="1402.5" y="-453" font-family="sans" font-size="10.00">fastQC_pass1</text>
<text text-anchor="middle" x="1402.5" y="-442" font-family="sans" font-size="10.00">read: R2</text>
</g>
<!-- 3&#45;&gt;5 -->
<g id="edge15" class="edge">
<title>3&#45;&gt;5</title>
<path fill="none" stroke="grey" stroke-width="2" d="M1288.44,-503.88C1308.99,-494.35 1334.75,-482.41 1356.59,-472.28"/>
<polygon fill="grey" stroke="grey" stroke-width="2" points="1358.08,-475.45 1365.68,-468.07 1355.14,-469.1 1358.08,-475.45"/>
</g>
<!-- 8 -->
<g id="node9" class="node">
<title>8</title>
<path fill="none" stroke="#5692d8" stroke-width="2" d="M1229.5,-468C1229.5,-468 1173.5,-468 1173.5,-468 1167.5,-468 1161.5,-462 1161.5,-456 1161.5,-456 1161.5,-444 1161.5,-444 1161.5,-438 1167.5,-432 1173.5,-432 1173.5,-432 1229.5,-432 1229.5,-432 1235.5,-432 1241.5,-438 1241.5,-444 1241.5,-444 1241.5,-456 1241.5,-456 1241.5,-462 1235.5,-468 1229.5,-468"/>
<text text-anchor="middle" x="1201.5" y="-447.5" font-family="sans" font-size="10.00">trim_forward</text>
</g>
<!-- 3&#45;&gt;8 -->
<g id="edge19" class="edge">
<title>3&#45;&gt;8</title>
<path fill="none" stroke="grey" stroke-width="2" d="M1239.14,-503.7C1233.27,-495.47 1226.13,-485.48 1219.66,-476.42"/>
<polygon fill="grey" stroke="grey" stroke-width="2" points="1222.38,-474.21 1213.72,-468.1 1216.68,-478.28 1222.38,-474.21"/>
</g>
<!-- 10 -->
<g id="node11" class="node">
<title>10</title>
<path fill="none" stroke="#c6d856" stroke-width="2" d="M1131,-468C1131,-468 1076,-468 1076,-468 1070,-468 1064,-462 1064,-456 1064,-456 1064,-444 1064,-444 1064,-438 1070,-432 1076,-432 1076,-432 1131,-432 1131,-432 1137,-432 1143,-438 1143,-444 1143,-444 1143,-456 1143,-456 1143,-462 1137,-468 1131,-468"/>
<text text-anchor="middle" x="1103.5" y="-447.5" font-family="sans" font-size="10.00">trim_reverse</text>
</g>
<!-- 3&#45;&gt;10 -->
<g id="edge21" class="edge">
<title>3&#45;&gt;10</title>
<path fill="none" stroke="grey" stroke-width="2" d="M1215.3,-503.88C1195.24,-494.39 1170.13,-482.51 1148.79,-472.42"/>
<polygon fill="grey" stroke="grey" stroke-width="2" points="1150.12,-469.18 1139.59,-468.07 1147.13,-475.51 1150.12,-469.18"/>
</g>
<!-- 4 -->
<g id="node5" class="node">
<title>4</title>
<path fill="none" stroke="#d85656" stroke-width="2" d="M1312.5,-612C1312.5,-612 1190.5,-612 1190.5,-612 1184.5,-612 1178.5,-606 1178.5,-600 1178.5,-600 1178.5,-588 1178.5,-588 1178.5,-582 1184.5,-576 1190.5,-576 1190.5,-576 1312.5,-576 1312.5,-576 1318.5,-576 1324.5,-582 1324.5,-588 1324.5,-588 1324.5,-600 1324.5,-600 1324.5,-606 1318.5,-612 1312.5,-612"/>
<text text-anchor="middle" x="1251.5" y="-597" font-family="sans" font-size="10.00">symlink_fastqs</text>
<text text-anchor="middle" x="1251.5" y="-586" font-family="sans" font-size="10.00">sample: mock_community</text>
</g>
<!-- 4&#45;&gt;3 -->
<g id="edge14" class="edge">
<title>4&#45;&gt;3</title>
<path fill="none" stroke="grey" stroke-width="2" d="M1251.5,-575.7C1251.5,-567.98 1251.5,-558.71 1251.5,-550.11"/>
<polygon fill="grey" stroke="grey" stroke-width="2" points="1255,-550.1 1251.5,-540.1 1248,-550.1 1255,-550.1"/>
</g>
<!-- 5&#45;&gt;1 -->
<g id="edge12" class="edge">
<title>5&#45;&gt;1</title>
<path fill="none" stroke="grey" stroke-width="2" d="M1378.53,-431.88C1365.95,-422.89 1350.37,-411.76 1336.75,-402.03"/>
<polygon fill="grey" stroke="grey" stroke-width="2" points="1338.74,-399.15 1328.57,-396.19 1334.67,-404.85 1338.74,-399.15"/>
</g>
<!-- 6 -->
<g id="node7" class="node">
<title>6</title>
<path fill="none" stroke="#78d856" stroke-width="2" d="M1132,-324C1132,-324 1069,-324 1069,-324 1063,-324 1057,-318 1057,-312 1057,-312 1057,-300 1057,-300 1057,-294 1063,-288 1069,-288 1069,-288 1132,-288 1132,-288 1138,-288 1144,-294 1144,-300 1144,-300 1144,-312 1144,-312 1144,-318 1138,-324 1132,-324"/>
<text text-anchor="middle" x="1100.5" y="-303.5" font-family="sans" font-size="10.00">multiqc_pass2</text>
</g>
<!-- 6&#45;&gt;0 -->
<g id="edge2" class="edge">
<title>6&#45;&gt;0</title>
<path fill="none" stroke="grey" stroke-width="2" d="M1093.79,-287.89C1080.72,-256.32 1049.29,-188.11 1005.5,-144 945.81,-83.87 851.14,-46.8 799.34,-29.88"/>
<polygon fill="grey" stroke="grey" stroke-width="2" points="800.17,-26.47 789.58,-26.76 798.04,-33.14 800.17,-26.47"/>
</g>
<!-- 7 -->
<g id="node8" class="node">
<title>7</title>
<path fill="none" stroke="#56d8d8" stroke-width="2" d="M1231,-396C1231,-396 1172,-396 1172,-396 1166,-396 1160,-390 1160,-384 1160,-384 1160,-372 1160,-372 1160,-366 1166,-360 1172,-360 1172,-360 1231,-360 1231,-360 1237,-360 1243,-366 1243,-372 1243,-372 1243,-384 1243,-384 1243,-390 1237,-396 1231,-396"/>
<text text-anchor="middle" x="1201.5" y="-381" font-family="sans" font-size="10.00">fastQC_pass2</text>
<text text-anchor="middle" x="1201.5" y="-370" font-family="sans" font-size="10.00">read: R1</text>
</g>
<!-- 7&#45;&gt;6 -->
<g id="edge16" class="edge">
<title>7&#45;&gt;6</title>
<path fill="none" stroke="grey" stroke-width="2" d="M1176.79,-359.88C1163.83,-350.89 1147.77,-339.76 1133.73,-330.03"/>
<polygon fill="grey" stroke="grey" stroke-width="2" points="1135.52,-327.01 1125.3,-324.19 1131.53,-332.76 1135.52,-327.01"/>
</g>
<!-- 8&#45;&gt;7 -->
<g id="edge18" class="edge">
<title>8&#45;&gt;7</title>
<path fill="none" stroke="grey" stroke-width="2" d="M1201.5,-431.7C1201.5,-423.98 1201.5,-414.71 1201.5,-406.11"/>
<polygon fill="grey" stroke="grey" stroke-width="2" points="1205,-406.1 1201.5,-396.1 1198,-406.1 1205,-406.1"/>
</g>
<!-- 18 -->
<g id="node19" class="node">
<title>18</title>
<path fill="none" stroke="#56d8a9" stroke-width="2" d="M680,-396C680,-396 639,-396 639,-396 633,-396 627,-390 627,-384 627,-384 627,-372 627,-372 627,-366 633,-360 639,-360 639,-360 680,-360 680,-360 686,-360 692,-366 692,-372 692,-372 692,-384 692,-384 692,-390 686,-396 680,-396"/>
<text text-anchor="middle" x="659.5" y="-375.5" font-family="sans" font-size="10.00">host_filter</text>
</g>
<!-- 8&#45;&gt;18 -->
<g id="edge30" class="edge">
<title>8&#45;&gt;18</title>
<path fill="none" stroke="grey" stroke-width="2" d="M1161.35,-434.39C1158.04,-433.48 1154.73,-432.67 1151.5,-432 958.18,-392.05 898.67,-440.56 701.98,-395.62"/>
<polygon fill="grey" stroke="grey" stroke-width="2" points="702.74,-392.21 692.2,-393.34 701.15,-399.02 702.74,-392.21"/>
</g>
<!-- 28 -->
<g id="node29" class="node">
<title>28</title>
<path fill="none" stroke="#56a2d8" stroke-width="2" d="M1029,-396C1029,-396 988,-396 988,-396 982,-396 976,-390 976,-384 976,-384 976,-372 976,-372 976,-366 982,-360 988,-360 988,-360 1029,-360 1029,-360 1035,-360 1041,-366 1041,-372 1041,-372 1041,-384 1041,-384 1041,-390 1035,-396 1029,-396"/>
<text text-anchor="middle" x="1008.5" y="-375.5" font-family="sans" font-size="10.00">map_host</text>
</g>
<!-- 8&#45;&gt;28 -->
<g id="edge44" class="edge">
<title>8&#45;&gt;28</title>
<path fill="none" stroke="grey" stroke-width="2" d="M1161.16,-435.23C1127.35,-423.64 1080.87,-407.58 1050.68,-396.33"/>
<polygon fill="grey" stroke="grey" stroke-width="2" points="1051.7,-392.98 1041.11,-392.72 1049.22,-399.53 1051.7,-392.98"/>
</g>
<!-- 9 -->
<g id="node10" class="node">
<title>9</title>
<path fill="none" stroke="#56d8d8" stroke-width="2" d="M1130,-396C1130,-396 1071,-396 1071,-396 1065,-396 1059,-390 1059,-384 1059,-384 1059,-372 1059,-372 1059,-366 1065,-360 1071,-360 1071,-360 1130,-360 1130,-360 1136,-360 1142,-366 1142,-372 1142,-372 1142,-384 1142,-384 1142,-390 1136,-396 1130,-396"/>
<text text-anchor="middle" x="1100.5" y="-381" font-family="sans" font-size="10.00">fastQC_pass2</text>
<text text-anchor="middle" x="1100.5" y="-370" font-family="sans" font-size="10.00">read: R2</text>
</g>
<!-- 9&#45;&gt;6 -->
<g id="edge17" class="edge">
<title>9&#45;&gt;6</title>
<path fill="none" stroke="grey" stroke-width="2" d="M1100.5,-359.7C1100.5,-351.98 1100.5,-342.71 1100.5,-334.11"/>
<polygon fill="grey" stroke="grey" stroke-width="2" points="1104,-334.1 1100.5,-324.1 1097,-334.1 1104,-334.1"/>
</g>
<!-- 10&#45;&gt;9 -->
<g id="edge20" class="edge">
<title>10&#45;&gt;9</title>
<path fill="none" stroke="grey" stroke-width="2" d="M1102.76,-431.7C1102.43,-423.98 1102.03,-414.71 1101.66,-406.11"/>
<polygon fill="grey" stroke="grey" stroke-width="2" points="1105.16,-405.95 1101.23,-396.1 1098.16,-406.25 1105.16,-405.95"/>
</g>
<!-- 10&#45;&gt;18 -->
<g id="edge31" class="edge">
<title>10&#45;&gt;18</title>
<path fill="none" stroke="grey" stroke-width="2" d="M1063.88,-434.39C1060.73,-433.49 1057.58,-432.68 1054.5,-432 903.68,-398.62 856.5,-432.52 702.06,-395.68"/>
<polygon fill="grey" stroke="grey" stroke-width="2" points="702.77,-392.24 692.22,-393.27 701.1,-399.04 702.77,-392.24"/>
</g>
<!-- 10&#45;&gt;28 -->
<g id="edge45" class="edge">
<title>10&#45;&gt;28</title>
<path fill="none" stroke="grey" stroke-width="2" d="M1080.02,-431.7C1067.94,-422.8 1053.05,-411.82 1039.98,-402.2"/>
<polygon fill="grey" stroke="grey" stroke-width="2" points="1041.84,-399.22 1031.71,-396.1 1037.69,-404.85 1041.84,-399.22"/>
</g>
<!-- 11 -->
<g id="node12" class="node">
<title>11</title>
<path fill="none" stroke="#56d85b" stroke-width="2" d="M468.5,-180C468.5,-180 310.5,-180 310.5,-180 304.5,-180 298.5,-174 298.5,-168 298.5,-168 298.5,-156 298.5,-156 298.5,-150 304.5,-144 310.5,-144 310.5,-144 468.5,-144 468.5,-144 474.5,-144 480.5,-150 480.5,-156 480.5,-156 480.5,-168 480.5,-168 480.5,-174 474.5,-180 468.5,-180"/>
<text text-anchor="middle" x="389.5" y="-159.5" font-family="sans" font-size="10.00">aggregate_humann_outs_nonhost</text>
</g>
<!-- 11&#45;&gt;0 -->
<g id="edge3" class="edge">
<title>11&#45;&gt;0</title>
<path fill="none" stroke="grey" stroke-width="2" d="M384.26,-143.89C379.34,-124.01 375.05,-91.45 392.5,-72 436.13,-23.36 640.09,-18.45 725.12,-18.57"/>
<polygon fill="grey" stroke="grey" stroke-width="2" points="725.35,-22.07 735.36,-18.61 725.37,-15.07 725.35,-22.07"/>
</g>
<!-- 20 -->
<g id="node21" class="node">
<title>20</title>
<path fill="none" stroke="#70d856" stroke-width="2" d="M467.5,-108C467.5,-108 413.5,-108 413.5,-108 407.5,-108 401.5,-102 401.5,-96 401.5,-96 401.5,-84 401.5,-84 401.5,-78 407.5,-72 413.5,-72 413.5,-72 467.5,-72 467.5,-72 473.5,-72 479.5,-78 479.5,-84 479.5,-84 479.5,-96 479.5,-96 479.5,-102 473.5,-108 467.5,-108"/>
<text text-anchor="middle" x="440.5" y="-87.5" font-family="sans" font-size="10.00">taxa_barplot</text>
</g>
<!-- 11&#45;&gt;20 -->
<g id="edge32" class="edge">
<title>11&#45;&gt;20</title>
<path fill="none" stroke="grey" stroke-width="2" d="M402.11,-143.7C408.1,-135.47 415.38,-125.48 421.98,-116.42"/>
<polygon fill="grey" stroke="grey" stroke-width="2" points="424.98,-118.25 428.04,-108.1 419.32,-114.13 424.98,-118.25"/>
</g>
<!-- 22 -->
<g id="node23" class="node">
<title>22</title>
<path fill="none" stroke="#d8cb56" stroke-width="2" d="M333.5,-108C333.5,-108 259.5,-108 259.5,-108 253.5,-108 247.5,-102 247.5,-96 247.5,-96 247.5,-84 247.5,-84 247.5,-78 253.5,-72 259.5,-72 259.5,-72 333.5,-72 333.5,-72 339.5,-72 345.5,-78 345.5,-84 345.5,-84 345.5,-96 345.5,-96 345.5,-102 339.5,-108 333.5,-108"/>
<text text-anchor="middle" x="296.5" y="-87.5" font-family="sans" font-size="10.00">func_barplot_rxn</text>
</g>
<!-- 11&#45;&gt;22 -->
<g id="edge34" class="edge">
<title>11&#45;&gt;22</title>
<path fill="none" stroke="grey" stroke-width="2" d="M366.51,-143.7C354.69,-134.8 340.11,-123.82 327.32,-114.2"/>
<polygon fill="grey" stroke="grey" stroke-width="2" points="329.32,-111.32 319.22,-108.1 325.11,-116.91 329.32,-111.32"/>
</g>
<!-- 36 -->
<g id="node37" class="node">
<title>36</title>
<path fill="none" stroke="#a7d856" stroke-width="2" d="M643.5,-108C643.5,-108 509.5,-108 509.5,-108 503.5,-108 497.5,-102 497.5,-96 497.5,-96 497.5,-84 497.5,-84 497.5,-78 503.5,-72 509.5,-72 509.5,-72 643.5,-72 643.5,-72 649.5,-72 655.5,-78 655.5,-84 655.5,-84 655.5,-96 655.5,-96 655.5,-102 649.5,-108 643.5,-108"/>
<text text-anchor="middle" x="576.5" y="-87.5" font-family="sans" font-size="10.00">calc_gut_metabolic_modules</text>
</g>
<!-- 11&#45;&gt;36 -->
<g id="edge55" class="edge">
<title>11&#45;&gt;36</title>
<path fill="none" stroke="grey" stroke-width="2" d="M435.25,-143.88C461.26,-134.14 494.03,-121.87 521.45,-111.61"/>
<polygon fill="grey" stroke="grey" stroke-width="2" points="522.76,-114.85 530.9,-108.07 520.31,-108.3 522.76,-114.85"/>
</g>
<!-- 12 -->
<g id="node13" class="node">
<title>12</title>
<path fill="none" stroke="#88d856" stroke-width="2" d="M442,-252C442,-252 335,-252 335,-252 329,-252 323,-246 323,-240 323,-240 323,-228 323,-228 323,-222 329,-216 335,-216 335,-216 442,-216 442,-216 448,-216 454,-222 454,-228 454,-228 454,-240 454,-240 454,-246 448,-252 442,-252"/>
<text text-anchor="middle" x="388.5" y="-231.5" font-family="sans" font-size="10.00">get_utility_mapping_db</text>
</g>
<!-- 12&#45;&gt;11 -->
<g id="edge22" class="edge">
<title>12&#45;&gt;11</title>
<path fill="none" stroke="grey" stroke-width="2" d="M388.75,-215.7C388.86,-207.98 388.99,-198.71 389.11,-190.11"/>
<polygon fill="grey" stroke="grey" stroke-width="2" points="392.61,-190.15 389.26,-180.1 385.61,-190.05 392.61,-190.15"/>
</g>
<!-- 13 -->
<g id="node14" class="node">
<title>13</title>
<path fill="none" stroke="#b6d856" stroke-width="2" d="M292.5,-252C292.5,-252 194.5,-252 194.5,-252 188.5,-252 182.5,-246 182.5,-240 182.5,-240 182.5,-228 182.5,-228 182.5,-222 188.5,-216 194.5,-216 194.5,-216 292.5,-216 292.5,-216 298.5,-216 304.5,-222 304.5,-228 304.5,-228 304.5,-240 304.5,-240 304.5,-246 298.5,-252 292.5,-252"/>
<text text-anchor="middle" x="243.5" y="-231.5" font-family="sans" font-size="10.00">run_humann_nonhost</text>
</g>
<!-- 13&#45;&gt;11 -->
<g id="edge23" class="edge">
<title>13&#45;&gt;11</title>
<path fill="none" stroke="grey" stroke-width="2" d="M279.22,-215.88C299,-206.39 323.77,-194.51 344.83,-184.42"/>
<polygon fill="grey" stroke="grey" stroke-width="2" points="346.4,-187.55 353.9,-180.07 343.37,-181.24 346.4,-187.55"/>
</g>
<!-- 14 -->
<g id="node15" class="node">
<title>14</title>
<path fill="none" stroke="#d87556" stroke-width="2" d="M89,-324C89,-324 12,-324 12,-324 6,-324 0,-318 0,-312 0,-312 0,-300 0,-300 0,-294 6,-288 12,-288 12,-288 89,-288 89,-288 95,-288 101,-294 101,-300 101,-300 101,-312 101,-312 101,-318 95,-324 89,-324"/>
<text text-anchor="middle" x="50.5" y="-303.5" font-family="sans" font-size="10.00">setup_metaphlan</text>
</g>
<!-- 14&#45;&gt;13 -->
<g id="edge24" class="edge">
<title>14&#45;&gt;13</title>
<path fill="none" stroke="grey" stroke-width="2" d="M97.71,-287.88C124.57,-278.14 158.38,-265.87 186.68,-255.61"/>
<polygon fill="grey" stroke="grey" stroke-width="2" points="188.23,-258.77 196.44,-252.07 185.85,-252.19 188.23,-258.77"/>
</g>
<!-- 15 -->
<g id="node16" class="node">
<title>15</title>
<path fill="none" stroke="#d89556" stroke-width="2" d="M271.5,-324C271.5,-324 131.5,-324 131.5,-324 125.5,-324 119.5,-318 119.5,-312 119.5,-312 119.5,-300 119.5,-300 119.5,-294 125.5,-288 131.5,-288 131.5,-288 271.5,-288 271.5,-288 277.5,-288 283.5,-294 283.5,-300 283.5,-300 283.5,-312 283.5,-312 283.5,-318 277.5,-324 271.5,-324"/>
<text text-anchor="middle" x="201.5" y="-303.5" font-family="sans" font-size="10.00">get_biobakery_chocophlan_db</text>
</g>
<!-- 15&#45;&gt;13 -->
<g id="edge25" class="edge">
<title>15&#45;&gt;13</title>
<path fill="none" stroke="grey" stroke-width="2" d="M211.88,-287.7C216.76,-279.56 222.69,-269.69 228.08,-260.7"/>
<polygon fill="grey" stroke="grey" stroke-width="2" points="231.09,-262.48 233.24,-252.1 225.09,-258.88 231.09,-262.48"/>
</g>
<!-- 16 -->
<g id="node17" class="node">
<title>16</title>
<path fill="none" stroke="#56d87b" stroke-width="2" d="M427,-324C427,-324 314,-324 314,-324 308,-324 302,-318 302,-312 302,-312 302,-300 302,-300 302,-294 308,-288 314,-288 314,-288 427,-288 427,-288 433,-288 439,-294 439,-300 439,-300 439,-312 439,-312 439,-318 433,-324 427,-324"/>
<text text-anchor="middle" x="370.5" y="-303.5" font-family="sans" font-size="10.00">get_biobakery_uniref_db</text>
</g>
<!-- 16&#45;&gt;13 -->
<g id="edge26" class="edge">
<title>16&#45;&gt;13</title>
<path fill="none" stroke="grey" stroke-width="2" d="M339.43,-287.88C322.67,-278.64 301.79,-267.13 283.8,-257.21"/>
<polygon fill="grey" stroke="grey" stroke-width="2" points="285.13,-253.95 274.69,-252.19 281.76,-260.08 285.13,-253.95"/>
</g>
<!-- 17 -->
<g id="node18" class="node">
<title>17</title>
<path fill="none" stroke="#56d88a" stroke-width="2" d="M570,-324C570,-324 469,-324 469,-324 463,-324 457,-318 457,-312 457,-312 457,-300 457,-300 457,-294 463,-288 469,-288 469,-288 570,-288 570,-288 576,-288 582,-294 582,-300 582,-300 582,-312 582,-312 582,-318 576,-324 570,-324"/>
<text text-anchor="middle" x="519.5" y="-303.5" font-family="sans" font-size="10.00">concat_nonhost_reads</text>
</g>
<!-- 17&#45;&gt;13 -->
<g id="edge27" class="edge">
<title>17&#45;&gt;13</title>
<path fill="none" stroke="grey" stroke-width="2" d="M456.87,-289.12C414.58,-278.39 358.67,-264.21 314.69,-253.06"/>
<polygon fill="grey" stroke="grey" stroke-width="2" points="315.48,-249.65 304.93,-250.58 313.76,-256.43 315.48,-249.65"/>
</g>
<!-- 18&#45;&gt;17 -->
<g id="edge28" class="edge">
<title>18&#45;&gt;17</title>
<path fill="none" stroke="grey" stroke-width="2" d="M626.68,-360.59C607.61,-351.06 583.37,-338.93 562.76,-328.63"/>
<polygon fill="grey" stroke="grey" stroke-width="2" points="564.09,-325.38 553.58,-324.04 560.96,-331.64 564.09,-325.38"/>
</g>
<!-- 24 -->
<g id="node25" class="node">
<title>24</title>
<path fill="none" stroke="#97d856" stroke-width="2" d="M629.5,-180C629.5,-180 591.5,-180 591.5,-180 585.5,-180 579.5,-174 579.5,-168 579.5,-168 579.5,-156 579.5,-156 579.5,-150 585.5,-144 591.5,-144 591.5,-144 629.5,-144 629.5,-144 635.5,-144 641.5,-150 641.5,-156 641.5,-156 641.5,-168 641.5,-168 641.5,-174 635.5,-180 629.5,-180"/>
<text text-anchor="middle" x="610.5" y="-159.5" font-family="sans" font-size="10.00">nonpareil</text>
</g>
<!-- 18&#45;&gt;24 -->
<g id="edge37" class="edge">
<title>18&#45;&gt;24</title>
<path fill="none" stroke="grey" stroke-width="2" d="M647.35,-359.67C640.98,-349.7 633.64,-336.66 629.5,-324 614.71,-278.82 611.17,-223.17 610.47,-190.54"/>
<polygon fill="grey" stroke="grey" stroke-width="2" points="613.96,-190.35 610.33,-180.4 606.97,-190.45 613.96,-190.35"/>
</g>
<!-- 35 -->
<g id="node36" class="node">
<title>35</title>
<path fill="none" stroke="#5663d8" stroke-width="2" d="M698,-324C698,-324 651,-324 651,-324 645,-324 639,-318 639,-312 639,-312 639,-300 639,-300 639,-294 645,-288 651,-288 651,-288 698,-288 698,-288 704,-288 710,-294 710,-300 710,-300 710,-312 710,-312 710,-318 704,-324 698,-324"/>
<text text-anchor="middle" x="674.5" y="-303.5" font-family="sans" font-size="10.00">run_kraken</text>
</g>
<!-- 18&#45;&gt;35 -->
<g id="edge53" class="edge">
<title>18&#45;&gt;35</title>
<path fill="none" stroke="grey" stroke-width="2" d="M663.21,-359.7C664.86,-351.98 666.85,-342.71 668.69,-334.11"/>
<polygon fill="grey" stroke="grey" stroke-width="2" points="672.16,-334.62 670.83,-324.1 665.32,-333.15 672.16,-334.62"/>
</g>
<!-- 19 -->
<g id="node20" class="node">
<title>19</title>
<path fill="none" stroke="#d8ac56" stroke-width="2" d="M707,-468C707,-468 612,-468 612,-468 606,-468 600,-462 600,-456 600,-456 600,-444 600,-444 600,-438 606,-432 612,-432 612,-432 707,-432 707,-432 713,-432 719,-438 719,-444 719,-444 719,-456 719,-456 719,-462 713,-468 707,-468"/>
<text text-anchor="middle" x="659.5" y="-447.5" font-family="sans" font-size="10.00">download_hostile_db</text>
</g>
<!-- 19&#45;&gt;18 -->
<g id="edge29" class="edge">
<title>19&#45;&gt;18</title>
<path fill="none" stroke="grey" stroke-width="2" d="M659.5,-431.7C659.5,-423.98 659.5,-414.71 659.5,-406.11"/>
<polygon fill="grey" stroke="grey" stroke-width="2" points="663,-406.1 659.5,-396.1 656,-406.1 663,-406.1"/>
</g>
<!-- 20&#45;&gt;0 -->
<g id="edge4" class="edge">
<title>20&#45;&gt;0</title>
<path fill="none" stroke="grey" stroke-width="2" d="M479.64,-74.6C482.62,-73.67 485.6,-72.79 488.5,-72 571.99,-49.28 672.34,-32.46 725.4,-24.37"/>
<polygon fill="grey" stroke="grey" stroke-width="2" points="725.99,-27.82 735.36,-22.87 724.95,-20.9 725.99,-27.82"/>
</g>
<!-- 21 -->
<g id="node22" class="node">
<title>21</title>
<path fill="none" stroke="#56c1d8" stroke-width="2" d="M570.5,-252C570.5,-252 484.5,-252 484.5,-252 478.5,-252 472.5,-246 472.5,-240 472.5,-240 472.5,-228 472.5,-228 472.5,-222 478.5,-216 484.5,-216 484.5,-216 570.5,-216 570.5,-216 576.5,-216 582.5,-222 582.5,-228 582.5,-228 582.5,-240 582.5,-240 582.5,-246 576.5,-252 570.5,-252"/>
<text text-anchor="middle" x="527.5" y="-231.5" font-family="sans" font-size="10.00">install_R_packages</text>
</g>
<!-- 21&#45;&gt;20 -->
<g id="edge33" class="edge">
<title>21&#45;&gt;20</title>
<path fill="none" stroke="grey" stroke-width="2" d="M522.11,-215.74C515.86,-197.15 504.48,-167.12 489.5,-144 483.03,-134.02 474.62,-124.15 466.6,-115.68"/>
<polygon fill="grey" stroke="grey" stroke-width="2" points="468.91,-113.04 459.41,-108.34 463.91,-117.93 468.91,-113.04"/>
</g>
<!-- 21&#45;&gt;22 -->
<g id="edge35" class="edge">
<title>21&#45;&gt;22</title>
<path fill="none" stroke="grey" stroke-width="2" d="M472.23,-218.34C468.94,-217.53 465.68,-216.75 462.5,-216 386.04,-198.06 339.05,-240.93 289.5,-180 275.51,-162.8 279.34,-137.03 285.45,-117.64"/>
<polygon fill="grey" stroke="grey" stroke-width="2" points="288.76,-118.75 288.76,-108.16 282.16,-116.44 288.76,-118.75"/>
</g>
<!-- 21&#45;&gt;24 -->
<g id="edge38" class="edge">
<title>21&#45;&gt;24</title>
<path fill="none" stroke="grey" stroke-width="2" d="M548.02,-215.7C558.37,-206.97 571.09,-196.24 582.34,-186.75"/>
<polygon fill="grey" stroke="grey" stroke-width="2" points="584.83,-189.23 590.22,-180.1 580.32,-183.88 584.83,-189.23"/>
</g>
<!-- 21&#45;&gt;36 -->
<g id="edge56" class="edge">
<title>21&#45;&gt;36</title>
<path fill="none" stroke="grey" stroke-width="2" d="M533.41,-215.87C541.8,-191.56 557.24,-146.82 567.18,-118.01"/>
<polygon fill="grey" stroke="grey" stroke-width="2" points="570.62,-118.78 570.57,-108.19 564,-116.5 570.62,-118.78"/>
</g>
<!-- 22&#45;&gt;0 -->
<g id="edge5" class="edge">
<title>22&#45;&gt;0</title>
<path fill="none" stroke="grey" stroke-width="2" d="M345.53,-75.09C350.23,-73.96 354.95,-72.91 359.5,-72 492.79,-45.37 653.64,-28.81 725.13,-22.24"/>
<polygon fill="grey" stroke="grey" stroke-width="2" points="725.77,-25.7 735.41,-21.31 725.14,-18.73 725.77,-25.7"/>
</g>
<!-- 23 -->
<g id="node24" class="node">
<title>23</title>
<path fill="none" stroke="#5682d8" stroke-width="2" d="M761.5,-108C761.5,-108 685.5,-108 685.5,-108 679.5,-108 673.5,-102 673.5,-96 673.5,-96 673.5,-84 673.5,-84 673.5,-78 679.5,-72 685.5,-72 685.5,-72 761.5,-72 761.5,-72 767.5,-72 773.5,-78 773.5,-84 773.5,-84 773.5,-96 773.5,-96 773.5,-102 767.5,-108 761.5,-108"/>
<text text-anchor="middle" x="723.5" y="-87.5" font-family="sans" font-size="10.00">nonpareil_curves</text>
</g>
<!-- 23&#45;&gt;0 -->
<g id="edge6" class="edge">
<title>23&#45;&gt;0</title>
<path fill="none" stroke="grey" stroke-width="2" d="M733.14,-71.7C737.63,-63.64 743.06,-53.89 748.02,-44.98"/>
<polygon fill="grey" stroke="grey" stroke-width="2" points="751.16,-46.54 752.97,-36.1 745.05,-43.14 751.16,-46.54"/>
</g>
<!-- 24&#45;&gt;23 -->
<g id="edge36" class="edge">
<title>24&#45;&gt;23</title>
<path fill="none" stroke="grey" stroke-width="2" d="M638.14,-143.88C652.92,-134.72 671.29,-123.34 687.2,-113.48"/>
<polygon fill="grey" stroke="grey" stroke-width="2" points="689.09,-116.43 695.75,-108.19 685.41,-110.48 689.09,-116.43"/>
</g>
<!-- 25 -->
<g id="node26" class="node">
<title>25</title>
<path fill="none" stroke="#56d8c9" stroke-width="2" d="M989.5,-252C989.5,-252 875.5,-252 875.5,-252 869.5,-252 863.5,-246 863.5,-240 863.5,-240 863.5,-228 863.5,-228 863.5,-222 869.5,-216 875.5,-216 875.5,-216 989.5,-216 989.5,-216 995.5,-216 1001.5,-222 1001.5,-228 1001.5,-228 1001.5,-240 1001.5,-240 1001.5,-246 995.5,-252 989.5,-252"/>
<text text-anchor="middle" x="932.5" y="-231.5" font-family="sans" font-size="10.00">generate_feature_counts</text>
</g>
<!-- 25&#45;&gt;0 -->
<g id="edge7" class="edge">
<title>25&#45;&gt;0</title>
<path fill="none" stroke="grey" stroke-width="2" d="M902.36,-215.77C887.88,-206.47 871.01,-194.04 858.5,-180 821.96,-139.02 827.29,-118.76 798.5,-72 792.96,-63 786.57,-53.38 780.73,-44.84"/>
<polygon fill="grey" stroke="grey" stroke-width="2" points="783.47,-42.64 774.9,-36.41 777.71,-46.62 783.47,-42.64"/>
</g>
<!-- 30 -->
<g id="node31" class="node">
<title>30</title>
<path fill="none" stroke="#d6d856" stroke-width="2" d="M985,-180C985,-180 880,-180 880,-180 874,-180 868,-174 868,-168 868,-168 868,-156 868,-156 868,-150 874,-144 880,-144 880,-144 985,-144 985,-144 991,-144 997,-150 997,-156 997,-156 997,-168 997,-168 997,-174 991,-180 985,-180"/>
<text text-anchor="middle" x="932.5" y="-159.5" font-family="sans" font-size="10.00">feature_counts_to_tpm</text>
</g>
<!-- 25&#45;&gt;30 -->
<g id="edge47" class="edge">
<title>25&#45;&gt;30</title>
<path fill="none" stroke="grey" stroke-width="2" d="M932.5,-215.7C932.5,-207.98 932.5,-198.71 932.5,-190.11"/>
<polygon fill="grey" stroke="grey" stroke-width="2" points="936,-190.1 932.5,-180.1 929,-190.1 936,-190.1"/>
</g>
<!-- 26 -->
<g id="node27" class="node">
<title>26</title>
<path fill="none" stroke="#d88556" stroke-width="2" d="M964.5,-540C964.5,-540 882.5,-540 882.5,-540 876.5,-540 870.5,-534 870.5,-528 870.5,-528 870.5,-516 870.5,-516 870.5,-510 876.5,-504 882.5,-504 882.5,-504 964.5,-504 964.5,-504 970.5,-504 976.5,-510 976.5,-516 976.5,-516 976.5,-528 976.5,-528 976.5,-534 970.5,-540 964.5,-540"/>
<text text-anchor="middle" x="923.5" y="-519.5" font-family="sans" font-size="10.00">pull_host_genome</text>
</g>
<!-- 26&#45;&gt;25 -->
<g id="edge39" class="edge">
<title>26&#45;&gt;25</title>
<path fill="none" stroke="grey" stroke-width="2" d="M910.35,-503.91C903.58,-494.01 896.01,-480.96 892.5,-468 882.86,-432.44 866.16,-386.12 897.5,-288 900.59,-278.33 905.98,-268.77 911.62,-260.48"/>
<polygon fill="grey" stroke="grey" stroke-width="2" points="914.47,-262.51 917.5,-252.35 908.8,-258.4 914.47,-262.51"/>
</g>
<!-- 29 -->
<g id="node30" class="node">
<title>29</title>
<path fill="none" stroke="#56d89a" stroke-width="2" d="M1033.5,-468C1033.5,-468 913.5,-468 913.5,-468 907.5,-468 901.5,-462 901.5,-456 901.5,-456 901.5,-444 901.5,-444 901.5,-438 907.5,-432 913.5,-432 913.5,-432 1033.5,-432 1033.5,-432 1039.5,-432 1045.5,-438 1045.5,-444 1045.5,-444 1045.5,-456 1045.5,-456 1045.5,-462 1039.5,-468 1033.5,-468"/>
<text text-anchor="middle" x="973.5" y="-447.5" font-family="sans" font-size="10.00">build_host_genome_index</text>
</g>
<!-- 26&#45;&gt;29 -->
<g id="edge46" class="edge">
<title>26&#45;&gt;29</title>
<path fill="none" stroke="grey" stroke-width="2" d="M935.86,-503.7C941.73,-495.47 948.87,-485.48 955.34,-476.42"/>
<polygon fill="grey" stroke="grey" stroke-width="2" points="958.32,-478.28 961.28,-468.1 952.62,-474.21 958.32,-478.28"/>
</g>
<!-- 27 -->
<g id="node28" class="node">
<title>27</title>
<path fill="none" stroke="#61d856" stroke-width="2" d="M984,-324C984,-324 919,-324 919,-324 913,-324 907,-318 907,-312 907,-312 907,-300 907,-300 907,-294 913,-288 919,-288 919,-288 984,-288 984,-288 990,-288 996,-294 996,-300 996,-300 996,-312 996,-312 996,-318 990,-324 984,-324"/>
<text text-anchor="middle" x="951.5" y="-303.5" font-family="sans" font-size="10.00">validate_bams</text>
</g>
<!-- 27&#45;&gt;25 -->
<g id="edge40" class="edge">
<title>27&#45;&gt;25</title>
<path fill="none" stroke="grey" stroke-width="2" d="M946.8,-287.7C944.69,-279.9 942.14,-270.51 939.78,-261.83"/>
<polygon fill="grey" stroke="grey" stroke-width="2" points="943.14,-260.84 937.14,-252.1 936.38,-262.67 943.14,-260.84"/>
</g>
<!-- 28&#45;&gt;25 -->
<g id="edge41" class="edge">
<title>28&#45;&gt;25</title>
<path fill="none" stroke="grey" stroke-width="2" d="M1011.9,-359.79C1014.71,-340.98 1016.52,-310.51 1004.5,-288 998.03,-275.89 987.44,-265.82 976.34,-257.83"/>
<polygon fill="grey" stroke="grey" stroke-width="2" points="978.07,-254.78 967.82,-252.12 974.18,-260.59 978.07,-254.78"/>
</g>
<!-- 28&#45;&gt;27 -->
<g id="edge42" class="edge">
<title>28&#45;&gt;27</title>
<path fill="none" stroke="grey" stroke-width="2" d="M994.41,-359.7C987.58,-351.3 979.24,-341.07 971.74,-331.86"/>
<polygon fill="grey" stroke="grey" stroke-width="2" points="974.46,-329.65 965.43,-324.1 969.03,-334.07 974.46,-329.65"/>
</g>
<!-- 29&#45;&gt;28 -->
<g id="edge43" class="edge">
<title>29&#45;&gt;28</title>
<path fill="none" stroke="grey" stroke-width="2" d="M982.15,-431.7C986.14,-423.73 990.95,-414.1 995.37,-405.26"/>
<polygon fill="grey" stroke="grey" stroke-width="2" points="998.61,-406.61 999.95,-396.1 992.35,-403.48 998.61,-406.61"/>
</g>
<!-- 30&#45;&gt;0 -->
<g id="edge8" class="edge">
<title>30&#45;&gt;0</title>
<path fill="none" stroke="grey" stroke-width="2" d="M919.91,-143.79C905.37,-124.7 880.04,-93.73 853.5,-72 836.91,-58.42 816.42,-46.15 799.09,-36.85"/>
<polygon fill="grey" stroke="grey" stroke-width="2" points="800.31,-33.54 789.83,-32 797.06,-39.74 800.31,-33.54"/>
</g>
<!-- 31 -->
<g id="node32" class="node">
<title>31</title>
<path fill="none" stroke="#56d0d8" stroke-width="2" d="M794.5,-180C794.5,-180 708.5,-180 708.5,-180 702.5,-180 696.5,-174 696.5,-168 696.5,-168 696.5,-156 696.5,-156 696.5,-150 702.5,-144 708.5,-144 708.5,-144 794.5,-144 794.5,-144 800.5,-144 806.5,-150 806.5,-156 806.5,-156 806.5,-168 806.5,-168 806.5,-174 800.5,-180 794.5,-180"/>
<text text-anchor="middle" x="751.5" y="-159.5" font-family="sans" font-size="10.00">aggregate_bracken</text>
</g>
<!-- 31&#45;&gt;0 -->
<g id="edge9" class="edge">
<title>31&#45;&gt;0</title>
<path fill="none" stroke="grey" stroke-width="2" d="M764.65,-143.91C771.42,-134.01 778.99,-120.96 782.5,-108 788.11,-87.3 782.19,-63.6 775.36,-45.86"/>
<polygon fill="grey" stroke="grey" stroke-width="2" points="778.4,-44.05 771.32,-36.17 771.94,-46.75 778.4,-44.05"/>
</g>
<!-- 32 -->
<g id="node33" class="node">
<title>32</title>
<path fill="none" stroke="#56b1d8" stroke-width="2" d="M769.5,-252C769.5,-252 717.5,-252 717.5,-252 711.5,-252 705.5,-246 705.5,-240 705.5,-240 705.5,-228 705.5,-228 705.5,-222 711.5,-216 717.5,-216 717.5,-216 769.5,-216 769.5,-216 775.5,-216 781.5,-222 781.5,-228 781.5,-228 781.5,-240 781.5,-240 781.5,-246 775.5,-252 769.5,-252"/>
<text text-anchor="middle" x="743.5" y="-231.5" font-family="sans" font-size="10.00">run_bracken</text>
</g>
<!-- 32&#45;&gt;31 -->
<g id="edge48" class="edge">
<title>32&#45;&gt;31</title>
<path fill="none" stroke="grey" stroke-width="2" d="M745.48,-215.7C746.36,-207.98 747.42,-198.71 748.4,-190.11"/>
<polygon fill="grey" stroke="grey" stroke-width="2" points="751.89,-190.44 749.55,-180.1 744.93,-189.64 751.89,-190.44"/>
</g>
<!-- 33 -->
<g id="node34" class="node">
<title>33</title>
<path fill="none" stroke="#5673d8" stroke-width="2" d="M786.5,-396C786.5,-396 722.5,-396 722.5,-396 716.5,-396 710.5,-390 710.5,-384 710.5,-384 710.5,-372 710.5,-372 710.5,-366 716.5,-360 722.5,-360 722.5,-360 786.5,-360 786.5,-360 792.5,-360 798.5,-366 798.5,-372 798.5,-372 798.5,-384 798.5,-384 798.5,-390 792.5,-396 786.5,-396"/>
<text text-anchor="middle" x="754.5" y="-375.5" font-family="sans" font-size="10.00">get_kraken_db</text>
</g>
<!-- 33&#45;&gt;32 -->
<g id="edge49" class="edge">
<title>33&#45;&gt;32</title>
<path fill="none" stroke="grey" stroke-width="2" d="M753.17,-359.87C751.3,-335.67 747.85,-291.21 745.62,-262.39"/>
<polygon fill="grey" stroke="grey" stroke-width="2" points="749.09,-261.89 744.83,-252.19 742.11,-262.43 749.09,-261.89"/>
</g>
<!-- 34 -->
<g id="node35" class="node">
<title>34</title>
<path fill="none" stroke="#56d8b9" stroke-width="2" d="M838.5,-324C838.5,-324 778.5,-324 778.5,-324 772.5,-324 766.5,-318 766.5,-312 766.5,-312 766.5,-300 766.5,-300 766.5,-294 772.5,-288 778.5,-288 778.5,-288 838.5,-288 838.5,-288 844.5,-288 850.5,-294 850.5,-300 850.5,-300 850.5,-312 850.5,-312 850.5,-318 844.5,-324 838.5,-324"/>
<text text-anchor="middle" x="808.5" y="-303.5" font-family="sans" font-size="10.00">build_bracken</text>
</g>
<!-- 33&#45;&gt;34 -->
<g id="edge52" class="edge">
<title>33&#45;&gt;34</title>
<path fill="none" stroke="grey" stroke-width="2" d="M767.85,-359.7C774.26,-351.39 782.06,-341.28 789.11,-332.14"/>
<polygon fill="grey" stroke="grey" stroke-width="2" points="791.97,-334.16 795.31,-324.1 786.43,-329.88 791.97,-334.16"/>
</g>
<!-- 33&#45;&gt;35 -->
<g id="edge54" class="edge">
<title>33&#45;&gt;35</title>
<path fill="none" stroke="grey" stroke-width="2" d="M734.72,-359.7C724.75,-350.97 712.49,-340.24 701.64,-330.75"/>
<polygon fill="grey" stroke="grey" stroke-width="2" points="703.88,-328.06 694.05,-324.1 699.27,-333.32 703.88,-328.06"/>
</g>
<!-- 34&#45;&gt;32 -->
<g id="edge50" class="edge">
<title>34&#45;&gt;32</title>
<path fill="none" stroke="grey" stroke-width="2" d="M792.43,-287.7C784.56,-279.22 774.94,-268.86 766.33,-259.58"/>
<polygon fill="grey" stroke="grey" stroke-width="2" points="768.75,-257.05 759.38,-252.1 763.62,-261.81 768.75,-257.05"/>
</g>
<!-- 35&#45;&gt;32 -->
<g id="edge51" class="edge">
<title>35&#45;&gt;32</title>
<path fill="none" stroke="grey" stroke-width="2" d="M691.56,-287.7C700,-279.14 710.32,-268.66 719.54,-259.3"/>
<polygon fill="grey" stroke="grey" stroke-width="2" points="722.11,-261.68 726.64,-252.1 717.13,-256.77 722.11,-261.68"/>
</g>
<!-- 36&#45;&gt;0 -->
<g id="edge10" class="edge">
<title>36&#45;&gt;0</title>
<path fill="none" stroke="grey" stroke-width="2" d="M622,-71.88C653.89,-59.88 695.96,-44.04 725.72,-32.84"/>
<polygon fill="grey" stroke="grey" stroke-width="2" points="727.19,-36.03 735.32,-29.23 724.72,-29.48 727.19,-36.03"/>
</g>
</g>
</svg>
